<?xml version="1.0" encoding="utf-8" standalone="no"?>
<!DOCTYPE svg PUBLIC "-//W3C//DTD SVG 1.1//EN"
  "http://www.w3.org/Graphics/SVG/1.1/DTD/svg11.dtd">
<svg xmlns:xlink="http://www.w3.org/1999/xlink" width="243.995935pt" height="246.305768pt" viewBox="0 0 243.995935 246.305768" xmlns="http://www.w3.org/2000/svg" version="1.1">
 <metadata>
  <rdf:RDF xmlns:dc="http://purl.org/dc/elements/1.1/" xmlns:cc="http://creativecommons.org/ns#" xmlns:rdf="http://www.w3.org/1999/02/22-rdf-syntax-ns#">
   <cc:Work>
    <dc:type rdf:resource="http://purl.org/dc/dcmitype/StillImage"/>
    <dc:date>2025-05-01T11:57:00.407756</dc:date>
    <dc:format>image/svg+xml</dc:format>
    <dc:creator>
     <cc:Agent>
      <dc:title>Matplotlib v3.10.0, https://matplotlib.org/</dc:title>
     </cc:Agent>
    </dc:creator>
   </cc:Work>
  </rdf:RDF>
 </metadata>
 <defs>
  <style type="text/css">*{stroke-linejoin: round; stroke-linecap: butt}</style>
 </defs>
 <g id="figure_1">
  <g id="patch_1">
   <path d="M 0 246.305768 
L 243.995935 246.305768 
L 243.995935 -0 
L 0 -0 
L 0 246.305768 
z
" style="fill: none"/>
  </g>
  <g id="axes_1">
   <g id="patch_2">
    <path d="M 41.27625 213.282018 
L 236.795935 213.282018 
L 236.795935 19.02375 
L 41.27625 19.02375 
L 41.27625 213.282018 
z
" style="fill: none"/>
   </g>
   <g id="PathCollection_1">
    <defs>
     <path id="C0_0_4374ccbd1e" d="M 0 1.936492 
C 0.513564 1.936492 1.006162 1.732451 1.369306 1.369306 
C 1.732451 1.006162 1.936492 0.513564 1.936492 -0 
C 1.936492 -0.513564 1.732451 -1.006162 1.369306 -1.369306 
C 1.006162 -1.732451 0.513564 -1.936492 0 -1.936492 
C -0.513564 -1.936492 -1.006162 -1.732451 -1.369306 -1.369306 
C -1.732451 -1.006162 -1.936492 -0.513564 -1.936492 0 
C -1.936492 0.513564 -1.732451 1.006162 -1.369306 1.369306 
C -1.006162 1.732451 -0.513564 1.936492 0 1.936492 
z
"/>
    </defs>
    <g clip-path="url(#p0f7dd23e4b)">
     <use xlink:href="#C0_0_4374ccbd1e" x="173.058992" y="129.673942" style="fill: #ff0000"/>
    </g>
    <g clip-path="url(#p0f7dd23e4b)">
     <use xlink:href="#C0_0_4374ccbd1e" x="115.142518" y="158.938509" style="fill: #ff0000"/>
    </g>
    <g clip-path="url(#p0f7dd23e4b)">
     <use xlink:href="#C0_0_4374ccbd1e" x="60.548882" y="177.754838" style="fill: #ff0000"/>
    </g>
    <g clip-path="url(#p0f7dd23e4b)">
     <use xlink:href="#C0_0_4374ccbd1e" x="174.954626" y="148.206099" style="fill: #ff0000"/>
    </g>
    <g clip-path="url(#p0f7dd23e4b)">
     <use xlink:href="#C0_0_4374ccbd1e" x="50.163508" y="121.261642" style="fill: #ff0000"/>
    </g>
    <g clip-path="url(#p0f7dd23e4b)">
     <use xlink:href="#C0_0_4374ccbd1e" x="71.457685" y="91.698673" style="fill: #ff0000"/>
    </g>
    <g clip-path="url(#p0f7dd23e4b)">
     <use xlink:href="#C0_0_4374ccbd1e" x="169.485827" y="103.749612" style="fill: #ff0000"/>
    </g>
    <g clip-path="url(#p0f7dd23e4b)">
     <use xlink:href="#C0_0_4374ccbd1e" x="227.908677" y="48.759577" style="fill: #ff0000"/>
    </g>
    <g clip-path="url(#p0f7dd23e4b)">
     <use xlink:href="#C0_0_4374ccbd1e" x="179.923411" y="101.460039" style="fill: #ff0000"/>
    </g>
   </g>
   <g id="matplotlib.axis_1">
    <g id="xtick_1">
     <g id="line2d_1">
      <defs>
       <path id="m3c29179405" d="M 0 0 
L 0 3.5 
" style="stroke: #000000; stroke-width: 0.8"/>
      </defs>
      <g>
       <use xlink:href="#m3c29179405" x="43.625056" y="213.282018" style="stroke: #000000; stroke-width: 0.8"/>
      </g>
     </g>
     <g id="text_1">
      <text style="font-size: 8px; font-family: 'Arial'; text-anchor: middle" x="43.625056" y="226.008268" transform="rotate(-0 43.625056 226.008268)">10</text>
     </g>
    </g>
    <g id="xtick_2">
     <g id="line2d_2">
      <g>
       <use xlink:href="#m3c29179405" x="78.190921" y="213.282018" style="stroke: #000000; stroke-width: 0.8"/>
      </g>
     </g>
     <g id="text_2">
      <text style="font-size: 8px; font-family: 'Arial'; text-anchor: middle" x="78.190921" y="226.008268" transform="rotate(-0 78.190921 226.008268)">12</text>
     </g>
    </g>
    <g id="xtick_3">
     <g id="line2d_3">
      <g>
       <use xlink:href="#m3c29179405" x="112.756786" y="213.282018" style="stroke: #000000; stroke-width: 0.8"/>
      </g>
     </g>
     <g id="text_3">
      <text style="font-size: 8px; font-family: 'Arial'; text-anchor: middle" x="112.756786" y="226.008268" transform="rotate(-0 112.756786 226.008268)">14</text>
     </g>
    </g>
    <g id="xtick_4">
     <g id="line2d_4">
      <g>
       <use xlink:href="#m3c29179405" x="147.322651" y="213.282018" style="stroke: #000000; stroke-width: 0.8"/>
      </g>
     </g>
     <g id="text_4">
      <text style="font-size: 8px; font-family: 'Arial'; text-anchor: middle" x="147.322651" y="226.008268" transform="rotate(-0 147.322651 226.008268)">16</text>
     </g>
    </g>
    <g id="xtick_5">
     <g id="line2d_5">
      <g>
       <use xlink:href="#m3c29179405" x="181.888516" y="213.282018" style="stroke: #000000; stroke-width: 0.8"/>
      </g>
     </g>
     <g id="text_5">
      <text style="font-size: 8px; font-family: 'Arial'; text-anchor: middle" x="181.888516" y="226.008268" transform="rotate(-0 181.888516 226.008268)">18</text>
     </g>
    </g>
    <g id="xtick_6">
     <g id="line2d_6">
      <g>
       <use xlink:href="#m3c29179405" x="216.454382" y="213.282018" style="stroke: #000000; stroke-width: 0.8"/>
      </g>
     </g>
     <g id="text_6">
      <text style="font-size: 8px; font-family: 'Arial'; text-anchor: middle" x="216.454382" y="226.008268" transform="rotate(-0 216.454382 226.008268)">20</text>
     </g>
    </g>
    <g id="text_7">
     <text style="font-size: 8px; font-family: 'Arial'; text-anchor: middle" x="139.036093" y="237.422018" transform="rotate(-0 139.036093 237.422018)">log2(Proteomics)</text>
    </g>
   </g>
   <g id="matplotlib.axis_2">
    <g id="ytick_1">
     <g id="line2d_7">
      <defs>
       <path id="m88954842c3" d="M 0 0 
L -3.5 0 
" style="stroke: #000000; stroke-width: 0.8"/>
      </defs>
      <g>
       <use xlink:href="#m88954842c3" x="41.27625" y="213.282018" style="stroke: #000000; stroke-width: 0.8"/>
      </g>
     </g>
     <g id="text_8">
      <text style="font-size: 8px; font-family: 'Arial'; text-anchor: end" x="34.27625" y="216.145143" transform="rotate(-0 34.27625 216.145143)">0.0</text>
     </g>
    </g>
    <g id="ytick_2">
     <g id="line2d_8">
      <g>
       <use xlink:href="#m88954842c3" x="41.27625" y="188.999734" style="stroke: #000000; stroke-width: 0.8"/>
      </g>
     </g>
     <g id="text_9">
      <text style="font-size: 8px; font-family: 'Arial'; text-anchor: end" x="34.27625" y="191.862859" transform="rotate(-0 34.27625 191.862859)">2.5</text>
     </g>
    </g>
    <g id="ytick_3">
     <g id="line2d_9">
      <g>
       <use xlink:href="#m88954842c3" x="41.27625" y="164.717451" style="stroke: #000000; stroke-width: 0.8"/>
      </g>
     </g>
     <g id="text_10">
      <text style="font-size: 8px; font-family: 'Arial'; text-anchor: end" x="34.27625" y="167.580576" transform="rotate(-0 34.27625 167.580576)">5.0</text>
     </g>
    </g>
    <g id="ytick_4">
     <g id="line2d_10">
      <g>
       <use xlink:href="#m88954842c3" x="41.27625" y="140.435167" style="stroke: #000000; stroke-width: 0.8"/>
      </g>
     </g>
     <g id="text_11">
      <text style="font-size: 8px; font-family: 'Arial'; text-anchor: end" x="34.27625" y="143.298292" transform="rotate(-0 34.27625 143.298292)">7.5</text>
     </g>
    </g>
    <g id="ytick_5">
     <g id="line2d_11">
      <g>
       <use xlink:href="#m88954842c3" x="41.27625" y="116.152884" style="stroke: #000000; stroke-width: 0.8"/>
      </g>
     </g>
     <g id="text_12">
      <text style="font-size: 8px; font-family: 'Arial'; text-anchor: end" x="34.27625" y="119.016009" transform="rotate(-0 34.27625 119.016009)">10.0</text>
     </g>
    </g>
    <g id="ytick_6">
     <g id="line2d_12">
      <g>
       <use xlink:href="#m88954842c3" x="41.27625" y="91.8706" style="stroke: #000000; stroke-width: 0.8"/>
      </g>
     </g>
     <g id="text_13">
      <text style="font-size: 8px; font-family: 'Arial'; text-anchor: end" x="34.27625" y="94.733725" transform="rotate(-0 34.27625 94.733725)">12.5</text>
     </g>
    </g>
    <g id="ytick_7">
     <g id="line2d_13">
      <g>
       <use xlink:href="#m88954842c3" x="41.27625" y="67.588317" style="stroke: #000000; stroke-width: 0.8"/>
      </g>
     </g>
     <g id="text_14">
      <text style="font-size: 8px; font-family: 'Arial'; text-anchor: end" x="34.27625" y="70.451442" transform="rotate(-0 34.27625 70.451442)">15.0</text>
     </g>
    </g>
    <g id="ytick_8">
     <g id="line2d_14">
      <g>
       <use xlink:href="#m88954842c3" x="41.27625" y="43.306033" style="stroke: #000000; stroke-width: 0.8"/>
      </g>
     </g>
     <g id="text_15">
      <text style="font-size: 8px; font-family: 'Arial'; text-anchor: end" x="34.27625" y="46.169158" transform="rotate(-0 34.27625 46.169158)">17.5</text>
     </g>
    </g>
    <g id="ytick_9">
     <g id="line2d_15">
      <g>
       <use xlink:href="#m88954842c3" x="41.27625" y="19.02375" style="stroke: #000000; stroke-width: 0.8"/>
      </g>
     </g>
     <g id="text_16">
      <text style="font-size: 8px; font-family: 'Arial'; text-anchor: end" x="34.27625" y="21.886875" transform="rotate(-0 34.27625 21.886875)">20.0</text>
     </g>
    </g>
    <g id="text_17">
     <text style="font-size: 8px; font-family: 'Arial'; text-anchor: middle" x="13.02375" y="116.152884" transform="rotate(-90 13.02375 116.152884)">log2(Transcriptomics)</text>
    </g>
   </g>
   <g id="line2d_16">
    <path d="M 50.163508 146.635044 
L 51.958914 146.080449 
L 53.75432 145.525855 
L 55.549726 144.971261 
L 57.345131 144.416666 
L 59.140537 143.862072 
L 60.935943 143.307477 
L 62.731349 142.752883 
L 64.526754 142.198288 
L 66.32216 141.643694 
L 68.117566 141.089099 
L 69.912972 140.534505 
L 71.708377 139.97991 
L 73.503783 139.425316 
L 75.299189 138.870721 
L 77.094595 138.316127 
L 78.89 137.761532 
L 80.685406 137.206938 
L 82.480812 136.652344 
L 84.276217 136.097749 
L 86.071623 135.543155 
L 87.867029 134.98856 
L 89.662435 134.433966 
L 91.45784 133.879371 
L 93.253246 133.324777 
L 95.048652 132.770182 
L 96.844058 132.215588 
L 98.639463 131.660993 
L 100.434869 131.106399 
L 102.230275 130.551804 
L 104.025681 129.99721 
L 105.821086 129.442615 
L 107.616492 128.888021 
L 109.411898 128.333427 
L 111.207304 127.778832 
L 113.002709 127.224238 
L 114.798115 126.669643 
L 116.593521 126.115049 
L 118.388927 125.560454 
L 120.184332 125.00586 
L 121.979738 124.451265 
L 123.775144 123.896671 
L 125.570549 123.342076 
L 127.365955 122.787482 
L 129.161361 122.232887 
L 130.956767 121.678293 
L 132.752172 121.123699 
L 134.547578 120.569104 
L 136.342984 120.01451 
L 138.13839 119.459915 
L 139.933795 118.905321 
L 141.729201 118.350726 
L 143.524607 117.796132 
L 145.320013 117.241537 
L 147.115418 116.686943 
L 148.910824 116.132348 
L 150.70623 115.577754 
L 152.501636 115.023159 
L 154.297041 114.468565 
L 156.092447 113.91397 
L 157.887853 113.359376 
L 159.683259 112.804782 
L 161.478664 112.250187 
L 163.27407 111.695593 
L 165.069476 111.140998 
L 166.864881 110.586404 
L 168.660287 110.031809 
L 170.455693 109.477215 
L 172.251099 108.92262 
L 174.046504 108.368026 
L 175.84191 107.813431 
L 177.637316 107.258837 
L 179.432722 106.704242 
L 181.228127 106.149648 
L 183.023533 105.595053 
L 184.818939 105.040459 
L 186.614345 104.485865 
L 188.40975 103.93127 
L 190.205156 103.376676 
L 192.000562 102.822081 
L 193.795968 102.267487 
L 195.591373 101.712892 
L 197.386779 101.158298 
L 199.182185 100.603703 
L 200.977591 100.049109 
L 202.772996 99.494514 
L 204.568402 98.93992 
L 206.363808 98.385325 
L 208.159213 97.830731 
L 209.954619 97.276137 
L 211.750025 96.721542 
L 213.545431 96.166948 
L 215.340836 95.612353 
L 217.136242 95.057759 
L 218.931648 94.503164 
L 220.727054 93.94857 
L 222.522459 93.393975 
L 224.317865 92.839381 
L 226.113271 92.284786 
L 227.908677 91.730192 
" clip-path="url(#p0f7dd23e4b)" style="fill: none; stroke-dasharray: 3.7,1.6; stroke-dashoffset: 0; stroke: #ff0000"/>
   </g>
   <g id="patch_3">
    <path d="M 41.27625 213.282018 
L 41.27625 19.02375 
" style="fill: none; stroke: #000000; stroke-width: 0.5; stroke-linejoin: miter; stroke-linecap: square"/>
   </g>
   <g id="patch_4">
    <path d="M 41.27625 213.282018 
L 236.795935 213.282018 
" style="fill: none; stroke: #000000; stroke-width: 0.5; stroke-linejoin: miter; stroke-linecap: square"/>
   </g>
   <g id="text_18">
    <text style="font-size: 8px; font-family: 'Arial'" transform="translate(51.052234 39.60724)">y = 0.55x + 1.16</text>
    <text style="font-size: 8px; font-family: 'Arial'" transform="translate(51.052234 48.16249)">R2 = 0.25</text>
   </g>
   <g id="text_19">
    <text style="font-size: 8px; font-family: 'Arial'; text-anchor: middle" x="190.40348" y="134.264901" transform="rotate(-0 190.40348 134.264901)">GCG</text>
   </g>
   <g id="text_20">
    <text style="font-size: 8px; font-family: 'Arial'; text-anchor: middle" x="129.964171" y="155.330256" transform="rotate(-0 129.964171 155.330256)">TTR</text>
   </g>
   <g id="text_21">
    <text style="font-size: 8px; font-family: 'Arial'; text-anchor: middle" x="89.021644" y="184.185458" transform="rotate(-0 89.021644 184.185458)">SLC2A2</text>
   </g>
   <g id="text_22">
    <text style="font-size: 8px; font-family: 'Arial'; text-anchor: middle" x="191.747244" y="151.971798" transform="rotate(-0 191.747244 151.971798)">INS2</text>
   </g>
   <g id="text_23">
    <text style="font-size: 8px; font-family: 'Arial'; text-anchor: middle" x="74.52463" y="125.852601" transform="rotate(-0 74.52463 125.852601)">GLP1R</text>
   </g>
   <g id="text_24">
    <text style="font-size: 8px; font-family: 'Arial'; text-anchor: middle" x="100.864476" y="86.829003" transform="rotate(-0 100.864476 86.829003)">RESP18</text>
   </g>
   <g id="text_25">
    <text style="font-size: 8px; font-family: 'Arial'; text-anchor: middle" x="202.155892" y="80.939283" transform="rotate(-0 202.155892 80.939283)">SCG5</text>
   </g>
   <g id="text_26">
    <text style="font-size: 8px; font-family: 'Arial'; text-anchor: middle" x="223.235699" y="42.628489" transform="rotate(-0 223.235699 42.628489)">SST</text>
   </g>
   <g id="text_27">
    <text style="font-size: 8px; font-family: 'Arial'; text-anchor: middle" x="201.257776" y="99.51065" transform="rotate(-0 201.257776 99.51065)">RBP4</text>
   </g>
   <g id="patch_5">
    <path d="M 188.425971 131.909139 
Q 181.731056 130.935333 175.03614 129.961527 
" style="fill: none; stroke: #000000; stroke-width: 0.2; stroke-linecap: round"/>
   </g>
   <g id="patch_6">
    <path d="M 128.093372 153.978607 
Q 122.552266 156.100733 117.011159 158.222859 
" style="fill: none; stroke: #000000; stroke-width: 0.2; stroke-linecap: round"/>
   </g>
   <g id="patch_7">
    <path d="M 87.043983 181.814323 
Q 74.784501 179.935969 62.525018 178.057614 
" style="fill: none; stroke: #000000; stroke-width: 0.2; stroke-linecap: round"/>
   </g>
   <g id="patch_8">
    <path d="M 189.758861 149.702666 
Q 183.352487 149.055043 176.946114 148.407419 
" style="fill: none; stroke: #000000; stroke-width: 0.2; stroke-linecap: round"/>
   </g>
   <g id="patch_9">
    <path d="M 72.535178 123.578449 
Q 62.344763 122.523131 52.154347 121.467813 
" style="fill: none; stroke: #000000; stroke-width: 0.2; stroke-linecap: round"/>
   </g>
   <g id="patch_10">
    <path d="M 98.915271 85.220744 
Q 86.160163 88.229992 73.405055 91.23924 
" style="fill: none; stroke: #000000; stroke-width: 0.2; stroke-linecap: round"/>
   </g>
   <g id="patch_11">
    <path d="M 200.566656 80.081371 
Q 185.821094 91.310206 171.075533 102.539042 
" style="fill: none; stroke: #000000; stroke-width: 0.2; stroke-linecap: round"/>
   </g>
   <g id="patch_12">
    <path d="M 224.22825 42.301896 
Q 225.573367 44.662039 226.918484 47.022183 
" style="fill: none; stroke: #000000; stroke-width: 0.2; stroke-linecap: round"/>
   </g>
   <g id="patch_13">
    <path d="M 199.291535 97.812792 
Q 190.588646 99.451649 181.885758 101.090506 
" style="fill: none; stroke: #000000; stroke-width: 0.2; stroke-linecap: round"/>
   </g>
   <g id="text_28">
    <text style="font-size: 8px; font-family: 'Arial'; text-anchor: middle" x="139.036093" y="13.02375" transform="rotate(-0 139.036093 13.02375)">Delta Ifng</text>
   </g>
  </g>
 </g>
 <defs>
  <clipPath id="p0f7dd23e4b">
   <rect x="41.27625" y="19.02375" width="195.519685" height="194.258268"/>
  </clipPath>
 </defs>
</svg>
