<?xml version="1.0" encoding="utf-8" standalone="no"?>
<!DOCTYPE svg PUBLIC "-//W3C//DTD SVG 1.1//EN"
  "http://www.w3.org/Graphics/SVG/1.1/DTD/svg11.dtd">
<svg xmlns:xlink="http://www.w3.org/1999/xlink" width="244.288247pt" height="246.208268pt" viewBox="0 0 244.288247 246.208268" xmlns="http://www.w3.org/2000/svg" version="1.1">
 <metadata>
  <rdf:RDF xmlns:dc="http://purl.org/dc/elements/1.1/" xmlns:cc="http://creativecommons.org/ns#" xmlns:rdf="http://www.w3.org/1999/02/22-rdf-syntax-ns#">
   <cc:Work>
    <dc:type rdf:resource="http://purl.org/dc/dcmitype/StillImage"/>
    <dc:date>2025-04-25T14:22:22.032820</dc:date>
    <dc:format>image/svg+xml</dc:format>
    <dc:creator>
     <cc:Agent>
      <dc:title>Matplotlib v3.10.0, https://matplotlib.org/</dc:title>
     </cc:Agent>
    </dc:creator>
   </cc:Work>
  </rdf:RDF>
 </metadata>
 <defs>
  <style type="text/css">*{stroke-linejoin: round; stroke-linecap: butt}</style>
 </defs>
 <g id="figure_1">
  <g id="patch_1">
   <path d="M 0 246.208268 
L 244.288247 246.208268 
L 244.288247 -0 
L 0 -0 
L 0 246.208268 
z
" style="fill: none"/>
  </g>
  <g id="axes_1">
   <g id="patch_2">
    <path d="M 41.27625 213.184518 
L 236.795935 213.184518 
L 236.795935 18.92625 
L 41.27625 18.92625 
L 41.27625 213.184518 
z
" style="fill: none"/>
   </g>
   <g id="PathCollection_1">
    <defs>
     <path id="C0_0_cb21f48862" d="M 0 1.936492 
C 0.513564 1.936492 1.006162 1.732451 1.369306 1.369306 
C 1.732451 1.006162 1.936492 0.513564 1.936492 -0 
C 1.936492 -0.513564 1.732451 -1.006162 1.369306 -1.369306 
C 1.006162 -1.732451 0.513564 -1.936492 0 -1.936492 
C -0.513564 -1.936492 -1.006162 -1.732451 -1.369306 -1.369306 
C -1.732451 -1.006162 -1.936492 -0.513564 -1.936492 0 
C -1.936492 0.513564 -1.732451 1.006162 -1.369306 1.369306 
C -1.006162 1.732451 -0.513564 1.936492 0 1.936492 
z
"/>
    </defs>
    <g clip-path="url(#p1a62c66bee)">
     <use xlink:href="#C0_0_cb21f48862" x="66.396677" y="109.995411" style="fill: #ff0000"/>
    </g>
    <g clip-path="url(#p1a62c66bee)">
     <use xlink:href="#C0_0_cb21f48862" x="190.723243" y="84.599911" style="fill: #ff0000"/>
    </g>
    <g clip-path="url(#p1a62c66bee)">
     <use xlink:href="#C0_0_cb21f48862" x="164.407127" y="119.552462" style="fill: #ff0000"/>
    </g>
    <g clip-path="url(#p1a62c66bee)">
     <use xlink:href="#C0_0_cb21f48862" x="131.93315" y="107.589881" style="fill: #ff0000"/>
    </g>
    <g clip-path="url(#p1a62c66bee)">
     <use xlink:href="#C0_0_cb21f48862" x="66.396677" y="109.995411" style="fill: #ff0000"/>
    </g>
    <g clip-path="url(#p1a62c66bee)">
     <use xlink:href="#C0_0_cb21f48862" x="227.908677" y="40.08281" style="fill: #ff0000"/>
    </g>
    <g clip-path="url(#p1a62c66bee)">
     <use xlink:href="#C0_0_cb21f48862" x="84.217411" y="106.548421" style="fill: #ff0000"/>
    </g>
    <g clip-path="url(#p1a62c66bee)">
     <use xlink:href="#C0_0_cb21f48862" x="85.511536" y="108.495874" style="fill: #ff0000"/>
    </g>
    <g clip-path="url(#p1a62c66bee)">
     <use xlink:href="#C0_0_cb21f48862" x="101.218826" y="83.237763" style="fill: #ff0000"/>
    </g>
    <g clip-path="url(#p1a62c66bee)">
     <use xlink:href="#C0_0_cb21f48862" x="50.163508" y="103.109967" style="fill: #ff0000"/>
    </g>
    <g clip-path="url(#p1a62c66bee)">
     <use xlink:href="#C0_0_cb21f48862" x="167.973881" y="101.532046" style="fill: #ff0000"/>
    </g>
    <g clip-path="url(#p1a62c66bee)">
     <use xlink:href="#C0_0_cb21f48862" x="68.61238" y="125.609791" style="fill: #ff0000"/>
    </g>
    <g clip-path="url(#p1a62c66bee)">
     <use xlink:href="#C0_0_cb21f48862" x="64.384307" y="159.960805" style="fill: #ff0000"/>
    </g>
   </g>
   <g id="matplotlib.axis_1">
    <g id="xtick_1">
     <g id="line2d_1">
      <defs>
       <path id="me7495d6f5f" d="M 0 0 
L 0 3.5 
" style="stroke: #000000; stroke-width: 0.8"/>
      </defs>
      <g>
       <use xlink:href="#me7495d6f5f" x="76.805083" y="213.184518" style="stroke: #000000; stroke-width: 0.8"/>
      </g>
     </g>
     <g id="text_1">
      <text style="font-size: 8px; font-family: 'Arial'; text-anchor: middle" x="76.805083" y="225.910768" transform="rotate(-0 76.805083 225.910768)">12</text>
     </g>
    </g>
    <g id="xtick_2">
     <g id="line2d_2">
      <g>
       <use xlink:href="#me7495d6f5f" x="115.763687" y="213.184518" style="stroke: #000000; stroke-width: 0.8"/>
      </g>
     </g>
     <g id="text_2">
      <text style="font-size: 8px; font-family: 'Arial'; text-anchor: middle" x="115.763687" y="225.910768" transform="rotate(-0 115.763687 225.910768)">14</text>
     </g>
    </g>
    <g id="xtick_3">
     <g id="line2d_3">
      <g>
       <use xlink:href="#me7495d6f5f" x="154.72229" y="213.184518" style="stroke: #000000; stroke-width: 0.8"/>
      </g>
     </g>
     <g id="text_3">
      <text style="font-size: 8px; font-family: 'Arial'; text-anchor: middle" x="154.72229" y="225.910768" transform="rotate(-0 154.72229 225.910768)">16</text>
     </g>
    </g>
    <g id="xtick_4">
     <g id="line2d_4">
      <g>
       <use xlink:href="#me7495d6f5f" x="193.680893" y="213.184518" style="stroke: #000000; stroke-width: 0.8"/>
      </g>
     </g>
     <g id="text_4">
      <text style="font-size: 8px; font-family: 'Arial'; text-anchor: middle" x="193.680893" y="225.910768" transform="rotate(-0 193.680893 225.910768)">18</text>
     </g>
    </g>
    <g id="xtick_5">
     <g id="line2d_5">
      <g>
       <use xlink:href="#me7495d6f5f" x="232.639497" y="213.184518" style="stroke: #000000; stroke-width: 0.8"/>
      </g>
     </g>
     <g id="text_5">
      <text style="font-size: 8px; font-family: 'Arial'; text-anchor: middle" x="232.639497" y="225.910768" transform="rotate(-0 232.639497 225.910768)">20</text>
     </g>
    </g>
    <g id="text_6">
     <text style="font-size: 8px; font-family: 'Arial'; text-anchor: middle" x="139.036093" y="237.324518" transform="rotate(-0 139.036093 237.324518)">log2(Proteomics)</text>
    </g>
   </g>
   <g id="matplotlib.axis_2">
    <g id="ytick_1">
     <g id="line2d_6">
      <defs>
       <path id="mb302fbd7e8" d="M 0 0 
L -3.5 0 
" style="stroke: #000000; stroke-width: 0.8"/>
      </defs>
      <g>
       <use xlink:href="#mb302fbd7e8" x="41.27625" y="213.184518" style="stroke: #000000; stroke-width: 0.8"/>
      </g>
     </g>
     <g id="text_7">
      <text style="font-size: 8px; font-family: 'Arial'; text-anchor: end" x="34.27625" y="216.047643" transform="rotate(-0 34.27625 216.047643)">0.0</text>
     </g>
    </g>
    <g id="ytick_2">
     <g id="line2d_7">
      <g>
       <use xlink:href="#mb302fbd7e8" x="41.27625" y="188.902234" style="stroke: #000000; stroke-width: 0.8"/>
      </g>
     </g>
     <g id="text_8">
      <text style="font-size: 8px; font-family: 'Arial'; text-anchor: end" x="34.27625" y="191.765359" transform="rotate(-0 34.27625 191.765359)">2.5</text>
     </g>
    </g>
    <g id="ytick_3">
     <g id="line2d_8">
      <g>
       <use xlink:href="#mb302fbd7e8" x="41.27625" y="164.619951" style="stroke: #000000; stroke-width: 0.8"/>
      </g>
     </g>
     <g id="text_9">
      <text style="font-size: 8px; font-family: 'Arial'; text-anchor: end" x="34.27625" y="167.483076" transform="rotate(-0 34.27625 167.483076)">5.0</text>
     </g>
    </g>
    <g id="ytick_4">
     <g id="line2d_9">
      <g>
       <use xlink:href="#mb302fbd7e8" x="41.27625" y="140.337667" style="stroke: #000000; stroke-width: 0.8"/>
      </g>
     </g>
     <g id="text_10">
      <text style="font-size: 8px; font-family: 'Arial'; text-anchor: end" x="34.27625" y="143.200792" transform="rotate(-0 34.27625 143.200792)">7.5</text>
     </g>
    </g>
    <g id="ytick_5">
     <g id="line2d_10">
      <g>
       <use xlink:href="#mb302fbd7e8" x="41.27625" y="116.055384" style="stroke: #000000; stroke-width: 0.8"/>
      </g>
     </g>
     <g id="text_11">
      <text style="font-size: 8px; font-family: 'Arial'; text-anchor: end" x="34.27625" y="118.918509" transform="rotate(-0 34.27625 118.918509)">10.0</text>
     </g>
    </g>
    <g id="ytick_6">
     <g id="line2d_11">
      <g>
       <use xlink:href="#mb302fbd7e8" x="41.27625" y="91.7731" style="stroke: #000000; stroke-width: 0.8"/>
      </g>
     </g>
     <g id="text_12">
      <text style="font-size: 8px; font-family: 'Arial'; text-anchor: end" x="34.27625" y="94.636225" transform="rotate(-0 34.27625 94.636225)">12.5</text>
     </g>
    </g>
    <g id="ytick_7">
     <g id="line2d_12">
      <g>
       <use xlink:href="#mb302fbd7e8" x="41.27625" y="67.490817" style="stroke: #000000; stroke-width: 0.8"/>
      </g>
     </g>
     <g id="text_13">
      <text style="font-size: 8px; font-family: 'Arial'; text-anchor: end" x="34.27625" y="70.353942" transform="rotate(-0 34.27625 70.353942)">15.0</text>
     </g>
    </g>
    <g id="ytick_8">
     <g id="line2d_13">
      <g>
       <use xlink:href="#mb302fbd7e8" x="41.27625" y="43.208533" style="stroke: #000000; stroke-width: 0.8"/>
      </g>
     </g>
     <g id="text_14">
      <text style="font-size: 8px; font-family: 'Arial'; text-anchor: end" x="34.27625" y="46.071658" transform="rotate(-0 34.27625 46.071658)">17.5</text>
     </g>
    </g>
    <g id="ytick_9">
     <g id="line2d_14">
      <g>
       <use xlink:href="#mb302fbd7e8" x="41.27625" y="18.92625" style="stroke: #000000; stroke-width: 0.8"/>
      </g>
     </g>
     <g id="text_15">
      <text style="font-size: 8px; font-family: 'Arial'; text-anchor: end" x="34.27625" y="21.789375" transform="rotate(-0 34.27625 21.789375)">20.0</text>
     </g>
    </g>
    <g id="text_16">
     <text style="font-size: 8px; font-family: 'Arial'; text-anchor: middle" x="13.02375" y="116.055384" transform="rotate(-90 13.02375 116.055384)">log2(Transcriptomics)</text>
    </g>
   </g>
   <g id="line2d_15">
    <path d="M 50.163508 124.099063 
L 51.958914 123.543621 
L 53.75432 122.988179 
L 55.549726 122.432737 
L 57.345131 121.877296 
L 59.140537 121.321854 
L 60.935943 120.766412 
L 62.731349 120.21097 
L 64.526754 119.655529 
L 66.32216 119.100087 
L 68.117566 118.544645 
L 69.912972 117.989203 
L 71.708377 117.433762 
L 73.503783 116.87832 
L 75.299189 116.322878 
L 77.094595 115.767436 
L 78.89 115.211994 
L 80.685406 114.656553 
L 82.480812 114.101111 
L 84.276217 113.545669 
L 86.071623 112.990227 
L 87.867029 112.434786 
L 89.662435 111.879344 
L 91.45784 111.323902 
L 93.253246 110.76846 
L 95.048652 110.213019 
L 96.844058 109.657577 
L 98.639463 109.102135 
L 100.434869 108.546693 
L 102.230275 107.991252 
L 104.025681 107.43581 
L 105.821086 106.880368 
L 107.616492 106.324926 
L 109.411898 105.769485 
L 111.207304 105.214043 
L 113.002709 104.658601 
L 114.798115 104.103159 
L 116.593521 103.547718 
L 118.388927 102.992276 
L 120.184332 102.436834 
L 121.979738 101.881392 
L 123.775144 101.325951 
L 125.570549 100.770509 
L 127.365955 100.215067 
L 129.161361 99.659625 
L 130.956767 99.104183 
L 132.752172 98.548742 
L 134.547578 97.9933 
L 136.342984 97.437858 
L 138.13839 96.882416 
L 139.933795 96.326975 
L 141.729201 95.771533 
L 143.524607 95.216091 
L 145.320013 94.660649 
L 147.115418 94.105208 
L 148.910824 93.549766 
L 150.70623 92.994324 
L 152.501636 92.438882 
L 154.297041 91.883441 
L 156.092447 91.327999 
L 157.887853 90.772557 
L 159.683259 90.217115 
L 161.478664 89.661674 
L 163.27407 89.106232 
L 165.069476 88.55079 
L 166.864881 87.995348 
L 168.660287 87.439907 
L 170.455693 86.884465 
L 172.251099 86.329023 
L 174.046504 85.773581 
L 175.84191 85.21814 
L 177.637316 84.662698 
L 179.432722 84.107256 
L 181.228127 83.551814 
L 183.023533 82.996372 
L 184.818939 82.440931 
L 186.614345 81.885489 
L 188.40975 81.330047 
L 190.205156 80.774605 
L 192.000562 80.219164 
L 193.795968 79.663722 
L 195.591373 79.10828 
L 197.386779 78.552838 
L 199.182185 77.997397 
L 200.977591 77.441955 
L 202.772996 76.886513 
L 204.568402 76.331071 
L 206.363808 75.77563 
L 208.159213 75.220188 
L 209.954619 74.664746 
L 211.750025 74.109304 
L 213.545431 73.553863 
L 215.340836 72.998421 
L 217.136242 72.442979 
L 218.931648 71.887537 
L 220.727054 71.332096 
L 222.522459 70.776654 
L 224.317865 70.221212 
L 226.113271 69.66577 
L 227.908677 69.110329 
" clip-path="url(#p1a62c66bee)" style="fill: none; stroke-dasharray: 3.7,1.6; stroke-dashoffset: 0; stroke: #ff0000"/>
   </g>
   <g id="patch_3">
    <path d="M 41.27625 213.184518 
L 41.27625 18.92625 
" style="fill: none; stroke: #000000; stroke-width: 0.5; stroke-linejoin: miter; stroke-linecap: square"/>
   </g>
   <g id="patch_4">
    <path d="M 41.27625 213.184518 
L 236.795935 213.184518 
" style="fill: none; stroke: #000000; stroke-width: 0.5; stroke-linejoin: miter; stroke-linecap: square"/>
   </g>
   <g id="text_17">
    <text style="font-size: 8px; font-family: 'Arial'" transform="translate(51.052234 39.50974)">y = 0.62x + 2.58</text>
    <text style="font-size: 8px; font-family: 'Arial'" transform="translate(51.052234 48.06499)">R2 = 0.43</text>
   </g>
   <g id="text_18">
    <text style="font-size: 8px; font-family: 'Arial'; text-anchor: middle" x="115.277926" y="96.880422" transform="rotate(-0 115.277926 96.880422)">MAFA</text>
   </g>
   <g id="text_19">
    <text style="font-size: 8px; font-family: 'Arial'; text-anchor: middle" x="210.590566" y="72.792446" transform="rotate(-0 210.590566 72.792446)">GCG</text>
   </g>
   <g id="text_20">
    <text style="font-size: 8px; font-family: 'Arial'; text-anchor: middle" x="189.320119" y="127.927673" transform="rotate(-0 189.320119 127.927673)">TTR</text>
   </g>
   <g id="text_21">
    <text style="font-size: 8px; font-family: 'Arial'; text-anchor: middle" x="195.950079" y="112.399613" transform="rotate(-0 195.950079 112.399613)">SLC2A2</text>
   </g>
   <g id="text_22">
    <text style="font-size: 8px; font-family: 'Arial'; text-anchor: middle" x="71.707943" y="97.227997" transform="rotate(-0 71.707943 97.227997)">MAFA</text>
   </g>
   <g id="text_23">
    <text style="font-size: 8px; font-family: 'Arial'; text-anchor: middle" x="221.264734" y="33.951722" transform="rotate(-0 221.264734 33.951722)">INS2</text>
   </g>
   <g id="text_24">
    <text style="font-size: 8px; font-family: 'Arial'; text-anchor: middle" x="116.225876" y="116.601893" transform="rotate(-0 116.225876 116.601893)">NKX6-1</text>
   </g>
   <g id="text_25">
    <text style="font-size: 8px; font-family: 'Arial'; text-anchor: middle" x="115.864391" y="135.792345" transform="rotate(-0 115.864391 135.792345)">UCN3</text>
   </g>
   <g id="text_26">
    <text style="font-size: 8px; font-family: 'Arial'; text-anchor: middle" x="130.625618" y="71.430297" transform="rotate(-0 130.625618 71.430297)">GLP1R</text>
   </g>
   <g id="text_27">
    <text style="font-size: 8px; font-family: 'Arial'; text-anchor: middle" x="68.160207" y="81.211163" transform="rotate(-0 68.160207 81.211163)">RESP18</text>
   </g>
   <g id="text_28">
    <text style="font-size: 8px; font-family: 'Arial'; text-anchor: middle" x="170.733231" y="91.072566" transform="rotate(-0 170.733231 91.072566)">SCG5</text>
   </g>
   <g id="text_29">
    <text style="font-size: 8px; font-family: 'Arial'; text-anchor: middle" x="74.604112" y="135.24642" transform="rotate(-0 74.604112 135.24642)">SST</text>
   </g>
   <g id="text_30">
    <text style="font-size: 8px; font-family: 'Arial'; text-anchor: middle" x="84.093953" y="164.551765" transform="rotate(-0 84.093953 164.551765)">RBP4</text>
   </g>
   <g id="patch_5">
    <path d="M 113.365519 95.406314 
Q 90.83716 102.403898 68.3088 109.401482 
" style="fill: none; stroke: #000000; stroke-width: 0.2; stroke-linecap: round"/>
   </g>
   <g id="patch_6">
    <path d="M 208.948698 71.871022 
Q 200.655805 77.662884 192.362911 83.454746 
" style="fill: none; stroke: #000000; stroke-width: 0.2; stroke-linecap: round"/>
   </g>
   <g id="patch_7">
    <path d="M 187.382915 125.369117 
Q 176.864031 122.706108 166.345148 120.0431 
" style="fill: none; stroke: #000000; stroke-width: 0.2; stroke-linecap: round"/>
   </g>
   <g id="patch_8">
    <path d="M 193.953458 110.24598 
Q 163.940762 108.960648 133.928066 107.675316 
" style="fill: none; stroke: #000000; stroke-width: 0.2; stroke-linecap: round"/>
   </g>
   <g id="patch_9">
    <path d="M 71.034958 97.039668 
Q 69.052704 102.57654 67.070451 108.113412 
" style="fill: none; stroke: #000000; stroke-width: 0.2; stroke-linecap: round"/>
   </g>
   <g id="patch_10">
    <path d="M 222.525072 33.438965 
Q 224.587297 35.983934 226.649523 38.528903 
" style="fill: none; stroke: #000000; stroke-width: 0.2; stroke-linecap: round"/>
   </g>
   <g id="patch_11">
    <path d="M 114.283956 114.049306 
Q 100.22146 110.541049 86.158964 107.032792 
" style="fill: none; stroke: #000000; stroke-width: 0.2; stroke-linecap: round"/>
   </g>
   <g id="patch_12">
    <path d="M 114.32674 132.446173 
Q 100.687708 121.109834 87.048676 109.773496 
" style="fill: none; stroke: #000000; stroke-width: 0.2; stroke-linecap: round"/>
   </g>
   <g id="patch_13">
    <path d="M 128.82 70.214152 
Q 115.924066 76.299097 103.028132 82.384042 
" style="fill: none; stroke: #000000; stroke-width: 0.2; stroke-linecap: round"/>
   </g>
   <g id="patch_14">
    <path d="M 66.958523 80.743369 
Q 59.160691 91.128056 51.362859 101.512743 
" style="fill: none; stroke: #000000; stroke-width: 0.2; stroke-linecap: round"/>
   </g>
   <g id="patch_15">
    <path d="M 170.302756 90.958821 
Q 169.353523 95.268391 168.40429 99.577961 
" style="fill: none; stroke: #000000; stroke-width: 0.2; stroke-linecap: round"/>
   </g>
   <g id="patch_16">
    <path d="M 73.360711 131.607683 
Q 71.60675 129.392153 69.852789 127.176623 
" style="fill: none; stroke: #000000; stroke-width: 0.2; stroke-linecap: round"/>
   </g>
   <g id="patch_17">
    <path d="M 82.106628 162.229262 
Q 74.238454 161.222136 66.37028 160.21501 
" style="fill: none; stroke: #000000; stroke-width: 0.2; stroke-linecap: round"/>
   </g>
   <g id="text_31">
    <text style="font-size: 8px; font-family: 'Arial'; text-anchor: middle" x="139.036093" y="12.92625" transform="rotate(-0 139.036093 12.92625)">Beta Control</text>
   </g>
  </g>
 </g>
 <defs>
  <clipPath id="p1a62c66bee">
   <rect x="41.27625" y="18.92625" width="195.519685" height="194.258268"/>
  </clipPath>
 </defs>
</svg>
