<?xml version="1.0" encoding="utf-8" standalone="no"?>
<!DOCTYPE svg PUBLIC "-//W3C//DTD SVG 1.1//EN"
  "http://www.w3.org/Graphics/SVG/1.1/DTD/svg11.dtd">
<svg xmlns:xlink="http://www.w3.org/1999/xlink" width="246.52863pt" height="246.208268pt" viewBox="0 0 246.52863 246.208268" xmlns="http://www.w3.org/2000/svg" version="1.1">
 <metadata>
  <rdf:RDF xmlns:dc="http://purl.org/dc/elements/1.1/" xmlns:cc="http://creativecommons.org/ns#" xmlns:rdf="http://www.w3.org/1999/02/22-rdf-syntax-ns#">
   <cc:Work>
    <dc:type rdf:resource="http://purl.org/dc/dcmitype/StillImage"/>
    <dc:date>2025-05-01T11:57:00.327722</dc:date>
    <dc:format>image/svg+xml</dc:format>
    <dc:creator>
     <cc:Agent>
      <dc:title>Matplotlib v3.10.0, https://matplotlib.org/</dc:title>
     </cc:Agent>
    </dc:creator>
   </cc:Work>
  </rdf:RDF>
 </metadata>
 <defs>
  <style type="text/css">*{stroke-linejoin: round; stroke-linecap: butt}</style>
 </defs>
 <g id="figure_1">
  <g id="patch_1">
   <path d="M 0 246.208268 
L 246.52863 246.208268 
L 246.52863 -0 
L 0 -0 
L 0 246.208268 
z
" style="fill: none"/>
  </g>
  <g id="axes_1">
   <g id="patch_2">
    <path d="M 41.27625 213.184518 
L 236.795935 213.184518 
L 236.795935 18.92625 
L 41.27625 18.92625 
L 41.27625 213.184518 
z
" style="fill: none"/>
   </g>
   <g id="PathCollection_1">
    <defs>
     <path id="C0_0_261dcfe9e4" d="M 0 1.936492 
C 0.513564 1.936492 1.006162 1.732451 1.369306 1.369306 
C 1.732451 1.006162 1.936492 0.513564 1.936492 -0 
C 1.936492 -0.513564 1.732451 -1.006162 1.369306 -1.369306 
C 1.006162 -1.732451 0.513564 -1.936492 0 -1.936492 
C -0.513564 -1.936492 -1.006162 -1.732451 -1.369306 -1.369306 
C -1.732451 -1.006162 -1.936492 -0.513564 -1.936492 0 
C -1.936492 0.513564 -1.732451 1.006162 -1.369306 1.369306 
C -1.006162 1.732451 -0.513564 1.936492 0 1.936492 
z
"/>
    </defs>
    <g clip-path="url(#p3e01b0777c)">
     <use xlink:href="#C0_0_261dcfe9e4" x="158.741421" y="105.767627" style="fill: #ff0000"/>
    </g>
    <g clip-path="url(#p3e01b0777c)">
     <use xlink:href="#C0_0_261dcfe9e4" x="107.523422" y="131.758701" style="fill: #ff0000"/>
    </g>
    <g clip-path="url(#p3e01b0777c)">
     <use xlink:href="#C0_0_261dcfe9e4" x="66.540182" y="171.234876" style="fill: #ff0000"/>
    </g>
    <g clip-path="url(#p3e01b0777c)">
     <use xlink:href="#C0_0_261dcfe9e4" x="166.462247" y="121.451535" style="fill: #ff0000"/>
    </g>
    <g clip-path="url(#p3e01b0777c)">
     <use xlink:href="#C0_0_261dcfe9e4" x="50.163508" y="116.13851" style="fill: #ff0000"/>
    </g>
    <g clip-path="url(#p3e01b0777c)">
     <use xlink:href="#C0_0_261dcfe9e4" x="162.238822" y="104.05843" style="fill: #ff0000"/>
    </g>
    <g clip-path="url(#p3e01b0777c)">
     <use xlink:href="#C0_0_261dcfe9e4" x="227.908677" y="35.999493" style="fill: #ff0000"/>
    </g>
    <g clip-path="url(#p3e01b0777c)">
     <use xlink:href="#C0_0_261dcfe9e4" x="172.393144" y="91.380915" style="fill: #ff0000"/>
    </g>
   </g>
   <g id="matplotlib.axis_1">
    <g id="xtick_1">
     <g id="line2d_1">
      <defs>
       <path id="mb1a43b0649" d="M 0 0 
L 0 3.5 
" style="stroke: #000000; stroke-width: 0.8"/>
      </defs>
      <g>
       <use xlink:href="#mb1a43b0649" x="45.111782" y="213.184518" style="stroke: #000000; stroke-width: 0.8"/>
      </g>
     </g>
     <g id="text_1">
      <text style="font-size: 8px; font-family: 'Arial'; text-anchor: middle" x="45.111782" y="225.910768" transform="rotate(-0 45.111782 225.910768)">10</text>
     </g>
    </g>
    <g id="xtick_2">
     <g id="line2d_2">
      <g>
       <use xlink:href="#mb1a43b0649" x="76.739798" y="213.184518" style="stroke: #000000; stroke-width: 0.8"/>
      </g>
     </g>
     <g id="text_2">
      <text style="font-size: 8px; font-family: 'Arial'; text-anchor: middle" x="76.739798" y="225.910768" transform="rotate(-0 76.739798 225.910768)">12</text>
     </g>
    </g>
    <g id="xtick_3">
     <g id="line2d_3">
      <g>
       <use xlink:href="#mb1a43b0649" x="108.367814" y="213.184518" style="stroke: #000000; stroke-width: 0.8"/>
      </g>
     </g>
     <g id="text_3">
      <text style="font-size: 8px; font-family: 'Arial'; text-anchor: middle" x="108.367814" y="225.910768" transform="rotate(-0 108.367814 225.910768)">14</text>
     </g>
    </g>
    <g id="xtick_4">
     <g id="line2d_4">
      <g>
       <use xlink:href="#mb1a43b0649" x="139.995831" y="213.184518" style="stroke: #000000; stroke-width: 0.8"/>
      </g>
     </g>
     <g id="text_4">
      <text style="font-size: 8px; font-family: 'Arial'; text-anchor: middle" x="139.995831" y="225.910768" transform="rotate(-0 139.995831 225.910768)">16</text>
     </g>
    </g>
    <g id="xtick_5">
     <g id="line2d_5">
      <g>
       <use xlink:href="#mb1a43b0649" x="171.623847" y="213.184518" style="stroke: #000000; stroke-width: 0.8"/>
      </g>
     </g>
     <g id="text_5">
      <text style="font-size: 8px; font-family: 'Arial'; text-anchor: middle" x="171.623847" y="225.910768" transform="rotate(-0 171.623847 225.910768)">18</text>
     </g>
    </g>
    <g id="xtick_6">
     <g id="line2d_6">
      <g>
       <use xlink:href="#mb1a43b0649" x="203.251864" y="213.184518" style="stroke: #000000; stroke-width: 0.8"/>
      </g>
     </g>
     <g id="text_6">
      <text style="font-size: 8px; font-family: 'Arial'; text-anchor: middle" x="203.251864" y="225.910768" transform="rotate(-0 203.251864 225.910768)">20</text>
     </g>
    </g>
    <g id="xtick_7">
     <g id="line2d_7">
      <g>
       <use xlink:href="#mb1a43b0649" x="234.87988" y="213.184518" style="stroke: #000000; stroke-width: 0.8"/>
      </g>
     </g>
     <g id="text_7">
      <text style="font-size: 8px; font-family: 'Arial'; text-anchor: middle" x="234.87988" y="225.910768" transform="rotate(-0 234.87988 225.910768)">22</text>
     </g>
    </g>
    <g id="text_8">
     <text style="font-size: 8px; font-family: 'Arial'; text-anchor: middle" x="139.036093" y="237.324518" transform="rotate(-0 139.036093 237.324518)">log2(Proteomics)</text>
    </g>
   </g>
   <g id="matplotlib.axis_2">
    <g id="ytick_1">
     <g id="line2d_8">
      <defs>
       <path id="mf0d5ed9f0e" d="M 0 0 
L -3.5 0 
" style="stroke: #000000; stroke-width: 0.8"/>
      </defs>
      <g>
       <use xlink:href="#mf0d5ed9f0e" x="41.27625" y="213.184518" style="stroke: #000000; stroke-width: 0.8"/>
      </g>
     </g>
     <g id="text_9">
      <text style="font-size: 8px; font-family: 'Arial'; text-anchor: end" x="34.27625" y="216.047643" transform="rotate(-0 34.27625 216.047643)">0.0</text>
     </g>
    </g>
    <g id="ytick_2">
     <g id="line2d_9">
      <g>
       <use xlink:href="#mf0d5ed9f0e" x="41.27625" y="188.902234" style="stroke: #000000; stroke-width: 0.8"/>
      </g>
     </g>
     <g id="text_10">
      <text style="font-size: 8px; font-family: 'Arial'; text-anchor: end" x="34.27625" y="191.765359" transform="rotate(-0 34.27625 191.765359)">2.5</text>
     </g>
    </g>
    <g id="ytick_3">
     <g id="line2d_10">
      <g>
       <use xlink:href="#mf0d5ed9f0e" x="41.27625" y="164.619951" style="stroke: #000000; stroke-width: 0.8"/>
      </g>
     </g>
     <g id="text_11">
      <text style="font-size: 8px; font-family: 'Arial'; text-anchor: end" x="34.27625" y="167.483076" transform="rotate(-0 34.27625 167.483076)">5.0</text>
     </g>
    </g>
    <g id="ytick_4">
     <g id="line2d_11">
      <g>
       <use xlink:href="#mf0d5ed9f0e" x="41.27625" y="140.337667" style="stroke: #000000; stroke-width: 0.8"/>
      </g>
     </g>
     <g id="text_12">
      <text style="font-size: 8px; font-family: 'Arial'; text-anchor: end" x="34.27625" y="143.200792" transform="rotate(-0 34.27625 143.200792)">7.5</text>
     </g>
    </g>
    <g id="ytick_5">
     <g id="line2d_12">
      <g>
       <use xlink:href="#mf0d5ed9f0e" x="41.27625" y="116.055384" style="stroke: #000000; stroke-width: 0.8"/>
      </g>
     </g>
     <g id="text_13">
      <text style="font-size: 8px; font-family: 'Arial'; text-anchor: end" x="34.27625" y="118.918509" transform="rotate(-0 34.27625 118.918509)">10.0</text>
     </g>
    </g>
    <g id="ytick_6">
     <g id="line2d_13">
      <g>
       <use xlink:href="#mf0d5ed9f0e" x="41.27625" y="91.7731" style="stroke: #000000; stroke-width: 0.8"/>
      </g>
     </g>
     <g id="text_14">
      <text style="font-size: 8px; font-family: 'Arial'; text-anchor: end" x="34.27625" y="94.636225" transform="rotate(-0 34.27625 94.636225)">12.5</text>
     </g>
    </g>
    <g id="ytick_7">
     <g id="line2d_14">
      <g>
       <use xlink:href="#mf0d5ed9f0e" x="41.27625" y="67.490817" style="stroke: #000000; stroke-width: 0.8"/>
      </g>
     </g>
     <g id="text_15">
      <text style="font-size: 8px; font-family: 'Arial'; text-anchor: end" x="34.27625" y="70.353942" transform="rotate(-0 34.27625 70.353942)">15.0</text>
     </g>
    </g>
    <g id="ytick_8">
     <g id="line2d_15">
      <g>
       <use xlink:href="#mf0d5ed9f0e" x="41.27625" y="43.208533" style="stroke: #000000; stroke-width: 0.8"/>
      </g>
     </g>
     <g id="text_16">
      <text style="font-size: 8px; font-family: 'Arial'; text-anchor: end" x="34.27625" y="46.071658" transform="rotate(-0 34.27625 46.071658)">17.5</text>
     </g>
    </g>
    <g id="ytick_9">
     <g id="line2d_16">
      <g>
       <use xlink:href="#mf0d5ed9f0e" x="41.27625" y="18.92625" style="stroke: #000000; stroke-width: 0.8"/>
      </g>
     </g>
     <g id="text_17">
      <text style="font-size: 8px; font-family: 'Arial'; text-anchor: end" x="34.27625" y="21.789375" transform="rotate(-0 34.27625 21.789375)">20.0</text>
     </g>
    </g>
    <g id="text_18">
     <text style="font-size: 8px; font-family: 'Arial'; text-anchor: middle" x="13.02375" y="116.055384" transform="rotate(-90 13.02375 116.055384)">log2(Transcriptomics)</text>
    </g>
   </g>
   <g id="line2d_17">
    <path d="M 50.163508 155.417119 
L 51.958914 154.493609 
L 53.75432 153.570098 
L 55.549726 152.646588 
L 57.345131 151.723078 
L 59.140537 150.799567 
L 60.935943 149.876057 
L 62.731349 148.952547 
L 64.526754 148.029036 
L 66.32216 147.105526 
L 68.117566 146.182016 
L 69.912972 145.258505 
L 71.708377 144.334995 
L 73.503783 143.411485 
L 75.299189 142.487974 
L 77.094595 141.564464 
L 78.89 140.640954 
L 80.685406 139.717443 
L 82.480812 138.793933 
L 84.276217 137.870423 
L 86.071623 136.946913 
L 87.867029 136.023402 
L 89.662435 135.099892 
L 91.45784 134.176382 
L 93.253246 133.252871 
L 95.048652 132.329361 
L 96.844058 131.405851 
L 98.639463 130.48234 
L 100.434869 129.55883 
L 102.230275 128.63532 
L 104.025681 127.711809 
L 105.821086 126.788299 
L 107.616492 125.864789 
L 109.411898 124.941278 
L 111.207304 124.017768 
L 113.002709 123.094258 
L 114.798115 122.170748 
L 116.593521 121.247237 
L 118.388927 120.323727 
L 120.184332 119.400217 
L 121.979738 118.476706 
L 123.775144 117.553196 
L 125.570549 116.629686 
L 127.365955 115.706175 
L 129.161361 114.782665 
L 130.956767 113.859155 
L 132.752172 112.935644 
L 134.547578 112.012134 
L 136.342984 111.088624 
L 138.13839 110.165113 
L 139.933795 109.241603 
L 141.729201 108.318093 
L 143.524607 107.394582 
L 145.320013 106.471072 
L 147.115418 105.547562 
L 148.910824 104.624052 
L 150.70623 103.700541 
L 152.501636 102.777031 
L 154.297041 101.853521 
L 156.092447 100.93001 
L 157.887853 100.0065 
L 159.683259 99.08299 
L 161.478664 98.159479 
L 163.27407 97.235969 
L 165.069476 96.312459 
L 166.864881 95.388948 
L 168.660287 94.465438 
L 170.455693 93.541928 
L 172.251099 92.618417 
L 174.046504 91.694907 
L 175.84191 90.771397 
L 177.637316 89.847887 
L 179.432722 88.924376 
L 181.228127 88.000866 
L 183.023533 87.077356 
L 184.818939 86.153845 
L 186.614345 85.230335 
L 188.40975 84.306825 
L 190.205156 83.383314 
L 192.000562 82.459804 
L 193.795968 81.536294 
L 195.591373 80.612783 
L 197.386779 79.689273 
L 199.182185 78.765763 
L 200.977591 77.842252 
L 202.772996 76.918742 
L 204.568402 75.995232 
L 206.363808 75.071722 
L 208.159213 74.148211 
L 209.954619 73.224701 
L 211.750025 72.301191 
L 213.545431 71.37768 
L 215.340836 70.45417 
L 217.136242 69.53066 
L 218.931648 68.607149 
L 220.727054 67.683639 
L 222.522459 66.760129 
L 224.317865 65.836618 
L 226.113271 64.913108 
L 227.908677 63.989598 
" clip-path="url(#p3e01b0777c)" style="fill: none; stroke-dasharray: 3.7,1.6; stroke-dashoffset: 0; stroke: #ff0000"/>
   </g>
   <g id="patch_3">
    <path d="M 41.27625 213.184518 
L 41.27625 18.92625 
" style="fill: none; stroke: #000000; stroke-width: 0.5; stroke-linejoin: miter; stroke-linecap: square"/>
   </g>
   <g id="patch_4">
    <path d="M 41.27625 213.184518 
L 236.795935 213.184518 
" style="fill: none; stroke: #000000; stroke-width: 0.5; stroke-linejoin: miter; stroke-linecap: square"/>
   </g>
   <g id="text_19">
    <text style="font-size: 8px; font-family: 'Arial'" transform="translate(51.052234 39.50974)">y = 0.84x + -2.69</text>
    <text style="font-size: 8px; font-family: 'Arial'" transform="translate(51.052234 48.06499)">R2 = 0.64</text>
   </g>
   <g id="text_20">
    <text style="font-size: 8px; font-family: 'Arial'; text-anchor: middle" x="191.487936" y="113.037173" transform="rotate(-0 191.487936 113.037173)">GCG</text>
   </g>
   <g id="text_21">
    <text style="font-size: 8px; font-family: 'Arial'; text-anchor: middle" x="122.345075" y="128.150448" transform="rotate(-0 122.345075 128.150448)">TTR</text>
   </g>
   <g id="text_22">
    <text style="font-size: 8px; font-family: 'Arial'; text-anchor: middle" x="95.237426" y="166.365206" transform="rotate(-0 95.237426 166.365206)">SLC2A2</text>
   </g>
   <g id="text_23">
    <text style="font-size: 8px; font-family: 'Arial'; text-anchor: middle" x="181.993448" y="129.826747" transform="rotate(-0 181.993448 129.826747)">INS2</text>
   </g>
   <g id="text_24">
    <text style="font-size: 8px; font-family: 'Arial'; text-anchor: middle" x="74.52463" y="112.530257" transform="rotate(-0 74.52463 112.530257)">GLP1R</text>
   </g>
   <g id="text_25">
    <text style="font-size: 8px; font-family: 'Arial'; text-anchor: middle" x="189.670521" y="96.482996" transform="rotate(-0 189.670521 96.482996)">SCG5</text>
   </g>
   <g id="text_26">
    <text style="font-size: 8px; font-family: 'Arial'; text-anchor: middle" x="223.235699" y="29.868406" transform="rotate(-0 223.235699 29.868406)">SST</text>
   </g>
   <g id="text_27">
    <text style="font-size: 8px; font-family: 'Arial'; text-anchor: middle" x="194.625624" y="77.050615" transform="rotate(-0 194.625624 77.050615)">RBP4</text>
   </g>
   <g id="patch_5">
    <path d="M 189.509234 110.654753 
Q 175.111235 108.36779 160.713235 106.080827 
" style="fill: none; stroke: #000000; stroke-width: 0.2; stroke-linecap: round"/>
   </g>
   <g id="patch_6">
    <path d="M 120.474276 126.798799 
Q 114.933169 128.920925 109.392063 131.043051 
" style="fill: none; stroke: #000000; stroke-width: 0.2; stroke-linecap: round"/>
   </g>
   <g id="patch_7">
    <path d="M 93.293216 164.767109 
Q 80.88826 167.76611 68.483304 170.76511 
" style="fill: none; stroke: #000000; stroke-width: 0.2; stroke-linecap: round"/>
   </g>
   <g id="patch_8">
    <path d="M 72.576811 110.915993 
Q 62.342807 113.300615 52.108804 115.685237 
" style="fill: none; stroke: #000000; stroke-width: 0.2; stroke-linecap: round"/>
   </g>
   <g id="patch_9">
    <path d="M 187.785261 95.07763 
Q 175.955376 99.236403 164.125491 103.395176 
" style="fill: none; stroke: #000000; stroke-width: 0.2; stroke-linecap: round"/>
   </g>
   <g id="patch_10">
    <path d="M 224.22825 29.541813 
Q 225.573367 31.901956 226.918484 34.2621 
" style="fill: none; stroke: #000000; stroke-width: 0.2; stroke-linecap: round"/>
   </g>
   <g id="patch_11">
    <path d="M 193.016266 76.169534 
Q 183.509037 83.181958 174.001808 90.194382 
" style="fill: none; stroke: #000000; stroke-width: 0.2; stroke-linecap: round"/>
   </g>
   <g id="text_28">
    <text style="font-size: 8px; font-family: 'Arial'; text-anchor: middle" x="139.036093" y="12.92625" transform="rotate(-0 139.036093 12.92625)">Delta Control</text>
   </g>
  </g>
 </g>
 <defs>
  <clipPath id="p3e01b0777c">
   <rect x="41.27625" y="18.92625" width="195.519685" height="194.258268"/>
  </clipPath>
 </defs>
</svg>
