<?xml version="1.0" encoding="utf-8" standalone="no"?>
<!DOCTYPE svg PUBLIC "-//W3C//DTD SVG 1.1//EN"
  "http://www.w3.org/Graphics/SVG/1.1/DTD/svg11.dtd">
<svg xmlns:xlink="http://www.w3.org/1999/xlink" width="139.95pt" height="230.4pt" viewBox="0 0 139.95 230.4" xmlns="http://www.w3.org/2000/svg" version="1.1">
 <metadata>
  <rdf:RDF xmlns:dc="http://purl.org/dc/elements/1.1/" xmlns:cc="http://creativecommons.org/ns#" xmlns:rdf="http://www.w3.org/1999/02/22-rdf-syntax-ns#">
   <cc:Work>
    <dc:type rdf:resource="http://purl.org/dc/dcmitype/StillImage"/>
    <dc:date>2025-04-25T14:25:33.723724</dc:date>
    <dc:format>image/svg+xml</dc:format>
    <dc:creator>
     <cc:Agent>
      <dc:title>Matplotlib v3.10.0, https://matplotlib.org/</dc:title>
     </cc:Agent>
    </dc:creator>
   </cc:Work>
  </rdf:RDF>
 </metadata>
 <defs>
  <style type="text/css">*{stroke-linejoin: round; stroke-linecap: butt}</style>
 </defs>
 <g id="figure_1">
  <g id="patch_1">
   <path d="M 0 230.4 
L 139.95 230.4 
L 139.95 0 
L 0 0 
z
" style="fill: #ffffff"/>
  </g>
  <g id="axes_1">
   <g id="table_1">
    <g id="patch_2">
     <path d="M 7.2 19.2 
L 49.05 19.2 
L 49.05 7.2 
L 7.2 7.2 
z
" style="fill: #ffffff; stroke: #000000; stroke-linejoin: miter"/>
    </g>
    <g id="text_1">
     <text style="font-size: 8px; font-family: 'Arial'; text-anchor: middle" x="28.125" y="15.268125" transform="rotate(-0 28.125 15.268125)">marker</text>
    </g>
    <g id="patch_3">
     <path d="M 49.05 19.2 
L 90.9 19.2 
L 90.9 7.2 
L 49.05 7.2 
z
" style="fill: #ffffff; stroke: #000000; stroke-linejoin: miter"/>
    </g>
    <g id="text_2">
     <text style="font-size: 8px; font-family: 'Arial'; text-anchor: middle" x="69.975" y="15.268125" transform="rotate(-0 69.975 15.268125)">UniProt ID</text>
    </g>
    <g id="patch_4">
     <path d="M 90.9 19.2 
L 132.75 19.2 
L 132.75 7.2 
L 90.9 7.2 
z
" style="fill: #ffffff; stroke: #000000; stroke-linejoin: miter"/>
    </g>
    <g id="text_3">
     <text style="font-size: 8px; font-family: 'Arial'; text-anchor: middle" x="111.825" y="15.268125" transform="rotate(-0 111.825 15.268125)">found</text>
    </g>
    <g id="patch_5">
     <path d="M 7.2 31.2 
L 49.05 31.2 
L 49.05 19.2 
L 7.2 19.2 
z
" style="fill: #ffffff; stroke: #000000; stroke-linejoin: miter"/>
    </g>
    <g id="text_4">
     <text style="font-size: 8px; font-family: 'Arial'; text-anchor: middle" x="28.125" y="27.268125" transform="rotate(-0 28.125 27.268125)">MAFA</text>
    </g>
    <g id="patch_6">
     <path d="M 49.05 31.2 
L 90.9 31.2 
L 90.9 19.2 
L 49.05 19.2 
z
" style="fill: #ffffff; stroke: #000000; stroke-linejoin: miter"/>
    </g>
    <g id="text_5">
     <text style="font-size: 8px; font-family: 'Arial'; text-anchor: middle" x="69.975" y="27.268125" transform="rotate(-0 69.975 27.268125)">Q8CF90</text>
    </g>
    <g id="patch_7">
     <path d="M 90.9 31.2 
L 132.75 31.2 
L 132.75 19.2 
L 90.9 19.2 
z
" style="fill: #008000; stroke: #000000; stroke-linejoin: miter"/>
    </g>
    <g id="text_6">
     <text style="font-size: 8px; font-family: 'Arial'; text-anchor: middle" x="111.825" y="27.268125" transform="rotate(-0 111.825 27.268125)">Yes</text>
    </g>
    <g id="patch_8">
     <path d="M 7.2 43.2 
L 49.05 43.2 
L 49.05 31.2 
L 7.2 31.2 
z
" style="fill: #ffffff; stroke: #000000; stroke-linejoin: miter"/>
    </g>
    <g id="text_7">
     <text style="font-size: 8px; font-family: 'Arial'; text-anchor: middle" x="28.125" y="39.268125" transform="rotate(-0 28.125 39.268125)">IRX1</text>
    </g>
    <g id="patch_9">
     <path d="M 49.05 43.2 
L 90.9 43.2 
L 90.9 31.2 
L 49.05 31.2 
z
" style="fill: #ffffff; stroke: #000000; stroke-linejoin: miter"/>
    </g>
    <g id="text_8">
     <text style="font-size: 8px; font-family: 'Arial'; text-anchor: middle" x="69.975" y="39.268125" transform="rotate(-0 69.975 39.268125)">P81068</text>
    </g>
    <g id="patch_10">
     <path d="M 90.9 43.2 
L 132.75 43.2 
L 132.75 31.2 
L 90.9 31.2 
z
" style="fill: #ff0000; stroke: #000000; stroke-linejoin: miter"/>
    </g>
    <g id="text_9">
     <text style="font-size: 8px; font-family: 'Arial'; text-anchor: middle" x="111.825" y="39.268125" transform="rotate(-0 111.825 39.268125)">No</text>
    </g>
    <g id="patch_11">
     <path d="M 7.2 55.2 
L 49.05 55.2 
L 49.05 43.2 
L 7.2 43.2 
z
" style="fill: #ffffff; stroke: #000000; stroke-linejoin: miter"/>
    </g>
    <g id="text_10">
     <text style="font-size: 8px; font-family: 'Arial'; text-anchor: middle" x="28.125" y="51.268125" transform="rotate(-0 28.125 51.268125)">IRX2</text>
    </g>
    <g id="patch_12">
     <path d="M 49.05 55.2 
L 90.9 55.2 
L 90.9 43.2 
L 49.05 43.2 
z
" style="fill: #ffffff; stroke: #000000; stroke-linejoin: miter"/>
    </g>
    <g id="text_11">
     <text style="font-size: 8px; font-family: 'Arial'; text-anchor: middle" x="69.975" y="51.268125" transform="rotate(-0 69.975 51.268125)">P81066</text>
    </g>
    <g id="patch_13">
     <path d="M 90.9 55.2 
L 132.75 55.2 
L 132.75 43.2 
L 90.9 43.2 
z
" style="fill: #ff0000; stroke: #000000; stroke-linejoin: miter"/>
    </g>
    <g id="text_12">
     <text style="font-size: 8px; font-family: 'Arial'; text-anchor: middle" x="111.825" y="51.268125" transform="rotate(-0 111.825 51.268125)">No</text>
    </g>
    <g id="patch_14">
     <path d="M 7.2 67.2 
L 49.05 67.2 
L 49.05 55.2 
L 7.2 55.2 
z
" style="fill: #ffffff; stroke: #000000; stroke-linejoin: miter"/>
    </g>
    <g id="text_13">
     <text style="font-size: 8px; font-family: 'Arial'; text-anchor: middle" x="28.125" y="63.268125" transform="rotate(-0 28.125 63.268125)">MAFB</text>
    </g>
    <g id="patch_15">
     <path d="M 49.05 67.2 
L 90.9 67.2 
L 90.9 55.2 
L 49.05 55.2 
z
" style="fill: #ffffff; stroke: #000000; stroke-linejoin: miter"/>
    </g>
    <g id="text_14">
     <text style="font-size: 8px; font-family: 'Arial'; text-anchor: middle" x="69.975" y="63.268125" transform="rotate(-0 69.975 63.268125)">P54841</text>
    </g>
    <g id="patch_16">
     <path d="M 90.9 67.2 
L 132.75 67.2 
L 132.75 55.2 
L 90.9 55.2 
z
" style="fill: #ff0000; stroke: #000000; stroke-linejoin: miter"/>
    </g>
    <g id="text_15">
     <text style="font-size: 8px; font-family: 'Arial'; text-anchor: middle" x="111.825" y="63.268125" transform="rotate(-0 111.825 63.268125)">No</text>
    </g>
    <g id="patch_17">
     <path d="M 7.2 79.2 
L 49.05 79.2 
L 49.05 67.2 
L 7.2 67.2 
z
" style="fill: #ffffff; stroke: #000000; stroke-linejoin: miter"/>
    </g>
    <g id="text_16">
     <text style="font-size: 8px; font-family: 'Arial'; text-anchor: middle" x="28.125" y="75.268125" transform="rotate(-0 28.125 75.268125)">GCG</text>
    </g>
    <g id="patch_18">
     <path d="M 49.05 79.2 
L 90.9 79.2 
L 90.9 67.2 
L 49.05 67.2 
z
" style="fill: #ffffff; stroke: #000000; stroke-linejoin: miter"/>
    </g>
    <g id="text_17">
     <text style="font-size: 8px; font-family: 'Arial'; text-anchor: middle" x="69.975" y="75.268125" transform="rotate(-0 69.975 75.268125)">P55095</text>
    </g>
    <g id="patch_19">
     <path d="M 90.9 79.2 
L 132.75 79.2 
L 132.75 67.2 
L 90.9 67.2 
z
" style="fill: #008000; stroke: #000000; stroke-linejoin: miter"/>
    </g>
    <g id="text_18">
     <text style="font-size: 8px; font-family: 'Arial'; text-anchor: middle" x="111.825" y="75.268125" transform="rotate(-0 111.825 75.268125)">Yes</text>
    </g>
    <g id="patch_20">
     <path d="M 7.2 91.2 
L 49.05 91.2 
L 49.05 79.2 
L 7.2 79.2 
z
" style="fill: #ffffff; stroke: #000000; stroke-linejoin: miter"/>
    </g>
    <g id="text_19">
     <text style="font-size: 8px; font-family: 'Arial'; text-anchor: middle" x="28.125" y="87.268125" transform="rotate(-0 28.125 87.268125)">TTR</text>
    </g>
    <g id="patch_21">
     <path d="M 49.05 91.2 
L 90.9 91.2 
L 90.9 79.2 
L 49.05 79.2 
z
" style="fill: #ffffff; stroke: #000000; stroke-linejoin: miter"/>
    </g>
    <g id="text_20">
     <text style="font-size: 8px; font-family: 'Arial'; text-anchor: middle" x="69.975" y="87.268125" transform="rotate(-0 69.975 87.268125)">P07309</text>
    </g>
    <g id="patch_22">
     <path d="M 90.9 91.2 
L 132.75 91.2 
L 132.75 79.2 
L 90.9 79.2 
z
" style="fill: #008000; stroke: #000000; stroke-linejoin: miter"/>
    </g>
    <g id="text_21">
     <text style="font-size: 8px; font-family: 'Arial'; text-anchor: middle" x="111.825" y="87.268125" transform="rotate(-0 111.825 87.268125)">Yes</text>
    </g>
    <g id="patch_23">
     <path d="M 7.2 103.2 
L 49.05 103.2 
L 49.05 91.2 
L 7.2 91.2 
z
" style="fill: #ffffff; stroke: #000000; stroke-linejoin: miter"/>
    </g>
    <g id="text_22">
     <text style="font-size: 8px; font-family: 'Arial'; text-anchor: middle" x="28.125" y="99.268125" transform="rotate(-0 28.125 99.268125)">POU3F4</text>
    </g>
    <g id="patch_24">
     <path d="M 49.05 103.2 
L 90.9 103.2 
L 90.9 91.2 
L 49.05 91.2 
z
" style="fill: #ffffff; stroke: #000000; stroke-linejoin: miter"/>
    </g>
    <g id="text_23">
     <text style="font-size: 8px; font-family: 'Arial'; text-anchor: middle" x="69.975" y="99.268125" transform="rotate(-0 69.975 99.268125)">P62515</text>
    </g>
    <g id="patch_25">
     <path d="M 90.9 103.2 
L 132.75 103.2 
L 132.75 91.2 
L 90.9 91.2 
z
" style="fill: #008000; stroke: #000000; stroke-linejoin: miter"/>
    </g>
    <g id="text_24">
     <text style="font-size: 8px; font-family: 'Arial'; text-anchor: middle" x="111.825" y="99.268125" transform="rotate(-0 111.825 99.268125)">Yes</text>
    </g>
    <g id="patch_26">
     <path d="M 7.2 115.2 
L 49.05 115.2 
L 49.05 103.2 
L 7.2 103.2 
z
" style="fill: #ffffff; stroke: #000000; stroke-linejoin: miter"/>
    </g>
    <g id="text_25">
     <text style="font-size: 8px; font-family: 'Arial'; text-anchor: middle" x="28.125" y="111.268125" transform="rotate(-0 28.125 111.268125)">SLC2A2</text>
    </g>
    <g id="patch_27">
     <path d="M 49.05 115.2 
L 90.9 115.2 
L 90.9 103.2 
L 49.05 103.2 
z
" style="fill: #ffffff; stroke: #000000; stroke-linejoin: miter"/>
    </g>
    <g id="text_26">
     <text style="font-size: 8px; font-family: 'Arial'; text-anchor: middle" x="69.975" y="111.268125" transform="rotate(-0 69.975 111.268125)">P14246</text>
    </g>
    <g id="patch_28">
     <path d="M 90.9 115.2 
L 132.75 115.2 
L 132.75 103.2 
L 90.9 103.2 
z
" style="fill: #008000; stroke: #000000; stroke-linejoin: miter"/>
    </g>
    <g id="text_27">
     <text style="font-size: 8px; font-family: 'Arial'; text-anchor: middle" x="111.825" y="111.268125" transform="rotate(-0 111.825 111.268125)">Yes</text>
    </g>
    <g id="patch_29">
     <path d="M 7.2 127.2 
L 49.05 127.2 
L 49.05 115.2 
L 7.2 115.2 
z
" style="fill: #ffffff; stroke: #000000; stroke-linejoin: miter"/>
    </g>
    <g id="text_28">
     <text style="font-size: 8px; font-family: 'Arial'; text-anchor: middle" x="28.125" y="123.268125" transform="rotate(-0 28.125 123.268125)">INS2</text>
    </g>
    <g id="patch_30">
     <path d="M 49.05 127.2 
L 90.9 127.2 
L 90.9 115.2 
L 49.05 115.2 
z
" style="fill: #ffffff; stroke: #000000; stroke-linejoin: miter"/>
    </g>
    <g id="text_29">
     <text style="font-size: 8px; font-family: 'Arial'; text-anchor: middle" x="69.975" y="123.268125" transform="rotate(-0 69.975 123.268125)">P01326</text>
    </g>
    <g id="patch_31">
     <path d="M 90.9 127.2 
L 132.75 127.2 
L 132.75 115.2 
L 90.9 115.2 
z
" style="fill: #008000; stroke: #000000; stroke-linejoin: miter"/>
    </g>
    <g id="text_30">
     <text style="font-size: 8px; font-family: 'Arial'; text-anchor: middle" x="111.825" y="123.268125" transform="rotate(-0 111.825 123.268125)">Yes</text>
    </g>
    <g id="patch_32">
     <path d="M 7.2 139.2 
L 49.05 139.2 
L 49.05 127.2 
L 7.2 127.2 
z
" style="fill: #ffffff; stroke: #000000; stroke-linejoin: miter"/>
    </g>
    <g id="text_31">
     <text style="font-size: 8px; font-family: 'Arial'; text-anchor: middle" x="28.125" y="135.268125" transform="rotate(-0 28.125 135.268125)">NKX6-1</text>
    </g>
    <g id="patch_33">
     <path d="M 49.05 139.2 
L 90.9 139.2 
L 90.9 127.2 
L 49.05 127.2 
z
" style="fill: #ffffff; stroke: #000000; stroke-linejoin: miter"/>
    </g>
    <g id="text_32">
     <text style="font-size: 8px; font-family: 'Arial'; text-anchor: middle" x="69.975" y="135.268125" transform="rotate(-0 69.975 135.268125)">Q99MA9</text>
    </g>
    <g id="patch_34">
     <path d="M 90.9 139.2 
L 132.75 139.2 
L 132.75 127.2 
L 90.9 127.2 
z
" style="fill: #008000; stroke: #000000; stroke-linejoin: miter"/>
    </g>
    <g id="text_33">
     <text style="font-size: 8px; font-family: 'Arial'; text-anchor: middle" x="111.825" y="135.268125" transform="rotate(-0 111.825 135.268125)">Yes</text>
    </g>
    <g id="patch_35">
     <path d="M 7.2 151.2 
L 49.05 151.2 
L 49.05 139.2 
L 7.2 139.2 
z
" style="fill: #ffffff; stroke: #000000; stroke-linejoin: miter"/>
    </g>
    <g id="text_34">
     <text style="font-size: 8px; font-family: 'Arial'; text-anchor: middle" x="28.125" y="147.268125" transform="rotate(-0 28.125 147.268125)">UCN3</text>
    </g>
    <g id="patch_36">
     <path d="M 49.05 151.2 
L 90.9 151.2 
L 90.9 139.2 
L 49.05 139.2 
z
" style="fill: #ffffff; stroke: #000000; stroke-linejoin: miter"/>
    </g>
    <g id="text_35">
     <text style="font-size: 8px; font-family: 'Arial'; text-anchor: middle" x="69.975" y="147.268125" transform="rotate(-0 69.975 147.268125)">Q924A4</text>
    </g>
    <g id="patch_37">
     <path d="M 90.9 151.2 
L 132.75 151.2 
L 132.75 139.2 
L 90.9 139.2 
z
" style="fill: #008000; stroke: #000000; stroke-linejoin: miter"/>
    </g>
    <g id="text_36">
     <text style="font-size: 8px; font-family: 'Arial'; text-anchor: middle" x="111.825" y="147.268125" transform="rotate(-0 111.825 147.268125)">Yes</text>
    </g>
    <g id="patch_38">
     <path d="M 7.2 163.2 
L 49.05 163.2 
L 49.05 151.2 
L 7.2 151.2 
z
" style="fill: #ffffff; stroke: #000000; stroke-linejoin: miter"/>
    </g>
    <g id="text_37">
     <text style="font-size: 8px; font-family: 'Arial'; text-anchor: middle" x="28.125" y="159.268125" transform="rotate(-0 28.125 159.268125)">GLP1R</text>
    </g>
    <g id="patch_39">
     <path d="M 49.05 163.2 
L 90.9 163.2 
L 90.9 151.2 
L 49.05 151.2 
z
" style="fill: #ffffff; stroke: #000000; stroke-linejoin: miter"/>
    </g>
    <g id="text_38">
     <text style="font-size: 8px; font-family: 'Arial'; text-anchor: middle" x="69.975" y="159.268125" transform="rotate(-0 69.975 159.268125)">O35659</text>
    </g>
    <g id="patch_40">
     <path d="M 90.9 163.2 
L 132.75 163.2 
L 132.75 151.2 
L 90.9 151.2 
z
" style="fill: #008000; stroke: #000000; stroke-linejoin: miter"/>
    </g>
    <g id="text_39">
     <text style="font-size: 8px; font-family: 'Arial'; text-anchor: middle" x="111.825" y="159.268125" transform="rotate(-0 111.825 159.268125)">Yes</text>
    </g>
    <g id="patch_41">
     <path d="M 7.2 175.2 
L 49.05 175.2 
L 49.05 163.2 
L 7.2 163.2 
z
" style="fill: #ffffff; stroke: #000000; stroke-linejoin: miter"/>
    </g>
    <g id="text_40">
     <text style="font-size: 8px; font-family: 'Arial'; text-anchor: middle" x="28.125" y="171.268125" transform="rotate(-0 28.125 171.268125)">RESP18</text>
    </g>
    <g id="patch_42">
     <path d="M 49.05 175.2 
L 90.9 175.2 
L 90.9 163.2 
L 49.05 163.2 
z
" style="fill: #ffffff; stroke: #000000; stroke-linejoin: miter"/>
    </g>
    <g id="text_41">
     <text style="font-size: 8px; font-family: 'Arial'; text-anchor: middle" x="69.975" y="171.268125" transform="rotate(-0 69.975 171.268125)">P47939</text>
    </g>
    <g id="patch_43">
     <path d="M 90.9 175.2 
L 132.75 175.2 
L 132.75 163.2 
L 90.9 163.2 
z
" style="fill: #008000; stroke: #000000; stroke-linejoin: miter"/>
    </g>
    <g id="text_42">
     <text style="font-size: 8px; font-family: 'Arial'; text-anchor: middle" x="111.825" y="171.268125" transform="rotate(-0 111.825 171.268125)">Yes</text>
    </g>
    <g id="patch_44">
     <path d="M 7.2 187.2 
L 49.05 187.2 
L 49.05 175.2 
L 7.2 175.2 
z
" style="fill: #ffffff; stroke: #000000; stroke-linejoin: miter"/>
    </g>
    <g id="text_43">
     <text style="font-size: 8px; font-family: 'Arial'; text-anchor: middle" x="28.125" y="183.268125" transform="rotate(-0 28.125 183.268125)">SCG5</text>
    </g>
    <g id="patch_45">
     <path d="M 49.05 187.2 
L 90.9 187.2 
L 90.9 175.2 
L 49.05 175.2 
z
" style="fill: #ffffff; stroke: #000000; stroke-linejoin: miter"/>
    </g>
    <g id="text_44">
     <text style="font-size: 8px; font-family: 'Arial'; text-anchor: middle" x="69.975" y="183.268125" transform="rotate(-0 69.975 183.268125)">P12961</text>
    </g>
    <g id="patch_46">
     <path d="M 90.9 187.2 
L 132.75 187.2 
L 132.75 175.2 
L 90.9 175.2 
z
" style="fill: #008000; stroke: #000000; stroke-linejoin: miter"/>
    </g>
    <g id="text_45">
     <text style="font-size: 8px; font-family: 'Arial'; text-anchor: middle" x="111.825" y="183.268125" transform="rotate(-0 111.825 183.268125)">Yes</text>
    </g>
    <g id="patch_47">
     <path d="M 7.2 199.2 
L 49.05 199.2 
L 49.05 187.2 
L 7.2 187.2 
z
" style="fill: #ffffff; stroke: #000000; stroke-linejoin: miter"/>
    </g>
    <g id="text_46">
     <text style="font-size: 8px; font-family: 'Arial'; text-anchor: middle" x="28.125" y="195.268125" transform="rotate(-0 28.125 195.268125)">HHEX</text>
    </g>
    <g id="patch_48">
     <path d="M 49.05 199.2 
L 90.9 199.2 
L 90.9 187.2 
L 49.05 187.2 
z
" style="fill: #ffffff; stroke: #000000; stroke-linejoin: miter"/>
    </g>
    <g id="text_47">
     <text style="font-size: 8px; font-family: 'Arial'; text-anchor: middle" x="69.975" y="195.268125" transform="rotate(-0 69.975 195.268125)">P43120</text>
    </g>
    <g id="patch_49">
     <path d="M 90.9 199.2 
L 132.75 199.2 
L 132.75 187.2 
L 90.9 187.2 
z
" style="fill: #ff0000; stroke: #000000; stroke-linejoin: miter"/>
    </g>
    <g id="text_48">
     <text style="font-size: 8px; font-family: 'Arial'; text-anchor: middle" x="111.825" y="195.268125" transform="rotate(-0 111.825 195.268125)">No</text>
    </g>
    <g id="patch_50">
     <path d="M 7.2 211.2 
L 49.05 211.2 
L 49.05 199.2 
L 7.2 199.2 
z
" style="fill: #ffffff; stroke: #000000; stroke-linejoin: miter"/>
    </g>
    <g id="text_49">
     <text style="font-size: 8px; font-family: 'Arial'; text-anchor: middle" x="28.125" y="207.268125" transform="rotate(-0 28.125 207.268125)">SST</text>
    </g>
    <g id="patch_51">
     <path d="M 49.05 211.2 
L 90.9 211.2 
L 90.9 199.2 
L 49.05 199.2 
z
" style="fill: #ffffff; stroke: #000000; stroke-linejoin: miter"/>
    </g>
    <g id="text_50">
     <text style="font-size: 8px; font-family: 'Arial'; text-anchor: middle" x="69.975" y="207.268125" transform="rotate(-0 69.975 207.268125)">P60041</text>
    </g>
    <g id="patch_52">
     <path d="M 90.9 211.2 
L 132.75 211.2 
L 132.75 199.2 
L 90.9 199.2 
z
" style="fill: #008000; stroke: #000000; stroke-linejoin: miter"/>
    </g>
    <g id="text_51">
     <text style="font-size: 8px; font-family: 'Arial'; text-anchor: middle" x="111.825" y="207.268125" transform="rotate(-0 111.825 207.268125)">Yes</text>
    </g>
    <g id="patch_53">
     <path d="M 7.2 223.2 
L 49.05 223.2 
L 49.05 211.2 
L 7.2 211.2 
z
" style="fill: #ffffff; stroke: #000000; stroke-linejoin: miter"/>
    </g>
    <g id="text_52">
     <text style="font-size: 8px; font-family: 'Arial'; text-anchor: middle" x="28.125" y="219.268125" transform="rotate(-0 28.125 219.268125)">RBP4</text>
    </g>
    <g id="patch_54">
     <path d="M 49.05 223.2 
L 90.9 223.2 
L 90.9 211.2 
L 49.05 211.2 
z
" style="fill: #ffffff; stroke: #000000; stroke-linejoin: miter"/>
    </g>
    <g id="text_53">
     <text style="font-size: 8px; font-family: 'Arial'; text-anchor: middle" x="69.975" y="219.268125" transform="rotate(-0 69.975 219.268125)">Q00724</text>
    </g>
    <g id="patch_55">
     <path d="M 90.9 223.2 
L 132.75 223.2 
L 132.75 211.2 
L 90.9 211.2 
z
" style="fill: #008000; stroke: #000000; stroke-linejoin: miter"/>
    </g>
    <g id="text_54">
     <text style="font-size: 8px; font-family: 'Arial'; text-anchor: middle" x="111.825" y="219.268125" transform="rotate(-0 111.825 219.268125)">Yes</text>
    </g>
   </g>
  </g>
 </g>
</svg>
