<?xml version="1.0" encoding="utf-8" standalone="no"?>
<!DOCTYPE svg PUBLIC "-//W3C//DTD SVG 1.1//EN"
  "http://www.w3.org/Graphics/SVG/1.1/DTD/svg11.dtd">
<svg xmlns:xlink="http://www.w3.org/1999/xlink" width="243.868799pt" height="245.820807pt" viewBox="0 0 243.868799 245.820807" xmlns="http://www.w3.org/2000/svg" version="1.1">
 <metadata>
  <rdf:RDF xmlns:dc="http://purl.org/dc/elements/1.1/" xmlns:cc="http://creativecommons.org/ns#" xmlns:rdf="http://www.w3.org/1999/02/22-rdf-syntax-ns#">
   <cc:Work>
    <dc:type rdf:resource="http://purl.org/dc/dcmitype/StillImage"/>
    <dc:date>2025-04-24T00:18:50.218764</dc:date>
    <dc:format>image/svg+xml</dc:format>
    <dc:creator>
     <cc:Agent>
      <dc:title>Matplotlib v3.10.0, https://matplotlib.org/</dc:title>
     </cc:Agent>
    </dc:creator>
   </cc:Work>
  </rdf:RDF>
 </metadata>
 <defs>
  <style type="text/css">*{stroke-linejoin: round; stroke-linecap: butt}</style>
 </defs>
 <g id="figure_1">
  <g id="patch_1">
   <path d="M 0 245.820807 
L 243.868799 245.820807 
L 243.868799 0 
L 0 0 
L 0 245.820807 
z
" style="fill: none"/>
  </g>
  <g id="axes_1">
   <g id="patch_2">
    <path d="M 41.149114 213.029413 
L 236.668799 213.029413 
L 236.668799 18.771145 
L 41.149114 18.771145 
L 41.149114 213.029413 
z
" style="fill: none"/>
   </g>
   <g id="PathCollection_1">
    <defs>
     <path id="C0_0_89ea45fee8" d="M 0 1.936492 
C 0.513564 1.936492 1.006162 1.732451 1.369306 1.369306 
C 1.732451 1.006162 1.936492 0.513564 1.936492 -0 
C 1.936492 -0.513564 1.732451 -1.006162 1.369306 -1.369306 
C 1.006162 -1.732451 0.513564 -1.936492 0 -1.936492 
C -0.513564 -1.936492 -1.006162 -1.732451 -1.369306 -1.369306 
C -1.732451 -1.006162 -1.936492 -0.513564 -1.936492 0 
C -1.936492 0.513564 -1.732451 1.006162 -1.369306 1.369306 
C -1.006162 1.732451 -0.513564 1.936492 0 1.936492 
z
"/>
    </defs>
    <g clip-path="url(#pdadf65ffdf)">
     <use xlink:href="#C0_0_89ea45fee8" x="227.78154" y="23.124753" style="fill: #cb334d"/>
    </g>
    <g clip-path="url(#pdadf65ffdf)">
     <use xlink:href="#C0_0_89ea45fee8" x="205.195775" y="74.125904" style="fill: #cb334d"/>
    </g>
    <g clip-path="url(#pdadf65ffdf)">
     <use xlink:href="#C0_0_89ea45fee8" x="50.036372" y="142.596999" style="fill: #cb334d"/>
    </g>
    <g clip-path="url(#pdadf65ffdf)">
     <use xlink:href="#C0_0_89ea45fee8" x="60.902307" y="163.086563" style="fill: #cb334d"/>
    </g>
    <g clip-path="url(#pdadf65ffdf)">
     <use xlink:href="#C0_0_89ea45fee8" x="184.510781" y="80.89619" style="fill: #cb334d"/>
    </g>
    <g clip-path="url(#pdadf65ffdf)">
     <use xlink:href="#C0_0_89ea45fee8" x="53.154931" y="127.789601" style="fill: #cb334d"/>
    </g>
    <g clip-path="url(#pdadf65ffdf)">
     <use xlink:href="#C0_0_89ea45fee8" x="63.580255" y="136.340119" style="fill: #cb334d"/>
    </g>
    <g clip-path="url(#pdadf65ffdf)">
     <use xlink:href="#C0_0_89ea45fee8" x="78.146313" y="89.708313" style="fill: #cb334d"/>
    </g>
    <g clip-path="url(#pdadf65ffdf)">
     <use xlink:href="#C0_0_89ea45fee8" x="155.296615" y="94.811859" style="fill: #cb334d"/>
    </g>
    <g clip-path="url(#pdadf65ffdf)">
     <use xlink:href="#C0_0_89ea45fee8" x="84.851991" y="148.081075" style="fill: #cb334d"/>
    </g>
    <g clip-path="url(#pdadf65ffdf)">
     <use xlink:href="#C0_0_89ea45fee8" x="112.942717" y="123.543281" style="fill: #cb334d"/>
    </g>
   </g>
   <g id="matplotlib.axis_1">
    <g id="xtick_1">
     <g id="line2d_1">
      <defs>
       <path id="mba725e282b" d="M 0 0 
L 0 3.5 
" style="stroke: #000000; stroke-width: 0.5"/>
      </defs>
      <g>
       <use xlink:href="#mba725e282b" x="68.201862" y="213.029413" style="stroke: #000000; stroke-width: 0.5"/>
      </g>
     </g>
     <g id="text_1">
      <text style="font-size: 8.102px; font-family: 'Arial', sans-serif; text-anchor: middle" x="68.201862" y="225.828672" transform="rotate(-0 68.201862 225.828672)">12</text>
     </g>
    </g>
    <g id="xtick_2">
     <g id="line2d_2">
      <g>
       <use xlink:href="#mba725e282b" x="99.767172" y="213.029413" style="stroke: #000000; stroke-width: 0.5"/>
      </g>
     </g>
     <g id="text_2">
      <text style="font-size: 8.102px; font-family: 'Arial', sans-serif; text-anchor: middle" x="99.767172" y="225.828672" transform="rotate(-0 99.767172 225.828672)">14</text>
     </g>
    </g>
    <g id="xtick_3">
     <g id="line2d_3">
      <g>
       <use xlink:href="#mba725e282b" x="131.332481" y="213.029413" style="stroke: #000000; stroke-width: 0.5"/>
      </g>
     </g>
     <g id="text_3">
      <text style="font-size: 8.102px; font-family: 'Arial', sans-serif; text-anchor: middle" x="131.332481" y="225.828672" transform="rotate(-0 131.332481 225.828672)">16</text>
     </g>
    </g>
    <g id="xtick_4">
     <g id="line2d_4">
      <g>
       <use xlink:href="#mba725e282b" x="162.89779" y="213.029413" style="stroke: #000000; stroke-width: 0.5"/>
      </g>
     </g>
     <g id="text_4">
      <text style="font-size: 8.102px; font-family: 'Arial', sans-serif; text-anchor: middle" x="162.89779" y="225.828672" transform="rotate(-0 162.89779 225.828672)">18</text>
     </g>
    </g>
    <g id="xtick_5">
     <g id="line2d_5">
      <g>
       <use xlink:href="#mba725e282b" x="194.4631" y="213.029413" style="stroke: #000000; stroke-width: 0.5"/>
      </g>
     </g>
     <g id="text_5">
      <text style="font-size: 8.102px; font-family: 'Arial', sans-serif; text-anchor: middle" x="194.4631" y="225.828672" transform="rotate(-0 194.4631 225.828672)">20</text>
     </g>
    </g>
    <g id="xtick_6">
     <g id="line2d_6">
      <g>
       <use xlink:href="#mba725e282b" x="226.028409" y="213.029413" style="stroke: #000000; stroke-width: 0.5"/>
      </g>
     </g>
     <g id="text_6">
      <text style="font-size: 8.102px; font-family: 'Arial', sans-serif; text-anchor: middle" x="226.028409" y="225.828672" transform="rotate(-0 226.028409 225.828672)">22</text>
     </g>
    </g>
    <g id="text_7">
     <text style="font-size: 7.653px; font-family: 'Arial', sans-serif; text-anchor: middle" x="138.908956" y="237.01009" transform="rotate(-0 138.908956 237.01009)">log2(Proteomics)</text>
    </g>
   </g>
   <g id="matplotlib.axis_2">
    <g id="ytick_1">
     <g id="line2d_7">
      <defs>
       <path id="mf532320d7f" d="M 0 0 
L -3.5 0 
" style="stroke: #000000; stroke-width: 0.5"/>
      </defs>
      <g>
       <use xlink:href="#mf532320d7f" x="41.149114" y="213.029413" style="stroke: #000000; stroke-width: 0.5"/>
      </g>
     </g>
     <g id="text_8">
      <text style="font-size: 8.102px; font-family: 'Arial', sans-serif; text-anchor: end" x="34.149114" y="215.929042" transform="rotate(-0 34.149114 215.929042)">0.0</text>
     </g>
    </g>
    <g id="ytick_2">
     <g id="line2d_8">
      <g>
       <use xlink:href="#mf532320d7f" x="41.149114" y="188.747129" style="stroke: #000000; stroke-width: 0.5"/>
      </g>
     </g>
     <g id="text_9">
      <text style="font-size: 8.102px; font-family: 'Arial', sans-serif; text-anchor: end" x="34.149114" y="191.646759" transform="rotate(-0 34.149114 191.646759)">2.5</text>
     </g>
    </g>
    <g id="ytick_3">
     <g id="line2d_9">
      <g>
       <use xlink:href="#mf532320d7f" x="41.149114" y="164.464846" style="stroke: #000000; stroke-width: 0.5"/>
      </g>
     </g>
     <g id="text_10">
      <text style="font-size: 8.102px; font-family: 'Arial', sans-serif; text-anchor: end" x="34.149114" y="167.364475" transform="rotate(-0 34.149114 167.364475)">5.0</text>
     </g>
    </g>
    <g id="ytick_4">
     <g id="line2d_10">
      <g>
       <use xlink:href="#mf532320d7f" x="41.149114" y="140.182562" style="stroke: #000000; stroke-width: 0.5"/>
      </g>
     </g>
     <g id="text_11">
      <text style="font-size: 8.102px; font-family: 'Arial', sans-serif; text-anchor: end" x="34.149114" y="143.082192" transform="rotate(-0 34.149114 143.082192)">7.5</text>
     </g>
    </g>
    <g id="ytick_5">
     <g id="line2d_11">
      <g>
       <use xlink:href="#mf532320d7f" x="41.149114" y="115.900279" style="stroke: #000000; stroke-width: 0.5"/>
      </g>
     </g>
     <g id="text_12">
      <text style="font-size: 8.102px; font-family: 'Arial', sans-serif; text-anchor: end" x="34.149114" y="118.799909" transform="rotate(-0 34.149114 118.799909)">10.0</text>
     </g>
    </g>
    <g id="ytick_6">
     <g id="line2d_12">
      <g>
       <use xlink:href="#mf532320d7f" x="41.149114" y="91.617995" style="stroke: #000000; stroke-width: 0.5"/>
      </g>
     </g>
     <g id="text_13">
      <text style="font-size: 8.102px; font-family: 'Arial', sans-serif; text-anchor: end" x="34.149114" y="94.517625" transform="rotate(-0 34.149114 94.517625)">12.5</text>
     </g>
    </g>
    <g id="ytick_7">
     <g id="line2d_13">
      <g>
       <use xlink:href="#mf532320d7f" x="41.149114" y="67.335712" style="stroke: #000000; stroke-width: 0.5"/>
      </g>
     </g>
     <g id="text_14">
      <text style="font-size: 8.102px; font-family: 'Arial', sans-serif; text-anchor: end" x="34.149114" y="70.235342" transform="rotate(-0 34.149114 70.235342)">15.0</text>
     </g>
    </g>
    <g id="ytick_8">
     <g id="line2d_14">
      <g>
       <use xlink:href="#mf532320d7f" x="41.149114" y="43.053428" style="stroke: #000000; stroke-width: 0.5"/>
      </g>
     </g>
     <g id="text_15">
      <text style="font-size: 8.102px; font-family: 'Arial', sans-serif; text-anchor: end" x="34.149114" y="45.953058" transform="rotate(-0 34.149114 45.953058)">17.5</text>
     </g>
    </g>
    <g id="ytick_9">
     <g id="line2d_15">
      <g>
       <use xlink:href="#mf532320d7f" x="41.149114" y="18.771145" style="stroke: #000000; stroke-width: 0.5"/>
      </g>
     </g>
     <g id="text_16">
      <text style="font-size: 8.102px; font-family: 'Arial', sans-serif; text-anchor: end" x="34.149114" y="21.670775" transform="rotate(-0 34.149114 21.670775)">20.0</text>
     </g>
    </g>
    <g id="text_17">
     <text style="font-size: 7.653px; font-family: 'Arial', sans-serif; text-anchor: middle" x="12.771145" y="115.900279" transform="rotate(-90 12.771145 115.900279)">log2(Transcriptomics)</text>
    </g>
   </g>
   <g id="line2d_16">
    <path d="M 50.036372 145.43184 
L 51.831778 144.453404 
L 53.627184 143.474967 
L 55.422589 142.496531 
L 57.217995 141.518094 
L 59.013401 140.539658 
L 60.808807 139.561222 
L 62.604212 138.582785 
L 64.399618 137.604349 
L 66.195024 136.625912 
L 67.99043 135.647476 
L 69.785835 134.66904 
L 71.581241 133.690603 
L 73.376647 132.712167 
L 75.172053 131.73373 
L 76.967458 130.755294 
L 78.762864 129.776857 
L 80.55827 128.798421 
L 82.353675 127.819985 
L 84.149081 126.841548 
L 85.944487 125.863112 
L 87.739893 124.884675 
L 89.535298 123.906239 
L 91.330704 122.927803 
L 93.12611 121.949366 
L 94.921516 120.97093 
L 96.716921 119.992493 
L 98.512327 119.014057 
L 100.307733 118.03562 
L 102.103139 117.057184 
L 103.898544 116.078748 
L 105.69395 115.100311 
L 107.489356 114.121875 
L 109.284762 113.143438 
L 111.080167 112.165002 
L 112.875573 111.186565 
L 114.670979 110.208129 
L 116.466385 109.229693 
L 118.26179 108.251256 
L 120.057196 107.27282 
L 121.852602 106.294383 
L 123.648007 105.315947 
L 125.443413 104.337511 
L 127.238819 103.359074 
L 129.034225 102.380638 
L 130.82963 101.402201 
L 132.625036 100.423765 
L 134.420442 99.445328 
L 136.215848 98.466892 
L 138.011253 97.488456 
L 139.806659 96.510019 
L 141.602065 95.531583 
L 143.397471 94.553146 
L 145.192876 93.57471 
L 146.988282 92.596274 
L 148.783688 91.617837 
L 150.579094 90.639401 
L 152.374499 89.660964 
L 154.169905 88.682528 
L 155.965311 87.704091 
L 157.760717 86.725655 
L 159.556122 85.747219 
L 161.351528 84.768782 
L 163.146934 83.790346 
L 164.942339 82.811909 
L 166.737745 81.833473 
L 168.533151 80.855037 
L 170.328557 79.8766 
L 172.123962 78.898164 
L 173.919368 77.919727 
L 175.714774 76.941291 
L 177.51018 75.962854 
L 179.305585 74.984418 
L 181.100991 74.005982 
L 182.896397 73.027545 
L 184.691803 72.049109 
L 186.487208 71.070672 
L 188.282614 70.092236 
L 190.07802 69.113799 
L 191.873426 68.135363 
L 193.668831 67.156927 
L 195.464237 66.17849 
L 197.259643 65.200054 
L 199.055049 64.221617 
L 200.850454 63.243181 
L 202.64586 62.264745 
L 204.441266 61.286308 
L 206.236672 60.307872 
L 208.032077 59.329435 
L 209.827483 58.350999 
L 211.622889 57.372562 
L 213.418294 56.394126 
L 215.2137 55.41569 
L 217.009106 54.437253 
L 218.804512 53.458817 
L 220.599917 52.48038 
L 222.395323 51.501944 
L 224.190729 50.523508 
L 225.986135 49.545071 
L 227.78154 48.566635 
" clip-path="url(#pdadf65ffdf)" style="fill: none; stroke-dasharray: 4.625,2; stroke-dashoffset: 0; stroke: #ff0000; stroke-width: 1.25"/>
   </g>
   <g id="patch_3">
    <path d="M 41.149114 213.029413 
L 41.149114 18.771145 
" style="fill: none; stroke: #000000; stroke-width: 0.5; stroke-linejoin: miter; stroke-linecap: square"/>
   </g>
   <g id="patch_4">
    <path d="M 41.149114 213.029413 
L 236.668799 213.029413 
" style="fill: none; stroke: #000000; stroke-width: 0.5; stroke-linejoin: miter; stroke-linecap: square"/>
   </g>
   <g id="text_18">
    <text style="font-size: 8.102px; font-family: 'Arial', sans-serif" transform="translate(50.925098 39.245556)">y = 0.89x + -2.65</text>
    <text style="font-size: 8.102px; font-family: 'Arial', sans-serif" transform="translate(50.925098 47.909885)">R2 = 0.76</text>
   </g>
   <g id="text_19">
    <text style="font-size: 8px; font-family: 'Arial', sans-serif; text-anchor: middle" x="214.278641" y="33.453443" transform="rotate(-0 214.278641 33.453443)">GCG</text>
   </g>
   <g id="text_20">
    <text style="font-size: 8px; font-family: 'Arial', sans-serif; text-anchor: middle" x="223.108563" y="58.534186" transform="rotate(-0 223.108563 58.534186)">TTR</text>
   </g>
   <g id="text_21">
    <text style="font-size: 8px; font-family: 'Arial', sans-serif; text-anchor: middle" x="68.427263" y="161.063549" transform="rotate(-0 68.427263 161.063549)">POU3F4</text>
   </g>
   <g id="text_22">
    <text style="font-size: 8px; font-family: 'Arial', sans-serif; text-anchor: middle" x="127.44207" y="170.200357" transform="rotate(-0 127.44207 170.200357)">SLC2A2</text>
   </g>
   <g id="text_23">
    <text style="font-size: 8px; font-family: 'Arial', sans-serif; text-anchor: middle" x="194.996313" y="79.180063" transform="rotate(-0 194.996313 79.180063)">INS2</text>
   </g>
   <g id="text_24">
    <text style="font-size: 8px; font-family: 'Arial', sans-serif; text-anchor: middle" x="65.589074" y="112.197883" transform="rotate(-0 65.589074 112.197883)">NKX6-1</text>
   </g>
   <g id="text_25">
    <text style="font-size: 8px; font-family: 'Arial', sans-serif; text-anchor: middle" x="87.941377" y="130.83974" transform="rotate(-0 87.941377 130.83974)">GLP1R</text>
   </g>
   <g id="text_26">
    <text style="font-size: 8px; font-family: 'Arial', sans-serif; text-anchor: middle" x="106.291687" y="81.6851" transform="rotate(-0 106.291687 81.6851)">RESP18</text>
   </g>
   <g id="text_27">
    <text style="font-size: 8px; font-family: 'Arial', sans-serif; text-anchor: middle" x="175.715808" y="101.925653" transform="rotate(-0 175.715808 101.925653)">SCG5</text>
   </g>
   <g id="text_28">
    <text style="font-size: 8px; font-family: 'Arial', sans-serif; text-anchor: middle" x="114.810652" y="143.842113" transform="rotate(-0 114.810652 143.842113)">SST</text>
   </g>
   <g id="text_29">
    <text style="font-size: 8px; font-family: 'Arial', sans-serif; text-anchor: middle" x="143.459374" y="123.088571" transform="rotate(-0 143.459374 123.088571)">RBP4</text>
   </g>
   <g id="patch_5">
    <path d="M 215.982987 30.342664 
Q 221.028193 27.256196 226.0734 24.169729 
" style="fill: none; stroke: #000000; stroke-width: 0.2; stroke-linecap: round"/>
   </g>
   <g id="patch_6">
    <path d="M 221.685073 57.869449 
Q 214.151968 65.29618 206.618863 72.722911 
" style="fill: none; stroke: #000000; stroke-width: 0.2; stroke-linecap: round"/>
   </g>
   <g id="patch_7">
    <path d="M 66.93435 157.664253 
Q 59.231042 150.79552 51.527734 143.926787 
" style="fill: none; stroke: #000000; stroke-width: 0.2; stroke-linecap: round"/>
   </g>
   <g id="patch_8">
    <path d="M 125.447989 167.981022 
Q 94.173825 165.609522 62.899661 163.238021 
" style="fill: none; stroke: #000000; stroke-width: 0.2; stroke-linecap: round"/>
   </g>
   <g id="patch_9">
    <path d="M 193.114754 77.790997 
Q 189.751726 79.004721 186.388699 80.218445 
" style="fill: none; stroke: #000000; stroke-width: 0.2; stroke-linecap: round"/>
   </g>
   <g id="patch_10">
    <path d="M 64.437034 111.765967 
Q 59.373034 118.958216 54.309033 126.150464 
" style="fill: none; stroke: #000000; stroke-width: 0.2; stroke-linecap: round"/>
   </g>
   <g id="patch_11">
    <path d="M 86.029243 129.365676 
Q 75.759763 132.556194 65.490283 135.746712 
" style="fill: none; stroke: #000000; stroke-width: 0.2; stroke-linecap: round"/>
   </g>
   <g id="patch_12">
    <path d="M 104.412351 80.290798 
Q 92.220382 84.662149 80.028413 89.033499 
" style="fill: none; stroke: #000000; stroke-width: 0.2; stroke-linecap: round"/>
   </g>
   <g id="patch_13">
    <path d="M 173.77409 99.377722 
Q 165.507495 97.335011 157.2409 95.2923 
" style="fill: none; stroke: #000000; stroke-width: 0.2; stroke-linecap: round"/>
   </g>
   <g id="patch_14">
    <path d="M 112.854124 142.185889 
Q 99.83238 144.927308 86.810636 147.668728 
" style="fill: none; stroke: #000000; stroke-width: 0.2; stroke-linecap: round"/>
   </g>
   <g id="patch_15">
    <path d="M 141.466404 121.185207 
Q 128.202124 122.281774 114.937843 123.378342 
" style="fill: none; stroke: #000000; stroke-width: 0.2; stroke-linecap: round"/>
   </g>
   <g id="text_30">
    <text style="font-size: 7.653px; font-family: 'Arial', sans-serif; text-anchor: middle" x="138.908956" y="12.771145" transform="rotate(-0 138.908956 12.771145)">Alpha Ifng</text>
   </g>
  </g>
 </g>
 <defs>
  <clipPath id="pdadf65ffdf">
   <rect x="41.149114" y="18.771145" width="195.519685" height="194.258268"/>
  </clipPath>
 </defs>
</svg>
