<?xml version="1.0" encoding="utf-8" standalone="no"?>
<!DOCTYPE svg PUBLIC "-//W3C//DTD SVG 1.1//EN"
  "http://www.w3.org/Graphics/SVG/1.1/DTD/svg11.dtd">
<svg xmlns:xlink="http://www.w3.org/1999/xlink" width="243.868799pt" height="245.820807pt" viewBox="0 0 243.868799 245.820807" xmlns="http://www.w3.org/2000/svg" version="1.1">
 <metadata>
  <rdf:RDF xmlns:dc="http://purl.org/dc/elements/1.1/" xmlns:cc="http://creativecommons.org/ns#" xmlns:rdf="http://www.w3.org/1999/02/22-rdf-syntax-ns#">
   <cc:Work>
    <dc:type rdf:resource="http://purl.org/dc/dcmitype/StillImage"/>
    <dc:date>2025-04-24T00:18:51.565028</dc:date>
    <dc:format>image/svg+xml</dc:format>
    <dc:creator>
     <cc:Agent>
      <dc:title>Matplotlib v3.10.0, https://matplotlib.org/</dc:title>
     </cc:Agent>
    </dc:creator>
   </cc:Work>
  </rdf:RDF>
 </metadata>
 <defs>
  <style type="text/css">*{stroke-linejoin: round; stroke-linecap: butt}</style>
 </defs>
 <g id="figure_1">
  <g id="patch_1">
   <path d="M 0 245.820807 
L 243.868799 245.820807 
L 243.868799 0 
L 0 0 
L 0 245.820807 
z
" style="fill: none"/>
  </g>
  <g id="axes_1">
   <g id="patch_2">
    <path d="M 41.149114 213.029413 
L 236.668799 213.029413 
L 236.668799 18.771145 
L 41.149114 18.771145 
L 41.149114 213.029413 
z
" style="fill: none"/>
   </g>
   <g id="PathCollection_1">
    <defs>
     <path id="C0_0_a3aa18b25d" d="M 0 1.936492 
C 0.513564 1.936492 1.006162 1.732451 1.369306 1.369306 
C 1.732451 1.006162 1.936492 0.513564 1.936492 -0 
C 1.936492 -0.513564 1.732451 -1.006162 1.369306 -1.369306 
C 1.006162 -1.732451 0.513564 -1.936492 0 -1.936492 
C -0.513564 -1.936492 -1.006162 -1.732451 -1.369306 -1.369306 
C -1.732451 -1.006162 -1.936492 -0.513564 -1.936492 0 
C -1.936492 0.513564 -1.732451 1.006162 -1.369306 1.369306 
C -1.006162 1.732451 -0.513564 1.936492 0 1.936492 
z
"/>
    </defs>
    <g clip-path="url(#pfdf591bdf1)">
     <use xlink:href="#C0_0_a3aa18b25d" x="172.931856" y="129.421337" style="fill: #cb334d"/>
    </g>
    <g clip-path="url(#pfdf591bdf1)">
     <use xlink:href="#C0_0_a3aa18b25d" x="115.015382" y="158.685904" style="fill: #cb334d"/>
    </g>
    <g clip-path="url(#pfdf591bdf1)">
     <use xlink:href="#C0_0_a3aa18b25d" x="60.421746" y="177.502233" style="fill: #cb334d"/>
    </g>
    <g clip-path="url(#pfdf591bdf1)">
     <use xlink:href="#C0_0_a3aa18b25d" x="174.82749" y="147.953493" style="fill: #cb334d"/>
    </g>
    <g clip-path="url(#pfdf591bdf1)">
     <use xlink:href="#C0_0_a3aa18b25d" x="50.036372" y="121.009037" style="fill: #cb334d"/>
    </g>
    <g clip-path="url(#pfdf591bdf1)">
     <use xlink:href="#C0_0_a3aa18b25d" x="71.330548" y="91.446068" style="fill: #cb334d"/>
    </g>
    <g clip-path="url(#pfdf591bdf1)">
     <use xlink:href="#C0_0_a3aa18b25d" x="169.358691" y="103.497007" style="fill: #cb334d"/>
    </g>
    <g clip-path="url(#pfdf591bdf1)">
     <use xlink:href="#C0_0_a3aa18b25d" x="227.78154" y="48.506971" style="fill: #cb334d"/>
    </g>
    <g clip-path="url(#pfdf591bdf1)">
     <use xlink:href="#C0_0_a3aa18b25d" x="179.796275" y="101.207434" style="fill: #cb334d"/>
    </g>
   </g>
   <g id="matplotlib.axis_1">
    <g id="xtick_1">
     <g id="line2d_1">
      <defs>
       <path id="mfd4b1c8465" d="M 0 0 
L 0 3.5 
" style="stroke: #000000; stroke-width: 0.5"/>
      </defs>
      <g>
       <use xlink:href="#mfd4b1c8465" x="43.497919" y="213.029413" style="stroke: #000000; stroke-width: 0.5"/>
      </g>
     </g>
     <g id="text_1">
      <text style="font-size: 8.102px; font-family: 'Arial', sans-serif; text-anchor: middle" x="43.497919" y="225.828672" transform="rotate(-0 43.497919 225.828672)">10</text>
     </g>
    </g>
    <g id="xtick_2">
     <g id="line2d_2">
      <g>
       <use xlink:href="#mfd4b1c8465" x="78.063785" y="213.029413" style="stroke: #000000; stroke-width: 0.5"/>
      </g>
     </g>
     <g id="text_2">
      <text style="font-size: 8.102px; font-family: 'Arial', sans-serif; text-anchor: middle" x="78.063785" y="225.828672" transform="rotate(-0 78.063785 225.828672)">12</text>
     </g>
    </g>
    <g id="xtick_3">
     <g id="line2d_3">
      <g>
       <use xlink:href="#mfd4b1c8465" x="112.62965" y="213.029413" style="stroke: #000000; stroke-width: 0.5"/>
      </g>
     </g>
     <g id="text_3">
      <text style="font-size: 8.102px; font-family: 'Arial', sans-serif; text-anchor: middle" x="112.62965" y="225.828672" transform="rotate(-0 112.62965 225.828672)">14</text>
     </g>
    </g>
    <g id="xtick_4">
     <g id="line2d_4">
      <g>
       <use xlink:href="#mfd4b1c8465" x="147.195515" y="213.029413" style="stroke: #000000; stroke-width: 0.5"/>
      </g>
     </g>
     <g id="text_4">
      <text style="font-size: 8.102px; font-family: 'Arial', sans-serif; text-anchor: middle" x="147.195515" y="225.828672" transform="rotate(-0 147.195515 225.828672)">16</text>
     </g>
    </g>
    <g id="xtick_5">
     <g id="line2d_5">
      <g>
       <use xlink:href="#mfd4b1c8465" x="181.76138" y="213.029413" style="stroke: #000000; stroke-width: 0.5"/>
      </g>
     </g>
     <g id="text_5">
      <text style="font-size: 8.102px; font-family: 'Arial', sans-serif; text-anchor: middle" x="181.76138" y="225.828672" transform="rotate(-0 181.76138 225.828672)">18</text>
     </g>
    </g>
    <g id="xtick_6">
     <g id="line2d_6">
      <g>
       <use xlink:href="#mfd4b1c8465" x="216.327245" y="213.029413" style="stroke: #000000; stroke-width: 0.5"/>
      </g>
     </g>
     <g id="text_6">
      <text style="font-size: 8.102px; font-family: 'Arial', sans-serif; text-anchor: middle" x="216.327245" y="225.828672" transform="rotate(-0 216.327245 225.828672)">20</text>
     </g>
    </g>
    <g id="text_7">
     <text style="font-size: 7.653px; font-family: 'Arial', sans-serif; text-anchor: middle" x="138.908956" y="237.01009" transform="rotate(-0 138.908956 237.01009)">log2(Proteomics)</text>
    </g>
   </g>
   <g id="matplotlib.axis_2">
    <g id="ytick_1">
     <g id="line2d_7">
      <defs>
       <path id="m72e61630b6" d="M 0 0 
L -3.5 0 
" style="stroke: #000000; stroke-width: 0.5"/>
      </defs>
      <g>
       <use xlink:href="#m72e61630b6" x="41.149114" y="213.029413" style="stroke: #000000; stroke-width: 0.5"/>
      </g>
     </g>
     <g id="text_8">
      <text style="font-size: 8.102px; font-family: 'Arial', sans-serif; text-anchor: end" x="34.149114" y="215.929042" transform="rotate(-0 34.149114 215.929042)">0.0</text>
     </g>
    </g>
    <g id="ytick_2">
     <g id="line2d_8">
      <g>
       <use xlink:href="#m72e61630b6" x="41.149114" y="188.747129" style="stroke: #000000; stroke-width: 0.5"/>
      </g>
     </g>
     <g id="text_9">
      <text style="font-size: 8.102px; font-family: 'Arial', sans-serif; text-anchor: end" x="34.149114" y="191.646759" transform="rotate(-0 34.149114 191.646759)">2.5</text>
     </g>
    </g>
    <g id="ytick_3">
     <g id="line2d_9">
      <g>
       <use xlink:href="#m72e61630b6" x="41.149114" y="164.464846" style="stroke: #000000; stroke-width: 0.5"/>
      </g>
     </g>
     <g id="text_10">
      <text style="font-size: 8.102px; font-family: 'Arial', sans-serif; text-anchor: end" x="34.149114" y="167.364475" transform="rotate(-0 34.149114 167.364475)">5.0</text>
     </g>
    </g>
    <g id="ytick_4">
     <g id="line2d_10">
      <g>
       <use xlink:href="#m72e61630b6" x="41.149114" y="140.182562" style="stroke: #000000; stroke-width: 0.5"/>
      </g>
     </g>
     <g id="text_11">
      <text style="font-size: 8.102px; font-family: 'Arial', sans-serif; text-anchor: end" x="34.149114" y="143.082192" transform="rotate(-0 34.149114 143.082192)">7.5</text>
     </g>
    </g>
    <g id="ytick_5">
     <g id="line2d_11">
      <g>
       <use xlink:href="#m72e61630b6" x="41.149114" y="115.900279" style="stroke: #000000; stroke-width: 0.5"/>
      </g>
     </g>
     <g id="text_12">
      <text style="font-size: 8.102px; font-family: 'Arial', sans-serif; text-anchor: end" x="34.149114" y="118.799909" transform="rotate(-0 34.149114 118.799909)">10.0</text>
     </g>
    </g>
    <g id="ytick_6">
     <g id="line2d_12">
      <g>
       <use xlink:href="#m72e61630b6" x="41.149114" y="91.617995" style="stroke: #000000; stroke-width: 0.5"/>
      </g>
     </g>
     <g id="text_13">
      <text style="font-size: 8.102px; font-family: 'Arial', sans-serif; text-anchor: end" x="34.149114" y="94.517625" transform="rotate(-0 34.149114 94.517625)">12.5</text>
     </g>
    </g>
    <g id="ytick_7">
     <g id="line2d_13">
      <g>
       <use xlink:href="#m72e61630b6" x="41.149114" y="67.335712" style="stroke: #000000; stroke-width: 0.5"/>
      </g>
     </g>
     <g id="text_14">
      <text style="font-size: 8.102px; font-family: 'Arial', sans-serif; text-anchor: end" x="34.149114" y="70.235342" transform="rotate(-0 34.149114 70.235342)">15.0</text>
     </g>
    </g>
    <g id="ytick_8">
     <g id="line2d_14">
      <g>
       <use xlink:href="#m72e61630b6" x="41.149114" y="43.053428" style="stroke: #000000; stroke-width: 0.5"/>
      </g>
     </g>
     <g id="text_15">
      <text style="font-size: 8.102px; font-family: 'Arial', sans-serif; text-anchor: end" x="34.149114" y="45.953058" transform="rotate(-0 34.149114 45.953058)">17.5</text>
     </g>
    </g>
    <g id="ytick_9">
     <g id="line2d_15">
      <g>
       <use xlink:href="#m72e61630b6" x="41.149114" y="18.771145" style="stroke: #000000; stroke-width: 0.5"/>
      </g>
     </g>
     <g id="text_16">
      <text style="font-size: 8.102px; font-family: 'Arial', sans-serif; text-anchor: end" x="34.149114" y="21.670775" transform="rotate(-0 34.149114 21.670775)">20.0</text>
     </g>
    </g>
    <g id="text_17">
     <text style="font-size: 7.653px; font-family: 'Arial', sans-serif; text-anchor: middle" x="12.771145" y="115.900279" transform="rotate(-90 12.771145 115.900279)">log2(Transcriptomics)</text>
    </g>
   </g>
   <g id="line2d_16">
    <path d="M 50.036372 146.382439 
L 51.831778 145.827844 
L 53.627184 145.27325 
L 55.422589 144.718655 
L 57.217995 144.164061 
L 59.013401 143.609466 
L 60.808807 143.054872 
L 62.604212 142.500278 
L 64.399618 141.945683 
L 66.195024 141.391089 
L 67.99043 140.836494 
L 69.785835 140.2819 
L 71.581241 139.727305 
L 73.376647 139.172711 
L 75.172053 138.618116 
L 76.967458 138.063522 
L 78.762864 137.508927 
L 80.55827 136.954333 
L 82.353675 136.399738 
L 84.149081 135.845144 
L 85.944487 135.290549 
L 87.739893 134.735955 
L 89.535298 134.181361 
L 91.330704 133.626766 
L 93.12611 133.072172 
L 94.921516 132.517577 
L 96.716921 131.962983 
L 98.512327 131.408388 
L 100.307733 130.853794 
L 102.103139 130.299199 
L 103.898544 129.744605 
L 105.69395 129.19001 
L 107.489356 128.635416 
L 109.284762 128.080821 
L 111.080167 127.526227 
L 112.875573 126.971632 
L 114.670979 126.417038 
L 116.466385 125.862444 
L 118.26179 125.307849 
L 120.057196 124.753255 
L 121.852602 124.19866 
L 123.648007 123.644066 
L 125.443413 123.089471 
L 127.238819 122.534877 
L 129.034225 121.980282 
L 130.82963 121.425688 
L 132.625036 120.871093 
L 134.420442 120.316499 
L 136.215848 119.761904 
L 138.011253 119.20731 
L 139.806659 118.652716 
L 141.602065 118.098121 
L 143.397471 117.543527 
L 145.192876 116.988932 
L 146.988282 116.434338 
L 148.783688 115.879743 
L 150.579094 115.325149 
L 152.374499 114.770554 
L 154.169905 114.21596 
L 155.965311 113.661365 
L 157.760717 113.106771 
L 159.556122 112.552176 
L 161.351528 111.997582 
L 163.146934 111.442987 
L 164.942339 110.888393 
L 166.737745 110.333799 
L 168.533151 109.779204 
L 170.328557 109.22461 
L 172.123962 108.670015 
L 173.919368 108.115421 
L 175.714774 107.560826 
L 177.51018 107.006232 
L 179.305585 106.451637 
L 181.100991 105.897043 
L 182.896397 105.342448 
L 184.691803 104.787854 
L 186.487208 104.233259 
L 188.282614 103.678665 
L 190.07802 103.12407 
L 191.873426 102.569476 
L 193.668831 102.014882 
L 195.464237 101.460287 
L 197.259643 100.905693 
L 199.055049 100.351098 
L 200.850454 99.796504 
L 202.64586 99.241909 
L 204.441266 98.687315 
L 206.236672 98.13272 
L 208.032077 97.578126 
L 209.827483 97.023531 
L 211.622889 96.468937 
L 213.418294 95.914342 
L 215.2137 95.359748 
L 217.009106 94.805154 
L 218.804512 94.250559 
L 220.599917 93.695965 
L 222.395323 93.14137 
L 224.190729 92.586776 
L 225.986135 92.032181 
L 227.78154 91.477587 
" clip-path="url(#pfdf591bdf1)" style="fill: none; stroke-dasharray: 4.625,2; stroke-dashoffset: 0; stroke: #ff0000; stroke-width: 1.25"/>
   </g>
   <g id="patch_3">
    <path d="M 41.149114 213.029413 
L 41.149114 18.771145 
" style="fill: none; stroke: #000000; stroke-width: 0.5; stroke-linejoin: miter; stroke-linecap: square"/>
   </g>
   <g id="patch_4">
    <path d="M 41.149114 213.029413 
L 236.668799 213.029413 
" style="fill: none; stroke: #000000; stroke-width: 0.5; stroke-linejoin: miter; stroke-linecap: square"/>
   </g>
   <g id="text_18">
    <text style="font-size: 8.102px; font-family: 'Arial', sans-serif" transform="translate(50.925098 39.245556)">y = 0.55x + 1.16</text>
    <text style="font-size: 8.102px; font-family: 'Arial', sans-serif" transform="translate(50.925098 47.909885)">R2 = 0.25</text>
   </g>
   <g id="text_19">
    <text style="font-size: 8px; font-family: 'Arial', sans-serif; text-anchor: middle" x="190.276344" y="134.012296" transform="rotate(-0 190.276344 134.012296)">GCG</text>
   </g>
   <g id="text_20">
    <text style="font-size: 8px; font-family: 'Arial', sans-serif; text-anchor: middle" x="129.837035" y="155.077651" transform="rotate(-0 129.837035 155.077651)">TTR</text>
   </g>
   <g id="text_21">
    <text style="font-size: 8px; font-family: 'Arial', sans-serif; text-anchor: middle" x="88.894508" y="183.932853" transform="rotate(-0 88.894508 183.932853)">SLC2A2</text>
   </g>
   <g id="text_22">
    <text style="font-size: 8px; font-family: 'Arial', sans-serif; text-anchor: middle" x="191.620108" y="151.719193" transform="rotate(-0 191.620108 151.719193)">INS2</text>
   </g>
   <g id="text_23">
    <text style="font-size: 8px; font-family: 'Arial', sans-serif; text-anchor: middle" x="74.397494" y="125.599996" transform="rotate(-0 74.397494 125.599996)">GLP1R</text>
   </g>
   <g id="text_24">
    <text style="font-size: 8px; font-family: 'Arial', sans-serif; text-anchor: middle" x="100.73734" y="86.576398" transform="rotate(-0 100.73734 86.576398)">RESP18</text>
   </g>
   <g id="text_25">
    <text style="font-size: 8px; font-family: 'Arial', sans-serif; text-anchor: middle" x="202.028755" y="80.686678" transform="rotate(-0 202.028755 80.686678)">SCG5</text>
   </g>
   <g id="text_26">
    <text style="font-size: 8px; font-family: 'Arial', sans-serif; text-anchor: middle" x="223.108563" y="42.375884" transform="rotate(-0 223.108563 42.375884)">SST</text>
   </g>
   <g id="text_27">
    <text style="font-size: 8px; font-family: 'Arial', sans-serif; text-anchor: middle" x="201.13064" y="99.258045" transform="rotate(-0 201.13064 99.258045)">RBP4</text>
   </g>
   <g id="patch_5">
    <path d="M 188.298835 131.656534 
Q 181.603919 130.682728 174.909004 129.708922 
" style="fill: none; stroke: #000000; stroke-width: 0.2; stroke-linecap: round"/>
   </g>
   <g id="patch_6">
    <path d="M 127.966236 153.726002 
Q 122.425129 155.848128 116.884023 157.970254 
" style="fill: none; stroke: #000000; stroke-width: 0.2; stroke-linecap: round"/>
   </g>
   <g id="patch_7">
    <path d="M 86.916847 181.561718 
Q 74.657364 179.683364 62.397882 177.805009 
" style="fill: none; stroke: #000000; stroke-width: 0.2; stroke-linecap: round"/>
   </g>
   <g id="patch_8">
    <path d="M 189.631724 149.450061 
Q 183.225351 148.802438 176.818977 148.154814 
" style="fill: none; stroke: #000000; stroke-width: 0.2; stroke-linecap: round"/>
   </g>
   <g id="patch_9">
    <path d="M 72.408042 123.325844 
Q 62.217626 122.270526 52.02721 121.215208 
" style="fill: none; stroke: #000000; stroke-width: 0.2; stroke-linecap: round"/>
   </g>
   <g id="patch_10">
    <path d="M 98.788135 84.968139 
Q 86.033027 87.977387 73.277919 90.986635 
" style="fill: none; stroke: #000000; stroke-width: 0.2; stroke-linecap: round"/>
   </g>
   <g id="patch_11">
    <path d="M 200.439519 79.828766 
Q 185.693958 91.057601 170.948396 102.286436 
" style="fill: none; stroke: #000000; stroke-width: 0.2; stroke-linecap: round"/>
   </g>
   <g id="patch_12">
    <path d="M 224.101114 42.049291 
Q 225.446231 44.409434 226.791348 46.769578 
" style="fill: none; stroke: #000000; stroke-width: 0.2; stroke-linecap: round"/>
   </g>
   <g id="patch_13">
    <path d="M 199.164399 97.560187 
Q 190.46151 99.199044 181.758622 100.837901 
" style="fill: none; stroke: #000000; stroke-width: 0.2; stroke-linecap: round"/>
   </g>
   <g id="text_28">
    <text style="font-size: 7.653px; font-family: 'Arial', sans-serif; text-anchor: middle" x="138.908956" y="12.771145" transform="rotate(-0 138.908956 12.771145)">Delta Ifng</text>
   </g>
  </g>
 </g>
 <defs>
  <clipPath id="pfdf591bdf1">
   <rect x="41.149114" y="18.771145" width="195.519685" height="194.258268"/>
  </clipPath>
 </defs>
</svg>
