<?xml version="1.0" encoding="utf-8" standalone="no"?>
<!DOCTYPE svg PUBLIC "-//W3C//DTD SVG 1.1//EN"
  "http://www.w3.org/Graphics/SVG/1.1/DTD/svg11.dtd">
<svg xmlns:xlink="http://www.w3.org/1999/xlink" width="243.995935pt" height="246.305768pt" viewBox="0 0 243.995935 246.305768" xmlns="http://www.w3.org/2000/svg" version="1.1">
 <metadata>
  <rdf:RDF xmlns:dc="http://purl.org/dc/elements/1.1/" xmlns:cc="http://creativecommons.org/ns#" xmlns:rdf="http://www.w3.org/1999/02/22-rdf-syntax-ns#">
   <cc:Work>
    <dc:type rdf:resource="http://purl.org/dc/dcmitype/StillImage"/>
    <dc:date>2025-10-02T16:00:26.499914</dc:date>
    <dc:format>image/svg+xml</dc:format>
    <dc:creator>
     <cc:Agent>
      <dc:title>Matplotlib v3.10.6, https://matplotlib.org/</dc:title>
     </cc:Agent>
    </dc:creator>
   </cc:Work>
  </rdf:RDF>
 </metadata>
 <defs>
  <style type="text/css">*{stroke-linejoin: round; stroke-linecap: butt}</style>
 </defs>
 <g id="figure_1">
  <g id="patch_1">
   <path d="M 0 246.305768 
L 243.995935 246.305768 
L 243.995935 -0 
L 0 -0 
L 0 246.305768 
z
" style="fill: none"/>
  </g>
  <g id="axes_1">
   <g id="patch_2">
    <path d="M 41.27625 213.282018 
L 236.795935 213.282018 
L 236.795935 19.02375 
L 41.27625 19.02375 
L 41.27625 213.282018 
z
" style="fill: none"/>
   </g>
   <g id="PathCollection_1">
    <defs>
     <path id="C0_0_fb795ca906" d="M 0 1.936492 
C 0.513564 1.936492 1.006162 1.732451 1.369306 1.369306 
C 1.732451 1.006162 1.936492 0.513564 1.936492 -0 
C 1.936492 -0.513564 1.732451 -1.006162 1.369306 -1.369306 
C 1.006162 -1.732451 0.513564 -1.936492 0 -1.936492 
C -0.513564 -1.936492 -1.006162 -1.732451 -1.369306 -1.369306 
C -1.732451 -1.006162 -1.936492 -0.513564 -1.936492 0 
C -1.936492 0.513564 -1.732451 1.006162 -1.369306 1.369306 
C -1.006162 1.732451 -0.513564 1.936492 0 1.936492 
z
"/>
    </defs>
    <g clip-path="url(#pdb63a3d4ce)">
     <use xlink:href="#C0_0_fb795ca906" x="63.388334" y="108.623222" style="fill: #ff0000"/>
    </g>
    <g clip-path="url(#pdb63a3d4ce)">
     <use xlink:href="#C0_0_fb795ca906" x="197.691471" y="83.985633" style="fill: #ff0000"/>
    </g>
    <g clip-path="url(#pdb63a3d4ce)">
     <use xlink:href="#C0_0_fb795ca906" x="167.976808" y="117.875628" style="fill: #ff0000"/>
    </g>
    <g clip-path="url(#pdb63a3d4ce)">
     <use xlink:href="#C0_0_fb795ca906" x="128.204945" y="112.649041" style="fill: #ff0000"/>
    </g>
    <g clip-path="url(#pdb63a3d4ce)">
     <use xlink:href="#C0_0_fb795ca906" x="63.388334" y="108.623222" style="fill: #ff0000"/>
    </g>
    <g clip-path="url(#pdb63a3d4ce)">
     <use xlink:href="#C0_0_fb795ca906" x="227.908677" y="40.882504" style="fill: #ff0000"/>
    </g>
    <g clip-path="url(#pdb63a3d4ce)">
     <use xlink:href="#C0_0_fb795ca906" x="77.608259" y="106.753428" style="fill: #ff0000"/>
    </g>
    <g clip-path="url(#pdb63a3d4ce)">
     <use xlink:href="#C0_0_fb795ca906" x="80.911094" y="110.868032" style="fill: #ff0000"/>
    </g>
    <g clip-path="url(#pdb63a3d4ce)">
     <use xlink:href="#C0_0_fb795ca906" x="96.224629" y="88.424669" style="fill: #ff0000"/>
    </g>
    <g clip-path="url(#pdb63a3d4ce)">
     <use xlink:href="#C0_0_fb795ca906" x="68.389608" y="104.234054" style="fill: #ff0000"/>
    </g>
    <g clip-path="url(#pdb63a3d4ce)">
     <use xlink:href="#C0_0_fb795ca906" x="173.538931" y="103.572872" style="fill: #ff0000"/>
    </g>
    <g clip-path="url(#pdb63a3d4ce)">
     <use xlink:href="#C0_0_fb795ca906" x="50.163508" y="140.310144" style="fill: #ff0000"/>
    </g>
    <g clip-path="url(#pdb63a3d4ce)">
     <use xlink:href="#C0_0_fb795ca906" x="57.869277" y="157.812962" style="fill: #ff0000"/>
    </g>
   </g>
   <g id="matplotlib.axis_1">
    <g id="xtick_1">
     <g id="line2d_1">
      <defs>
       <path id="m0b6e68a59d" d="M 0 0 
L 0 3.5 
" style="stroke: #000000; stroke-width: 0.8"/>
      </defs>
      <g>
       <use xlink:href="#m0b6e68a59d" x="73.441101" y="213.282018" style="stroke: #000000; stroke-width: 0.8"/>
      </g>
     </g>
     <g id="text_1">
      <text style="font-size: 8px; font-family: 'Arial'; text-anchor: middle" x="73.441101" y="226.008268" transform="rotate(-0 73.441101 226.008268)">12</text>
     </g>
    </g>
    <g id="xtick_2">
     <g id="line2d_2">
      <g>
       <use xlink:href="#m0b6e68a59d" x="115.878012" y="213.282018" style="stroke: #000000; stroke-width: 0.8"/>
      </g>
     </g>
     <g id="text_2">
      <text style="font-size: 8px; font-family: 'Arial'; text-anchor: middle" x="115.878012" y="226.008268" transform="rotate(-0 115.878012 226.008268)">14</text>
     </g>
    </g>
    <g id="xtick_3">
     <g id="line2d_3">
      <g>
       <use xlink:href="#m0b6e68a59d" x="158.314923" y="213.282018" style="stroke: #000000; stroke-width: 0.8"/>
      </g>
     </g>
     <g id="text_3">
      <text style="font-size: 8px; font-family: 'Arial'; text-anchor: middle" x="158.314923" y="226.008268" transform="rotate(-0 158.314923 226.008268)">16</text>
     </g>
    </g>
    <g id="xtick_4">
     <g id="line2d_4">
      <g>
       <use xlink:href="#m0b6e68a59d" x="200.751834" y="213.282018" style="stroke: #000000; stroke-width: 0.8"/>
      </g>
     </g>
     <g id="text_4">
      <text style="font-size: 8px; font-family: 'Arial'; text-anchor: middle" x="200.751834" y="226.008268" transform="rotate(-0 200.751834 226.008268)">18</text>
     </g>
    </g>
    <g id="text_5">
     <text style="font-size: 8px; font-family: 'Arial'; text-anchor: middle" x="139.036093" y="237.422018" transform="rotate(-0 139.036093 237.422018)">log2(Proteomics)</text>
    </g>
   </g>
   <g id="matplotlib.axis_2">
    <g id="ytick_1">
     <g id="line2d_5">
      <defs>
       <path id="m6f5e5f6266" d="M 0 0 
L -3.5 0 
" style="stroke: #000000; stroke-width: 0.8"/>
      </defs>
      <g>
       <use xlink:href="#m6f5e5f6266" x="41.27625" y="213.282018" style="stroke: #000000; stroke-width: 0.8"/>
      </g>
     </g>
     <g id="text_6">
      <text style="font-size: 8px; font-family: 'Arial'; text-anchor: end" x="34.27625" y="216.145143" transform="rotate(-0 34.27625 216.145143)">0.0</text>
     </g>
    </g>
    <g id="ytick_2">
     <g id="line2d_6">
      <g>
       <use xlink:href="#m6f5e5f6266" x="41.27625" y="188.999734" style="stroke: #000000; stroke-width: 0.8"/>
      </g>
     </g>
     <g id="text_7">
      <text style="font-size: 8px; font-family: 'Arial'; text-anchor: end" x="34.27625" y="191.862859" transform="rotate(-0 34.27625 191.862859)">2.5</text>
     </g>
    </g>
    <g id="ytick_3">
     <g id="line2d_7">
      <g>
       <use xlink:href="#m6f5e5f6266" x="41.27625" y="164.717451" style="stroke: #000000; stroke-width: 0.8"/>
      </g>
     </g>
     <g id="text_8">
      <text style="font-size: 8px; font-family: 'Arial'; text-anchor: end" x="34.27625" y="167.580576" transform="rotate(-0 34.27625 167.580576)">5.0</text>
     </g>
    </g>
    <g id="ytick_4">
     <g id="line2d_8">
      <g>
       <use xlink:href="#m6f5e5f6266" x="41.27625" y="140.435167" style="stroke: #000000; stroke-width: 0.8"/>
      </g>
     </g>
     <g id="text_9">
      <text style="font-size: 8px; font-family: 'Arial'; text-anchor: end" x="34.27625" y="143.298292" transform="rotate(-0 34.27625 143.298292)">7.5</text>
     </g>
    </g>
    <g id="ytick_5">
     <g id="line2d_9">
      <g>
       <use xlink:href="#m6f5e5f6266" x="41.27625" y="116.152884" style="stroke: #000000; stroke-width: 0.8"/>
      </g>
     </g>
     <g id="text_10">
      <text style="font-size: 8px; font-family: 'Arial'; text-anchor: end" x="34.27625" y="119.016009" transform="rotate(-0 34.27625 119.016009)">10.0</text>
     </g>
    </g>
    <g id="ytick_6">
     <g id="line2d_10">
      <g>
       <use xlink:href="#m6f5e5f6266" x="41.27625" y="91.8706" style="stroke: #000000; stroke-width: 0.8"/>
      </g>
     </g>
     <g id="text_11">
      <text style="font-size: 8px; font-family: 'Arial'; text-anchor: end" x="34.27625" y="94.733725" transform="rotate(-0 34.27625 94.733725)">12.5</text>
     </g>
    </g>
    <g id="ytick_7">
     <g id="line2d_11">
      <g>
       <use xlink:href="#m6f5e5f6266" x="41.27625" y="67.588317" style="stroke: #000000; stroke-width: 0.8"/>
      </g>
     </g>
     <g id="text_12">
      <text style="font-size: 8px; font-family: 'Arial'; text-anchor: end" x="34.27625" y="70.451442" transform="rotate(-0 34.27625 70.451442)">15.0</text>
     </g>
    </g>
    <g id="ytick_8">
     <g id="line2d_12">
      <g>
       <use xlink:href="#m6f5e5f6266" x="41.27625" y="43.306033" style="stroke: #000000; stroke-width: 0.8"/>
      </g>
     </g>
     <g id="text_13">
      <text style="font-size: 8px; font-family: 'Arial'; text-anchor: end" x="34.27625" y="46.169158" transform="rotate(-0 34.27625 46.169158)">17.5</text>
     </g>
    </g>
    <g id="ytick_9">
     <g id="line2d_13">
      <g>
       <use xlink:href="#m6f5e5f6266" x="41.27625" y="19.02375" style="stroke: #000000; stroke-width: 0.8"/>
      </g>
     </g>
     <g id="text_14">
      <text style="font-size: 8px; font-family: 'Arial'; text-anchor: end" x="34.27625" y="21.886875" transform="rotate(-0 34.27625 21.886875)">20.0</text>
     </g>
    </g>
    <g id="text_15">
     <text style="font-size: 8px; font-family: 'Arial'; text-anchor: middle" x="13.02375" y="116.152884" transform="rotate(-90 13.02375 116.152884)">log2(Transcriptomics)</text>
    </g>
   </g>
   <g id="line2d_14">
    <path d="M 50.163508 125.971325 
L 51.958914 125.404308 
L 53.75432 124.837291 
L 55.549726 124.270274 
L 57.345131 123.703258 
L 59.140537 123.136241 
L 60.935943 122.569224 
L 62.731349 122.002207 
L 64.526754 121.43519 
L 66.32216 120.868174 
L 68.117566 120.301157 
L 69.912972 119.73414 
L 71.708377 119.167123 
L 73.503783 118.600106 
L 75.299189 118.03309 
L 77.094595 117.466073 
L 78.89 116.899056 
L 80.685406 116.332039 
L 82.480812 115.765022 
L 84.276217 115.198006 
L 86.071623 114.630989 
L 87.867029 114.063972 
L 89.662435 113.496955 
L 91.45784 112.929938 
L 93.253246 112.362922 
L 95.048652 111.795905 
L 96.844058 111.228888 
L 98.639463 110.661871 
L 100.434869 110.094854 
L 102.230275 109.527838 
L 104.025681 108.960821 
L 105.821086 108.393804 
L 107.616492 107.826787 
L 109.411898 107.25977 
L 111.207304 106.692754 
L 113.002709 106.125737 
L 114.798115 105.55872 
L 116.593521 104.991703 
L 118.388927 104.424686 
L 120.184332 103.85767 
L 121.979738 103.290653 
L 123.775144 102.723636 
L 125.570549 102.156619 
L 127.365955 101.589602 
L 129.161361 101.022586 
L 130.956767 100.455569 
L 132.752172 99.888552 
L 134.547578 99.321535 
L 136.342984 98.754518 
L 138.13839 98.187502 
L 139.933795 97.620485 
L 141.729201 97.053468 
L 143.524607 96.486451 
L 145.320013 95.919434 
L 147.115418 95.352418 
L 148.910824 94.785401 
L 150.70623 94.218384 
L 152.501636 93.651367 
L 154.297041 93.08435 
L 156.092447 92.517334 
L 157.887853 91.950317 
L 159.683259 91.3833 
L 161.478664 90.816283 
L 163.27407 90.249266 
L 165.069476 89.68225 
L 166.864881 89.115233 
L 168.660287 88.548216 
L 170.455693 87.981199 
L 172.251099 87.414182 
L 174.046504 86.847166 
L 175.84191 86.280149 
L 177.637316 85.713132 
L 179.432722 85.146115 
L 181.228127 84.579098 
L 183.023533 84.012082 
L 184.818939 83.445065 
L 186.614345 82.878048 
L 188.40975 82.311031 
L 190.205156 81.744014 
L 192.000562 81.176998 
L 193.795968 80.609981 
L 195.591373 80.042964 
L 197.386779 79.475947 
L 199.182185 78.90893 
L 200.977591 78.341914 
L 202.772996 77.774897 
L 204.568402 77.20788 
L 206.363808 76.640863 
L 208.159213 76.073846 
L 209.954619 75.50683 
L 211.750025 74.939813 
L 213.545431 74.372796 
L 215.340836 73.805779 
L 217.136242 73.238762 
L 218.931648 72.671746 
L 220.727054 72.104729 
L 222.522459 71.537712 
L 224.317865 70.970695 
L 226.113271 70.403678 
L 227.908677 69.836662 
" clip-path="url(#pdb63a3d4ce)" style="fill: none; stroke-dasharray: 3.7,1.6; stroke-dashoffset: 0; stroke: #ff0000"/>
   </g>
   <g id="patch_3">
    <path d="M 41.27625 213.282018 
L 41.27625 19.02375 
" style="fill: none; stroke: #000000; stroke-width: 0.5; stroke-linejoin: miter; stroke-linecap: square"/>
   </g>
   <g id="patch_4">
    <path d="M 41.27625 213.282018 
L 236.795935 213.282018 
" style="fill: none; stroke: #000000; stroke-width: 0.5; stroke-linejoin: miter; stroke-linecap: square"/>
   </g>
   <g id="text_16">
    <text style="font-size: 8px; font-family: 'Arial'" transform="translate(51.052234 39.60724)">y = 0.69x + 1.47</text>
    <text style="font-size: 8px; font-family: 'Arial'" transform="translate(51.052234 48.16249)">R2 = 0.48</text>
   </g>
   <g id="text_17">
    <text style="font-size: 8px; font-family: 'Arial'; text-anchor: middle" x="100.786802" y="120.715151" transform="rotate(-0 100.786802 120.715151)">MAFA</text>
   </g>
   <g id="text_18">
    <text style="font-size: 8px; font-family: 'Arial'; text-anchor: middle" x="220.081628" y="69.655333" transform="rotate(-0 220.081628 69.655333)">GCG</text>
   </g>
   <g id="text_19">
    <text style="font-size: 8px; font-family: 'Arial'; text-anchor: middle" x="191.628383" y="124.989423" transform="rotate(-0 191.628383 124.989423)">TTR</text>
   </g>
   <g id="text_20">
    <text style="font-size: 8px; font-family: 'Arial'; text-anchor: middle" x="145.947608" y="100.87424" transform="rotate(-0 145.947608 100.87424)">SLC2A2</text>
   </g>
   <g id="text_21">
    <text style="font-size: 8px; font-family: 'Arial'; text-anchor: middle" x="94.865523" y="138.164504" transform="rotate(-0 94.865523 138.164504)">MAFA</text>
   </g>
   <g id="text_22">
    <text style="font-size: 8px; font-family: 'Arial'; text-anchor: middle" x="221.343573" y="34.751416" transform="rotate(-0 221.343573 34.751416)">INS2</text>
   </g>
   <g id="text_23">
    <text style="font-size: 8px; font-family: 'Arial'; text-anchor: middle" x="167.095514" y="82.33525" transform="rotate(-0 167.095514 82.33525)">NKX6-1</text>
   </g>
   <g id="text_24">
    <text style="font-size: 8px; font-family: 'Arial'; text-anchor: middle" x="100.579615" y="106.707782" transform="rotate(-0 100.579615 106.707782)">UCN3</text>
   </g>
   <g id="text_25">
    <text style="font-size: 8px; font-family: 'Arial'; text-anchor: middle" x="107.971578" y="72.832951" transform="rotate(-0 107.971578 72.832951)">GLP1R</text>
   </g>
   <g id="text_26">
    <text style="font-size: 8px; font-family: 'Arial'; text-anchor: middle" x="64.139439" y="84.769806" transform="rotate(-0 64.139439 84.769806)">RESP18</text>
   </g>
   <g id="text_27">
    <text style="font-size: 8px; font-family: 'Arial'; text-anchor: middle" x="203.970624" y="106.391113" transform="rotate(-0 203.970624 106.391113)">SCG5</text>
   </g>
   <g id="text_28">
    <text style="font-size: 8px; font-family: 'Arial'; text-anchor: middle" x="58.620738" y="149.946773" transform="rotate(-0 58.620738 149.946773)">SST</text>
   </g>
   <g id="text_29">
    <text style="font-size: 8px; font-family: 'Arial'; text-anchor: middle" x="87.591423" y="166.109661" transform="rotate(-0 87.591423 166.109661)">RBP4</text>
   </g>
   <g id="patch_5">
    <path d="M 98.855705 118.129439 
Q 82.089666 113.635686 65.323626 109.141933 
" style="fill: none; stroke: #000000; stroke-width: 0.2; stroke-linecap: round"/>
   </g>
   <g id="patch_6">
    <path d="M 218.466322 68.770249 
Q 208.88661 75.786376 199.306898 82.802504 
" style="fill: none; stroke: #000000; stroke-width: 0.2; stroke-linecap: round"/>
   </g>
   <g id="patch_7">
    <path d="M 189.673779 122.504315 
Q 179.803935 120.398749 169.934091 118.293182 
" style="fill: none; stroke: #000000; stroke-width: 0.2; stroke-linecap: round"/>
   </g>
   <g id="patch_8">
    <path d="M 144.368701 100.037986 
Q 137.075082 105.728509 129.781463 111.419032 
" style="fill: none; stroke: #000000; stroke-width: 0.2; stroke-linecap: round"/>
   </g>
   <g id="patch_9">
    <path d="M 93.357369 134.780068 
Q 79.124638 122.357801 64.891908 109.935534 
" style="fill: none; stroke: #000000; stroke-width: 0.2; stroke-linecap: round"/>
   </g>
   <g id="patch_10">
    <path d="M 222.592161 34.242663 
Q 224.626091 36.782856 226.660022 39.323049 
" style="fill: none; stroke: #000000; stroke-width: 0.2; stroke-linecap: round"/>
   </g>
   <g id="patch_11">
    <path d="M 165.175667 80.835358 
Q 122.349999 93.510835 79.524331 106.186312 
" style="fill: none; stroke: #000000; stroke-width: 0.2; stroke-linecap: round"/>
   </g>
   <g id="patch_12">
    <path d="M 106.863132 72.431215 
Q 102.098402 79.594299 97.333672 86.757382 
" style="fill: none; stroke: #000000; stroke-width: 0.2; stroke-linecap: round"/>
   </g>
   <g id="patch_13">
    <path d="M 64.526997 84.665143 
Q 66.264512 93.467809 68.002027 102.270475 
" style="fill: none; stroke: #000000; stroke-width: 0.2; stroke-linecap: round"/>
   </g>
   <g id="patch_14">
    <path d="M 201.968343 104.273633 
Q 188.754844 103.947932 175.541345 103.62223 
" style="fill: none; stroke: #000000; stroke-width: 0.2; stroke-linecap: round"/>
   </g>
   <g id="patch_15">
    <path d="M 57.132051 146.546399 
Q 54.394652 144.09666 51.657254 141.64692 
" style="fill: none; stroke: #000000; stroke-width: 0.2; stroke-linecap: round"/>
   </g>
   <g id="patch_16">
    <path d="M 85.635828 163.631721 
Q 72.730415 160.927263 59.825002 158.222804 
" style="fill: none; stroke: #000000; stroke-width: 0.2; stroke-linecap: round"/>
   </g>
   <g id="text_30">
    <text style="font-size: 8px; font-family: 'Arial'; text-anchor: middle" x="139.036093" y="13.02375" transform="rotate(-0 139.036093 13.02375)">Beta Ifng</text>
   </g>
  </g>
 </g>
 <defs>
  <clipPath id="pdb63a3d4ce">
   <rect x="41.27625" y="19.02375" width="195.519685" height="194.258268"/>
  </clipPath>
 </defs>
</svg>
