<?xml version="1.0" encoding="utf-8" standalone="no"?>
<!DOCTYPE svg PUBLIC "-//W3C//DTD SVG 1.1//EN"
  "http://www.w3.org/Graphics/SVG/1.1/DTD/svg11.dtd">
<svg xmlns:xlink="http://www.w3.org/1999/xlink" width="246.458216pt" height="245.727536pt" viewBox="0 0 246.458216 245.727536" xmlns="http://www.w3.org/2000/svg" version="1.1">
 <metadata>
  <rdf:RDF xmlns:dc="http://purl.org/dc/elements/1.1/" xmlns:cc="http://creativecommons.org/ns#" xmlns:rdf="http://www.w3.org/1999/02/22-rdf-syntax-ns#">
   <cc:Work>
    <dc:type rdf:resource="http://purl.org/dc/dcmitype/StillImage"/>
    <dc:date>2025-04-24T00:18:51.485972</dc:date>
    <dc:format>image/svg+xml</dc:format>
    <dc:creator>
     <cc:Agent>
      <dc:title>Matplotlib v3.10.0, https://matplotlib.org/</dc:title>
     </cc:Agent>
    </dc:creator>
   </cc:Work>
  </rdf:RDF>
 </metadata>
 <defs>
  <style type="text/css">*{stroke-linejoin: round; stroke-linecap: butt}</style>
 </defs>
 <g id="figure_1">
  <g id="patch_1">
   <path d="M 0 245.727536 
L 246.458216 245.727536 
L 246.458216 0 
L 0 0 
L 0 245.727536 
z
" style="fill: none"/>
  </g>
  <g id="axes_1">
   <g id="patch_2">
    <path d="M 41.149114 212.936142 
L 236.668799 212.936142 
L 236.668799 18.677874 
L 41.149114 18.677874 
L 41.149114 212.936142 
z
" style="fill: none"/>
   </g>
   <g id="PathCollection_1">
    <defs>
     <path id="C0_0_8e08c09881" d="M 0 1.936492 
C 0.513564 1.936492 1.006162 1.732451 1.369306 1.369306 
C 1.732451 1.006162 1.936492 0.513564 1.936492 -0 
C 1.936492 -0.513564 1.732451 -1.006162 1.369306 -1.369306 
C 1.006162 -1.732451 0.513564 -1.936492 0 -1.936492 
C -0.513564 -1.936492 -1.006162 -1.732451 -1.369306 -1.369306 
C -1.732451 -1.006162 -1.936492 -0.513564 -1.936492 0 
C -1.936492 0.513564 -1.732451 1.006162 -1.369306 1.369306 
C -1.006162 1.732451 -0.513564 1.936492 0 1.936492 
z
"/>
    </defs>
    <g clip-path="url(#p98674059cd)">
     <use xlink:href="#C0_0_8e08c09881" x="158.614284" y="105.51925" style="fill: #cb334d"/>
    </g>
    <g clip-path="url(#p98674059cd)">
     <use xlink:href="#C0_0_8e08c09881" x="107.396286" y="131.510325" style="fill: #cb334d"/>
    </g>
    <g clip-path="url(#p98674059cd)">
     <use xlink:href="#C0_0_8e08c09881" x="66.413046" y="170.9865" style="fill: #cb334d"/>
    </g>
    <g clip-path="url(#p98674059cd)">
     <use xlink:href="#C0_0_8e08c09881" x="166.335111" y="121.203159" style="fill: #cb334d"/>
    </g>
    <g clip-path="url(#p98674059cd)">
     <use xlink:href="#C0_0_8e08c09881" x="50.036372" y="115.890134" style="fill: #cb334d"/>
    </g>
    <g clip-path="url(#p98674059cd)">
     <use xlink:href="#C0_0_8e08c09881" x="162.111686" y="103.810054" style="fill: #cb334d"/>
    </g>
    <g clip-path="url(#p98674059cd)">
     <use xlink:href="#C0_0_8e08c09881" x="227.78154" y="35.751117" style="fill: #cb334d"/>
    </g>
    <g clip-path="url(#p98674059cd)">
     <use xlink:href="#C0_0_8e08c09881" x="172.266008" y="91.132539" style="fill: #cb334d"/>
    </g>
   </g>
   <g id="matplotlib.axis_1">
    <g id="xtick_1">
     <g id="line2d_1">
      <defs>
       <path id="m8470c70f2f" d="M 0 0 
L 0 3.5 
" style="stroke: #000000; stroke-width: 0.5"/>
      </defs>
      <g>
       <use xlink:href="#m8470c70f2f" x="44.984645" y="212.936142" style="stroke: #000000; stroke-width: 0.5"/>
      </g>
     </g>
     <g id="text_1">
      <text style="font-size: 8.102px; font-family: 'Arial', sans-serif; text-anchor: middle" x="44.984645" y="225.735401" transform="rotate(-0 44.984645 225.735401)">10</text>
     </g>
    </g>
    <g id="xtick_2">
     <g id="line2d_2">
      <g>
       <use xlink:href="#m8470c70f2f" x="76.612662" y="212.936142" style="stroke: #000000; stroke-width: 0.5"/>
      </g>
     </g>
     <g id="text_2">
      <text style="font-size: 8.102px; font-family: 'Arial', sans-serif; text-anchor: middle" x="76.612662" y="225.735401" transform="rotate(-0 76.612662 225.735401)">12</text>
     </g>
    </g>
    <g id="xtick_3">
     <g id="line2d_3">
      <g>
       <use xlink:href="#m8470c70f2f" x="108.240678" y="212.936142" style="stroke: #000000; stroke-width: 0.5"/>
      </g>
     </g>
     <g id="text_3">
      <text style="font-size: 8.102px; font-family: 'Arial', sans-serif; text-anchor: middle" x="108.240678" y="225.735401" transform="rotate(-0 108.240678 225.735401)">14</text>
     </g>
    </g>
    <g id="xtick_4">
     <g id="line2d_4">
      <g>
       <use xlink:href="#m8470c70f2f" x="139.868695" y="212.936142" style="stroke: #000000; stroke-width: 0.5"/>
      </g>
     </g>
     <g id="text_4">
      <text style="font-size: 8.102px; font-family: 'Arial', sans-serif; text-anchor: middle" x="139.868695" y="225.735401" transform="rotate(-0 139.868695 225.735401)">16</text>
     </g>
    </g>
    <g id="xtick_5">
     <g id="line2d_5">
      <g>
       <use xlink:href="#m8470c70f2f" x="171.496711" y="212.936142" style="stroke: #000000; stroke-width: 0.5"/>
      </g>
     </g>
     <g id="text_5">
      <text style="font-size: 8.102px; font-family: 'Arial', sans-serif; text-anchor: middle" x="171.496711" y="225.735401" transform="rotate(-0 171.496711 225.735401)">18</text>
     </g>
    </g>
    <g id="xtick_6">
     <g id="line2d_6">
      <g>
       <use xlink:href="#m8470c70f2f" x="203.124728" y="212.936142" style="stroke: #000000; stroke-width: 0.5"/>
      </g>
     </g>
     <g id="text_6">
      <text style="font-size: 8.102px; font-family: 'Arial', sans-serif; text-anchor: middle" x="203.124728" y="225.735401" transform="rotate(-0 203.124728 225.735401)">20</text>
     </g>
    </g>
    <g id="xtick_7">
     <g id="line2d_7">
      <g>
       <use xlink:href="#m8470c70f2f" x="234.752744" y="212.936142" style="stroke: #000000; stroke-width: 0.5"/>
      </g>
     </g>
     <g id="text_7">
      <text style="font-size: 8.102px; font-family: 'Arial', sans-serif; text-anchor: middle" x="234.752744" y="225.735401" transform="rotate(-0 234.752744 225.735401)">22</text>
     </g>
    </g>
    <g id="text_8">
     <text style="font-size: 7.653px; font-family: 'Arial', sans-serif; text-anchor: middle" x="138.908956" y="236.916819" transform="rotate(-0 138.908956 236.916819)">log2(Proteomics)</text>
    </g>
   </g>
   <g id="matplotlib.axis_2">
    <g id="ytick_1">
     <g id="line2d_8">
      <defs>
       <path id="m5e92a4f3c0" d="M 0 0 
L -3.5 0 
" style="stroke: #000000; stroke-width: 0.5"/>
      </defs>
      <g>
       <use xlink:href="#m5e92a4f3c0" x="41.149114" y="212.936142" style="stroke: #000000; stroke-width: 0.5"/>
      </g>
     </g>
     <g id="text_9">
      <text style="font-size: 8.102px; font-family: 'Arial', sans-serif; text-anchor: end" x="34.149114" y="215.835771" transform="rotate(-0 34.149114 215.835771)">0.0</text>
     </g>
    </g>
    <g id="ytick_2">
     <g id="line2d_9">
      <g>
       <use xlink:href="#m5e92a4f3c0" x="41.149114" y="188.653858" style="stroke: #000000; stroke-width: 0.5"/>
      </g>
     </g>
     <g id="text_10">
      <text style="font-size: 8.102px; font-family: 'Arial', sans-serif; text-anchor: end" x="34.149114" y="191.553488" transform="rotate(-0 34.149114 191.553488)">2.5</text>
     </g>
    </g>
    <g id="ytick_3">
     <g id="line2d_10">
      <g>
       <use xlink:href="#m5e92a4f3c0" x="41.149114" y="164.371575" style="stroke: #000000; stroke-width: 0.5"/>
      </g>
     </g>
     <g id="text_11">
      <text style="font-size: 8.102px; font-family: 'Arial', sans-serif; text-anchor: end" x="34.149114" y="167.271205" transform="rotate(-0 34.149114 167.271205)">5.0</text>
     </g>
    </g>
    <g id="ytick_4">
     <g id="line2d_11">
      <g>
       <use xlink:href="#m5e92a4f3c0" x="41.149114" y="140.089291" style="stroke: #000000; stroke-width: 0.5"/>
      </g>
     </g>
     <g id="text_12">
      <text style="font-size: 8.102px; font-family: 'Arial', sans-serif; text-anchor: end" x="34.149114" y="142.988921" transform="rotate(-0 34.149114 142.988921)">7.5</text>
     </g>
    </g>
    <g id="ytick_5">
     <g id="line2d_12">
      <g>
       <use xlink:href="#m5e92a4f3c0" x="41.149114" y="115.807008" style="stroke: #000000; stroke-width: 0.5"/>
      </g>
     </g>
     <g id="text_13">
      <text style="font-size: 8.102px; font-family: 'Arial', sans-serif; text-anchor: end" x="34.149114" y="118.706638" transform="rotate(-0 34.149114 118.706638)">10.0</text>
     </g>
    </g>
    <g id="ytick_6">
     <g id="line2d_13">
      <g>
       <use xlink:href="#m5e92a4f3c0" x="41.149114" y="91.524724" style="stroke: #000000; stroke-width: 0.5"/>
      </g>
     </g>
     <g id="text_14">
      <text style="font-size: 8.102px; font-family: 'Arial', sans-serif; text-anchor: end" x="34.149114" y="94.424354" transform="rotate(-0 34.149114 94.424354)">12.5</text>
     </g>
    </g>
    <g id="ytick_7">
     <g id="line2d_14">
      <g>
       <use xlink:href="#m5e92a4f3c0" x="41.149114" y="67.242441" style="stroke: #000000; stroke-width: 0.5"/>
      </g>
     </g>
     <g id="text_15">
      <text style="font-size: 8.102px; font-family: 'Arial', sans-serif; text-anchor: end" x="34.149114" y="70.142071" transform="rotate(-0 34.149114 70.142071)">15.0</text>
     </g>
    </g>
    <g id="ytick_8">
     <g id="line2d_15">
      <g>
       <use xlink:href="#m5e92a4f3c0" x="41.149114" y="42.960157" style="stroke: #000000; stroke-width: 0.5"/>
      </g>
     </g>
     <g id="text_16">
      <text style="font-size: 8.102px; font-family: 'Arial', sans-serif; text-anchor: end" x="34.149114" y="45.859787" transform="rotate(-0 34.149114 45.859787)">17.5</text>
     </g>
    </g>
    <g id="ytick_9">
     <g id="line2d_16">
      <g>
       <use xlink:href="#m5e92a4f3c0" x="41.149114" y="18.677874" style="stroke: #000000; stroke-width: 0.5"/>
      </g>
     </g>
     <g id="text_17">
      <text style="font-size: 8.102px; font-family: 'Arial', sans-serif; text-anchor: end" x="34.149114" y="21.577504" transform="rotate(-0 34.149114 21.577504)">20.0</text>
     </g>
    </g>
    <g id="text_18">
     <text style="font-size: 7.653px; font-family: 'Arial', sans-serif; text-anchor: middle" x="12.771145" y="115.807008" transform="rotate(-90 12.771145 115.807008)">log2(Transcriptomics)</text>
    </g>
   </g>
   <g id="line2d_17">
    <path d="M 50.036372 155.168743 
L 51.831778 154.245232 
L 53.627184 153.321722 
L 55.422589 152.398212 
L 57.217995 151.474701 
L 59.013401 150.551191 
L 60.808807 149.627681 
L 62.604212 148.704171 
L 64.399618 147.78066 
L 66.195024 146.85715 
L 67.99043 145.93364 
L 69.785835 145.010129 
L 71.581241 144.086619 
L 73.376647 143.163109 
L 75.172053 142.239598 
L 76.967458 141.316088 
L 78.762864 140.392578 
L 80.55827 139.469067 
L 82.353675 138.545557 
L 84.149081 137.622047 
L 85.944487 136.698536 
L 87.739893 135.775026 
L 89.535298 134.851516 
L 91.330704 133.928006 
L 93.12611 133.004495 
L 94.921516 132.080985 
L 96.716921 131.157475 
L 98.512327 130.233964 
L 100.307733 129.310454 
L 102.103139 128.386944 
L 103.898544 127.463433 
L 105.69395 126.539923 
L 107.489356 125.616413 
L 109.284762 124.692902 
L 111.080167 123.769392 
L 112.875573 122.845882 
L 114.670979 121.922371 
L 116.466385 120.998861 
L 118.26179 120.075351 
L 120.057196 119.15184 
L 121.852602 118.22833 
L 123.648007 117.30482 
L 125.443413 116.38131 
L 127.238819 115.457799 
L 129.034225 114.534289 
L 130.82963 113.610779 
L 132.625036 112.687268 
L 134.420442 111.763758 
L 136.215848 110.840248 
L 138.011253 109.916737 
L 139.806659 108.993227 
L 141.602065 108.069717 
L 143.397471 107.146206 
L 145.192876 106.222696 
L 146.988282 105.299186 
L 148.783688 104.375675 
L 150.579094 103.452165 
L 152.374499 102.528655 
L 154.169905 101.605145 
L 155.965311 100.681634 
L 157.760717 99.758124 
L 159.556122 98.834614 
L 161.351528 97.911103 
L 163.146934 96.987593 
L 164.942339 96.064083 
L 166.737745 95.140572 
L 168.533151 94.217062 
L 170.328557 93.293552 
L 172.123962 92.370041 
L 173.919368 91.446531 
L 175.714774 90.523021 
L 177.51018 89.59951 
L 179.305585 88.676 
L 181.100991 87.75249 
L 182.896397 86.828979 
L 184.691803 85.905469 
L 186.487208 84.981959 
L 188.282614 84.058449 
L 190.07802 83.134938 
L 191.873426 82.211428 
L 193.668831 81.287918 
L 195.464237 80.364407 
L 197.259643 79.440897 
L 199.055049 78.517387 
L 200.850454 77.593876 
L 202.64586 76.670366 
L 204.441266 75.746856 
L 206.236672 74.823345 
L 208.032077 73.899835 
L 209.827483 72.976325 
L 211.622889 72.052814 
L 213.418294 71.129304 
L 215.2137 70.205794 
L 217.009106 69.282284 
L 218.804512 68.358773 
L 220.599917 67.435263 
L 222.395323 66.511753 
L 224.190729 65.588242 
L 225.986135 64.664732 
L 227.78154 63.741222 
" clip-path="url(#p98674059cd)" style="fill: none; stroke-dasharray: 4.625,2; stroke-dashoffset: 0; stroke: #ff0000; stroke-width: 1.25"/>
   </g>
   <g id="patch_3">
    <path d="M 41.149114 212.936142 
L 41.149114 18.677874 
" style="fill: none; stroke: #000000; stroke-width: 0.5; stroke-linejoin: miter; stroke-linecap: square"/>
   </g>
   <g id="patch_4">
    <path d="M 41.149114 212.936142 
L 236.668799 212.936142 
" style="fill: none; stroke: #000000; stroke-width: 0.5; stroke-linejoin: miter; stroke-linecap: square"/>
   </g>
   <g id="text_19">
    <text style="font-size: 8.102px; font-family: 'Arial', sans-serif" transform="translate(50.925098 39.152285)">y = 0.84x + -2.69</text>
    <text style="font-size: 8.102px; font-family: 'Arial', sans-serif" transform="translate(50.925098 47.816614)">R2 = 0.64</text>
   </g>
   <g id="text_20">
    <text style="font-size: 8px; font-family: 'Arial', sans-serif; text-anchor: middle" x="191.3608" y="112.788797" transform="rotate(-0 191.3608 112.788797)">GCG</text>
   </g>
   <g id="text_21">
    <text style="font-size: 8px; font-family: 'Arial', sans-serif; text-anchor: middle" x="122.217939" y="127.902072" transform="rotate(-0 122.217939 127.902072)">TTR</text>
   </g>
   <g id="text_22">
    <text style="font-size: 8px; font-family: 'Arial', sans-serif; text-anchor: middle" x="95.11029" y="166.11683" transform="rotate(-0 95.11029 166.11683)">SLC2A2</text>
   </g>
   <g id="text_23">
    <text style="font-size: 8px; font-family: 'Arial', sans-serif; text-anchor: middle" x="181.866312" y="129.578371" transform="rotate(-0 181.866312 129.578371)">INS2</text>
   </g>
   <g id="text_24">
    <text style="font-size: 8px; font-family: 'Arial', sans-serif; text-anchor: middle" x="74.397494" y="112.281881" transform="rotate(-0 74.397494 112.281881)">GLP1R</text>
   </g>
   <g id="text_25">
    <text style="font-size: 8px; font-family: 'Arial', sans-serif; text-anchor: middle" x="189.543385" y="96.23462" transform="rotate(-0 189.543385 96.23462)">SCG5</text>
   </g>
   <g id="text_26">
    <text style="font-size: 8px; font-family: 'Arial', sans-serif; text-anchor: middle" x="223.108563" y="29.62003" transform="rotate(-0 223.108563 29.62003)">SST</text>
   </g>
   <g id="text_27">
    <text style="font-size: 8px; font-family: 'Arial', sans-serif; text-anchor: middle" x="194.498488" y="76.802238" transform="rotate(-0 194.498488 76.802238)">RBP4</text>
   </g>
   <g id="patch_5">
    <path d="M 189.382098 110.406377 
Q 174.984098 108.119414 160.586099 105.832451 
" style="fill: none; stroke: #000000; stroke-width: 0.2; stroke-linecap: round"/>
   </g>
   <g id="patch_6">
    <path d="M 120.34714 126.550423 
Q 114.806033 128.672549 109.264927 130.794675 
" style="fill: none; stroke: #000000; stroke-width: 0.2; stroke-linecap: round"/>
   </g>
   <g id="patch_7">
    <path d="M 93.166079 164.518733 
Q 80.761123 167.517734 68.356168 170.516734 
" style="fill: none; stroke: #000000; stroke-width: 0.2; stroke-linecap: round"/>
   </g>
   <g id="patch_8">
    <path d="M 72.449675 110.667617 
Q 62.215671 113.052239 51.981667 115.436861 
" style="fill: none; stroke: #000000; stroke-width: 0.2; stroke-linecap: round"/>
   </g>
   <g id="patch_9">
    <path d="M 187.658125 94.829254 
Q 175.82824 98.988027 163.998355 103.146799 
" style="fill: none; stroke: #000000; stroke-width: 0.2; stroke-linecap: round"/>
   </g>
   <g id="patch_10">
    <path d="M 224.101114 29.293437 
Q 225.446231 31.65358 226.791348 34.013724 
" style="fill: none; stroke: #000000; stroke-width: 0.2; stroke-linecap: round"/>
   </g>
   <g id="patch_11">
    <path d="M 192.88913 75.921158 
Q 183.381901 82.933582 173.874671 89.946006 
" style="fill: none; stroke: #000000; stroke-width: 0.2; stroke-linecap: round"/>
   </g>
   <g id="text_28">
    <text style="font-size: 7.653px; font-family: 'Arial', sans-serif; text-anchor: middle" x="138.908956" y="12.677874" transform="rotate(-0 138.908956 12.677874)">Delta Control</text>
   </g>
  </g>
 </g>
 <defs>
  <clipPath id="p98674059cd">
   <rect x="41.149114" y="18.677874" width="195.519685" height="194.258268"/>
  </clipPath>
 </defs>
</svg>
