<?xml version="1.0" encoding="utf-8" standalone="no"?>
<!DOCTYPE svg PUBLIC "-//W3C//DTD SVG 1.1//EN"
  "http://www.w3.org/Graphics/SVG/1.1/DTD/svg11.dtd">
<svg xmlns:xlink="http://www.w3.org/1999/xlink" width="243.868799pt" height="245.820807pt" viewBox="0 0 243.868799 245.820807" xmlns="http://www.w3.org/2000/svg" version="1.1">
 <metadata>
  <rdf:RDF xmlns:dc="http://purl.org/dc/elements/1.1/" xmlns:cc="http://creativecommons.org/ns#" xmlns:rdf="http://www.w3.org/1999/02/22-rdf-syntax-ns#">
   <cc:Work>
    <dc:type rdf:resource="http://purl.org/dc/dcmitype/StillImage"/>
    <dc:date>2025-04-24T00:18:49.139031</dc:date>
    <dc:format>image/svg+xml</dc:format>
    <dc:creator>
     <cc:Agent>
      <dc:title>Matplotlib v3.10.0, https://matplotlib.org/</dc:title>
     </cc:Agent>
    </dc:creator>
   </cc:Work>
  </rdf:RDF>
 </metadata>
 <defs>
  <style type="text/css">*{stroke-linejoin: round; stroke-linecap: butt}</style>
 </defs>
 <g id="figure_1">
  <g id="patch_1">
   <path d="M 0 245.820807 
L 243.868799 245.820807 
L 243.868799 0 
L 0 0 
L 0 245.820807 
z
" style="fill: none"/>
  </g>
  <g id="axes_1">
   <g id="patch_2">
    <path d="M 41.149114 213.029413 
L 236.668799 213.029413 
L 236.668799 18.771145 
L 41.149114 18.771145 
L 41.149114 213.029413 
z
" style="fill: none"/>
   </g>
   <g id="PathCollection_1">
    <defs>
     <path id="C0_0_a6444b3477" d="M 0 1.936492 
C 0.513564 1.936492 1.006162 1.732451 1.369306 1.369306 
C 1.732451 1.006162 1.936492 0.513564 1.936492 -0 
C 1.936492 -0.513564 1.732451 -1.006162 1.369306 -1.369306 
C 1.006162 -1.732451 0.513564 -1.936492 0 -1.936492 
C -0.513564 -1.936492 -1.006162 -1.732451 -1.369306 -1.369306 
C -1.732451 -1.006162 -1.936492 -0.513564 -1.936492 0 
C -1.936492 0.513564 -1.732451 1.006162 -1.369306 1.369306 
C -1.006162 1.732451 -0.513564 1.936492 0 1.936492 
z
"/>
    </defs>
    <g clip-path="url(#p6a3a02d746)">
     <use xlink:href="#C0_0_a6444b3477" x="101.626928" y="150.842198" style="fill: #cb334d"/>
    </g>
    <g clip-path="url(#p6a3a02d746)">
     <use xlink:href="#C0_0_a6444b3477" x="227.78154" y="23.280782" style="fill: #cb334d"/>
    </g>
    <g clip-path="url(#p6a3a02d746)">
     <use xlink:href="#C0_0_a6444b3477" x="210.97034" y="68.041425" style="fill: #cb334d"/>
    </g>
    <g clip-path="url(#p6a3a02d746)">
     <use xlink:href="#C0_0_a6444b3477" x="81.759998" y="138.493825" style="fill: #cb334d"/>
    </g>
    <g clip-path="url(#p6a3a02d746)">
     <use xlink:href="#C0_0_a6444b3477" x="89.189441" y="158.329278" style="fill: #cb334d"/>
    </g>
    <g clip-path="url(#p6a3a02d746)">
     <use xlink:href="#C0_0_a6444b3477" x="101.626928" y="150.842198" style="fill: #cb334d"/>
    </g>
    <g clip-path="url(#p6a3a02d746)">
     <use xlink:href="#C0_0_a6444b3477" x="197.920837" y="79.949555" style="fill: #cb334d"/>
    </g>
    <g clip-path="url(#p6a3a02d746)">
     <use xlink:href="#C0_0_a6444b3477" x="78.921723" y="128.101866" style="fill: #cb334d"/>
    </g>
    <g clip-path="url(#p6a3a02d746)">
     <use xlink:href="#C0_0_a6444b3477" x="50.036372" y="161.828185" style="fill: #cb334d"/>
    </g>
    <g clip-path="url(#p6a3a02d746)">
     <use xlink:href="#C0_0_a6444b3477" x="70.951678" y="130.892332" style="fill: #cb334d"/>
    </g>
    <g clip-path="url(#p6a3a02d746)">
     <use xlink:href="#C0_0_a6444b3477" x="93.229674" y="89.549435" style="fill: #cb334d"/>
    </g>
    <g clip-path="url(#p6a3a02d746)">
     <use xlink:href="#C0_0_a6444b3477" x="168.551751" y="97.179427" style="fill: #cb334d"/>
    </g>
    <g clip-path="url(#p6a3a02d746)">
     <use xlink:href="#C0_0_a6444b3477" x="108.943255" y="145.004394" style="fill: #cb334d"/>
    </g>
    <g clip-path="url(#p6a3a02d746)">
     <use xlink:href="#C0_0_a6444b3477" x="135.131883" y="120.779792" style="fill: #cb334d"/>
    </g>
   </g>
   <g id="matplotlib.axis_1">
    <g id="xtick_1">
     <g id="line2d_1">
      <defs>
       <path id="m996df98940" d="M 0 0 
L 0 3.5 
" style="stroke: #000000; stroke-width: 0.5"/>
      </defs>
      <g>
       <use xlink:href="#m996df98940" x="43.983171" y="213.029413" style="stroke: #000000; stroke-width: 0.5"/>
      </g>
     </g>
     <g id="text_1">
      <text style="font-size: 8.102px; font-family: 'Arial', sans-serif; text-anchor: middle" x="43.983171" y="225.828672" transform="rotate(-0 43.983171 225.828672)">8</text>
     </g>
    </g>
    <g id="xtick_2">
     <g id="line2d_2">
      <g>
       <use xlink:href="#m996df98940" x="70.268845" y="213.029413" style="stroke: #000000; stroke-width: 0.5"/>
      </g>
     </g>
     <g id="text_2">
      <text style="font-size: 8.102px; font-family: 'Arial', sans-serif; text-anchor: middle" x="70.268845" y="225.828672" transform="rotate(-0 70.268845 225.828672)">10</text>
     </g>
    </g>
    <g id="xtick_3">
     <g id="line2d_3">
      <g>
       <use xlink:href="#m996df98940" x="96.554519" y="213.029413" style="stroke: #000000; stroke-width: 0.5"/>
      </g>
     </g>
     <g id="text_3">
      <text style="font-size: 8.102px; font-family: 'Arial', sans-serif; text-anchor: middle" x="96.554519" y="225.828672" transform="rotate(-0 96.554519 225.828672)">12</text>
     </g>
    </g>
    <g id="xtick_4">
     <g id="line2d_4">
      <g>
       <use xlink:href="#m996df98940" x="122.840193" y="213.029413" style="stroke: #000000; stroke-width: 0.5"/>
      </g>
     </g>
     <g id="text_4">
      <text style="font-size: 8.102px; font-family: 'Arial', sans-serif; text-anchor: middle" x="122.840193" y="225.828672" transform="rotate(-0 122.840193 225.828672)">14</text>
     </g>
    </g>
    <g id="xtick_5">
     <g id="line2d_5">
      <g>
       <use xlink:href="#m996df98940" x="149.125867" y="213.029413" style="stroke: #000000; stroke-width: 0.5"/>
      </g>
     </g>
     <g id="text_5">
      <text style="font-size: 8.102px; font-family: 'Arial', sans-serif; text-anchor: middle" x="149.125867" y="225.828672" transform="rotate(-0 149.125867 225.828672)">16</text>
     </g>
    </g>
    <g id="xtick_6">
     <g id="line2d_6">
      <g>
       <use xlink:href="#m996df98940" x="175.411542" y="213.029413" style="stroke: #000000; stroke-width: 0.5"/>
      </g>
     </g>
     <g id="text_6">
      <text style="font-size: 8.102px; font-family: 'Arial', sans-serif; text-anchor: middle" x="175.411542" y="225.828672" transform="rotate(-0 175.411542 225.828672)">18</text>
     </g>
    </g>
    <g id="xtick_7">
     <g id="line2d_7">
      <g>
       <use xlink:href="#m996df98940" x="201.697216" y="213.029413" style="stroke: #000000; stroke-width: 0.5"/>
      </g>
     </g>
     <g id="text_7">
      <text style="font-size: 8.102px; font-family: 'Arial', sans-serif; text-anchor: middle" x="201.697216" y="225.828672" transform="rotate(-0 201.697216 225.828672)">20</text>
     </g>
    </g>
    <g id="xtick_8">
     <g id="line2d_8">
      <g>
       <use xlink:href="#m996df98940" x="227.98289" y="213.029413" style="stroke: #000000; stroke-width: 0.5"/>
      </g>
     </g>
     <g id="text_8">
      <text style="font-size: 8.102px; font-family: 'Arial', sans-serif; text-anchor: middle" x="227.98289" y="225.828672" transform="rotate(-0 227.98289 225.828672)">22</text>
     </g>
    </g>
    <g id="text_9">
     <text style="font-size: 7.653px; font-family: 'Arial', sans-serif; text-anchor: middle" x="138.908956" y="237.01009" transform="rotate(-0 138.908956 237.01009)">log2(Proteomics)</text>
    </g>
   </g>
   <g id="matplotlib.axis_2">
    <g id="ytick_1">
     <g id="line2d_9">
      <defs>
       <path id="m3ad002e033" d="M 0 0 
L -3.5 0 
" style="stroke: #000000; stroke-width: 0.5"/>
      </defs>
      <g>
       <use xlink:href="#m3ad002e033" x="41.149114" y="213.029413" style="stroke: #000000; stroke-width: 0.5"/>
      </g>
     </g>
     <g id="text_10">
      <text style="font-size: 8.102px; font-family: 'Arial', sans-serif; text-anchor: end" x="34.149114" y="215.929042" transform="rotate(-0 34.149114 215.929042)">0.0</text>
     </g>
    </g>
    <g id="ytick_2">
     <g id="line2d_10">
      <g>
       <use xlink:href="#m3ad002e033" x="41.149114" y="188.747129" style="stroke: #000000; stroke-width: 0.5"/>
      </g>
     </g>
     <g id="text_11">
      <text style="font-size: 8.102px; font-family: 'Arial', sans-serif; text-anchor: end" x="34.149114" y="191.646759" transform="rotate(-0 34.149114 191.646759)">2.5</text>
     </g>
    </g>
    <g id="ytick_3">
     <g id="line2d_11">
      <g>
       <use xlink:href="#m3ad002e033" x="41.149114" y="164.464846" style="stroke: #000000; stroke-width: 0.5"/>
      </g>
     </g>
     <g id="text_12">
      <text style="font-size: 8.102px; font-family: 'Arial', sans-serif; text-anchor: end" x="34.149114" y="167.364475" transform="rotate(-0 34.149114 167.364475)">5.0</text>
     </g>
    </g>
    <g id="ytick_4">
     <g id="line2d_12">
      <g>
       <use xlink:href="#m3ad002e033" x="41.149114" y="140.182562" style="stroke: #000000; stroke-width: 0.5"/>
      </g>
     </g>
     <g id="text_13">
      <text style="font-size: 8.102px; font-family: 'Arial', sans-serif; text-anchor: end" x="34.149114" y="143.082192" transform="rotate(-0 34.149114 143.082192)">7.5</text>
     </g>
    </g>
    <g id="ytick_5">
     <g id="line2d_13">
      <g>
       <use xlink:href="#m3ad002e033" x="41.149114" y="115.900279" style="stroke: #000000; stroke-width: 0.5"/>
      </g>
     </g>
     <g id="text_14">
      <text style="font-size: 8.102px; font-family: 'Arial', sans-serif; text-anchor: end" x="34.149114" y="118.799909" transform="rotate(-0 34.149114 118.799909)">10.0</text>
     </g>
    </g>
    <g id="ytick_6">
     <g id="line2d_14">
      <g>
       <use xlink:href="#m3ad002e033" x="41.149114" y="91.617995" style="stroke: #000000; stroke-width: 0.5"/>
      </g>
     </g>
     <g id="text_15">
      <text style="font-size: 8.102px; font-family: 'Arial', sans-serif; text-anchor: end" x="34.149114" y="94.517625" transform="rotate(-0 34.149114 94.517625)">12.5</text>
     </g>
    </g>
    <g id="ytick_7">
     <g id="line2d_15">
      <g>
       <use xlink:href="#m3ad002e033" x="41.149114" y="67.335712" style="stroke: #000000; stroke-width: 0.5"/>
      </g>
     </g>
     <g id="text_16">
      <text style="font-size: 8.102px; font-family: 'Arial', sans-serif; text-anchor: end" x="34.149114" y="70.235342" transform="rotate(-0 34.149114 70.235342)">15.0</text>
     </g>
    </g>
    <g id="ytick_8">
     <g id="line2d_16">
      <g>
       <use xlink:href="#m3ad002e033" x="41.149114" y="43.053428" style="stroke: #000000; stroke-width: 0.5"/>
      </g>
     </g>
     <g id="text_17">
      <text style="font-size: 8.102px; font-family: 'Arial', sans-serif; text-anchor: end" x="34.149114" y="45.953058" transform="rotate(-0 34.149114 45.953058)">17.5</text>
     </g>
    </g>
    <g id="ytick_9">
     <g id="line2d_17">
      <g>
       <use xlink:href="#m3ad002e033" x="41.149114" y="18.771145" style="stroke: #000000; stroke-width: 0.5"/>
      </g>
     </g>
     <g id="text_18">
      <text style="font-size: 8.102px; font-family: 'Arial', sans-serif; text-anchor: end" x="34.149114" y="21.670775" transform="rotate(-0 34.149114 21.670775)">20.0</text>
     </g>
    </g>
    <g id="text_19">
     <text style="font-size: 7.653px; font-family: 'Arial', sans-serif; text-anchor: middle" x="12.771145" y="115.900279" transform="rotate(-90 12.771145 115.900279)">log2(Transcriptomics)</text>
    </g>
   </g>
   <g id="line2d_18">
    <path d="M 50.036372 162.189483 
L 51.831778 161.080686 
L 53.627184 159.971889 
L 55.422589 158.863092 
L 57.217995 157.754294 
L 59.013401 156.645497 
L 60.808807 155.5367 
L 62.604212 154.427903 
L 64.399618 153.319106 
L 66.195024 152.210309 
L 67.99043 151.101512 
L 69.785835 149.992715 
L 71.581241 148.883918 
L 73.376647 147.775121 
L 75.172053 146.666324 
L 76.967458 145.557527 
L 78.762864 144.44873 
L 80.55827 143.339933 
L 82.353675 142.231135 
L 84.149081 141.122338 
L 85.944487 140.013541 
L 87.739893 138.904744 
L 89.535298 137.795947 
L 91.330704 136.68715 
L 93.12611 135.578353 
L 94.921516 134.469556 
L 96.716921 133.360759 
L 98.512327 132.251962 
L 100.307733 131.143165 
L 102.103139 130.034368 
L 103.898544 128.925571 
L 105.69395 127.816774 
L 107.489356 126.707976 
L 109.284762 125.599179 
L 111.080167 124.490382 
L 112.875573 123.381585 
L 114.670979 122.272788 
L 116.466385 121.163991 
L 118.26179 120.055194 
L 120.057196 118.946397 
L 121.852602 117.8376 
L 123.648007 116.728803 
L 125.443413 115.620006 
L 127.238819 114.511209 
L 129.034225 113.402412 
L 130.82963 112.293615 
L 132.625036 111.184817 
L 134.420442 110.07602 
L 136.215848 108.967223 
L 138.011253 107.858426 
L 139.806659 106.749629 
L 141.602065 105.640832 
L 143.397471 104.532035 
L 145.192876 103.423238 
L 146.988282 102.314441 
L 148.783688 101.205644 
L 150.579094 100.096847 
L 152.374499 98.98805 
L 154.169905 97.879253 
L 155.965311 96.770456 
L 157.760717 95.661659 
L 159.556122 94.552861 
L 161.351528 93.444064 
L 163.146934 92.335267 
L 164.942339 91.22647 
L 166.737745 90.117673 
L 168.533151 89.008876 
L 170.328557 87.900079 
L 172.123962 86.791282 
L 173.919368 85.682485 
L 175.714774 84.573688 
L 177.51018 83.464891 
L 179.305585 82.356094 
L 181.100991 81.247297 
L 182.896397 80.1385 
L 184.691803 79.029702 
L 186.487208 77.920905 
L 188.282614 76.812108 
L 190.07802 75.703311 
L 191.873426 74.594514 
L 193.668831 73.485717 
L 195.464237 72.37692 
L 197.259643 71.268123 
L 199.055049 70.159326 
L 200.850454 69.050529 
L 202.64586 67.941732 
L 204.441266 66.832935 
L 206.236672 65.724138 
L 208.032077 64.615341 
L 209.827483 63.506543 
L 211.622889 62.397746 
L 213.418294 61.288949 
L 215.2137 60.180152 
L 217.009106 59.071355 
L 218.804512 57.962558 
L 220.599917 56.853761 
L 222.395323 55.744964 
L 224.190729 54.636167 
L 225.986135 53.52737 
L 227.78154 52.418573 
" clip-path="url(#p6a3a02d746)" style="fill: none; stroke-dasharray: 4.625,2; stroke-dashoffset: 0; stroke: #ff0000; stroke-width: 1.25"/>
   </g>
   <g id="patch_3">
    <path d="M 41.149114 213.029413 
L 41.149114 18.771145 
" style="fill: none; stroke: #000000; stroke-width: 0.5; stroke-linejoin: miter; stroke-linecap: square"/>
   </g>
   <g id="patch_4">
    <path d="M 41.149114 213.029413 
L 236.668799 213.029413 
" style="fill: none; stroke: #000000; stroke-width: 0.5; stroke-linejoin: miter; stroke-linecap: square"/>
   </g>
   <g id="text_20">
    <text style="font-size: 8.102px; font-family: 'Arial', sans-serif" transform="translate(50.925098 39.245556)">y = 0.84x + -1.84</text>
    <text style="font-size: 8.102px; font-family: 'Arial', sans-serif" transform="translate(50.925098 47.909885)">R2 = 0.74</text>
   </g>
   <g id="text_21">
    <text style="font-size: 8px; font-family: 'Arial', sans-serif; text-anchor: middle" x="116.650359" y="159.535029" transform="rotate(-0 116.650359 159.535029)">MAFA</text>
   </g>
   <g id="text_22">
    <text style="font-size: 8px; font-family: 'Arial', sans-serif; text-anchor: middle" x="215.540059" y="32.192026" transform="rotate(-0 215.540059 32.192026)">GCG</text>
   </g>
   <g id="text_23">
    <text style="font-size: 8px; font-family: 'Arial', sans-serif; text-anchor: middle" x="223.108563" y="57.495377" transform="rotate(-0 223.108563 57.495377)">TTR</text>
   </g>
   <g id="text_24">
    <text style="font-size: 8px; font-family: 'Arial', sans-serif; text-anchor: middle" x="107.366483" y="124.107899" transform="rotate(-0 107.366483 124.107899)">POU3F4</text>
   </g>
   <g id="text_25">
    <text style="font-size: 8px; font-family: 'Arial', sans-serif; text-anchor: middle" x="120.409519" y="175.534411" transform="rotate(-0 120.409519 175.534411)">SLC2A2</text>
   </g>
   <g id="text_26">
    <text style="font-size: 8px; font-family: 'Arial', sans-serif; text-anchor: middle" x="163.967519" y="155.885537" transform="rotate(-0 163.967519 155.885537)">MAFA</text>
   </g>
   <g id="text_27">
    <text style="font-size: 8px; font-family: 'Arial', sans-serif; text-anchor: middle" x="218.497707" y="78.233428" transform="rotate(-0 218.497707 78.233428)">INS2</text>
   </g>
   <g id="text_28">
    <text style="font-size: 8px; font-family: 'Arial', sans-serif; text-anchor: middle" x="115.975857" y="107.464479" transform="rotate(-0 115.975857 107.464479)">NKX6-1</text>
   </g>
   <g id="text_29">
    <text style="font-size: 8px; font-family: 'Arial', sans-serif; text-anchor: middle" x="70.297888" y="168.941979" transform="rotate(-0 70.297888 168.941979)">UCN3</text>
   </g>
   <g id="text_30">
    <text style="font-size: 8px; font-family: 'Arial', sans-serif; text-anchor: middle" x="65.510236" y="121.607701" transform="rotate(-0 65.510236 121.607701)">GLP1R</text>
   </g>
   <g id="text_31">
    <text style="font-size: 8px; font-family: 'Arial', sans-serif; text-anchor: middle" x="121.300201" y="81.526221" transform="rotate(-0 121.300201 81.526221)">RESP18</text>
   </g>
   <g id="text_32">
    <text style="font-size: 8px; font-family: 'Arial', sans-serif; text-anchor: middle" x="191.493778" y="100.508969" transform="rotate(-0 191.493778 100.508969)">SCG5</text>
   </g>
   <g id="text_33">
    <text style="font-size: 8px; font-family: 'Arial', sans-serif; text-anchor: middle" x="127.959408" y="139.300532" transform="rotate(-0 127.959408 139.300532)">SST</text>
   </g>
   <g id="text_34">
    <text style="font-size: 8px; font-family: 'Arial', sans-serif; text-anchor: middle" x="165.280527" y="117.802248" transform="rotate(-0 165.280527 117.802248)">RBP4</text>
   </g>
   <g id="patch_5">
    <path d="M 114.820112 156.659842 
Q 109.139892 154.155102 103.459673 151.650362 
" style="fill: none; stroke: #000000; stroke-width: 0.2; stroke-linecap: round"/>
   </g>
   <g id="patch_6">
    <path d="M 217.288415 29.146551 
Q 221.662685 26.701287 226.036956 24.256023 
" style="fill: none; stroke: #000000; stroke-width: 0.2; stroke-linecap: round"/>
   </g>
   <g id="patch_7">
    <path d="M 221.724639 56.86544 
Q 217.041951 61.731741 212.359262 66.598042 
" style="fill: none; stroke: #000000; stroke-width: 0.2; stroke-linecap: round"/>
   </g>
   <g id="patch_8">
    <path d="M 105.681681 123.122383 
Q 94.563297 130.266763 83.444912 137.411144 
" style="fill: none; stroke: #000000; stroke-width: 0.2; stroke-linecap: round"/>
   </g>
   <g id="patch_9">
    <path d="M 118.606895 172.592286 
Q 104.797713 165.896925 90.988531 159.201564 
" style="fill: none; stroke: #000000; stroke-width: 0.2; stroke-linecap: round"/>
   </g>
   <g id="patch_10">
    <path d="M 161.969911 153.722075 
Q 132.798366 152.329859 103.626821 150.937643 
" style="fill: none; stroke: #000000; stroke-width: 0.2; stroke-linecap: round"/>
   </g>
   <g id="patch_11">
    <path d="M 216.530948 76.527006 
Q 208.209557 78.057377 199.888165 79.587747 
" style="fill: none; stroke: #000000; stroke-width: 0.2; stroke-linecap: round"/>
   </g>
   <g id="patch_12">
    <path d="M 114.268345 106.442659 
Q 97.448281 116.749422 80.628216 127.056185 
" style="fill: none; stroke: #000000; stroke-width: 0.2; stroke-linecap: round"/>
   </g>
   <g id="patch_13">
    <path d="M 68.356324 166.390352 
Q 60.164676 164.350408 51.973027 162.310465 
" style="fill: none; stroke: #000000; stroke-width: 0.2; stroke-linecap: round"/>
   </g>
   <g id="patch_14">
    <path d="M 66.375074 121.343933 
Q 68.231526 125.217142 70.087978 129.090352 
" style="fill: none; stroke: #000000; stroke-width: 0.2; stroke-linecap: round"/>
   </g>
   <g id="patch_15">
    <path d="M 119.41901 80.134383 
Q 107.265841 84.503441 95.112672 88.872498 
" style="fill: none; stroke: #000000; stroke-width: 0.2; stroke-linecap: round"/>
   </g>
   <g id="patch_16">
    <path d="M 189.496993 98.331055 
Q 180.022799 97.810137 170.548605 97.289219 
" style="fill: none; stroke: #000000; stroke-width: 0.2; stroke-linecap: round"/>
   </g>
   <g id="patch_17">
    <path d="M 126.109325 137.988544 
Q 118.450391 141.118785 110.791457 144.249026 
" style="fill: none; stroke: #000000; stroke-width: 0.2; stroke-linecap: round"/>
   </g>
   <g id="patch_18">
    <path d="M 163.311591 116.063644 
Q 150.20727 118.256779 137.102949 120.449915 
" style="fill: none; stroke: #000000; stroke-width: 0.2; stroke-linecap: round"/>
   </g>
   <g id="text_35">
    <text style="font-size: 7.653px; font-family: 'Arial', sans-serif; text-anchor: middle" x="138.908956" y="12.771145" transform="rotate(-0 138.908956 12.771145)">Alpha Control</text>
   </g>
  </g>
 </g>
 <defs>
  <clipPath id="p6a3a02d746">
   <rect x="41.149114" y="18.771145" width="195.519685" height="194.258268"/>
  </clipPath>
 </defs>
</svg>
