<?xml version="1.0" encoding="utf-8" standalone="no"?>
<!DOCTYPE svg PUBLIC "-//W3C//DTD SVG 1.1//EN"
  "http://www.w3.org/Graphics/SVG/1.1/DTD/svg11.dtd">
<svg xmlns:xlink="http://www.w3.org/1999/xlink" width="243.995935pt" height="246.305768pt" viewBox="0 0 243.995935 246.305768" xmlns="http://www.w3.org/2000/svg" version="1.1">
 <metadata>
  <rdf:RDF xmlns:dc="http://purl.org/dc/elements/1.1/" xmlns:cc="http://creativecommons.org/ns#" xmlns:rdf="http://www.w3.org/1999/02/22-rdf-syntax-ns#">
   <cc:Work>
    <dc:type rdf:resource="http://purl.org/dc/dcmitype/StillImage"/>
    <dc:date>2025-04-25T14:25:31.183037</dc:date>
    <dc:format>image/svg+xml</dc:format>
    <dc:creator>
     <cc:Agent>
      <dc:title>Matplotlib v3.10.0, https://matplotlib.org/</dc:title>
     </cc:Agent>
    </dc:creator>
   </cc:Work>
  </rdf:RDF>
 </metadata>
 <defs>
  <style type="text/css">*{stroke-linejoin: round; stroke-linecap: butt}</style>
 </defs>
 <g id="figure_1">
  <g id="patch_1">
   <path d="M 0 246.305768 
L 243.995935 246.305768 
L 243.995935 -0 
L 0 -0 
L 0 246.305768 
z
" style="fill: none"/>
  </g>
  <g id="axes_1">
   <g id="patch_2">
    <path d="M 41.27625 213.282018 
L 236.795935 213.282018 
L 236.795935 19.02375 
L 41.27625 19.02375 
L 41.27625 213.282018 
z
" style="fill: none"/>
   </g>
   <g id="PathCollection_1">
    <defs>
     <path id="C0_0_254591540a" d="M 0 1.936492 
C 0.513564 1.936492 1.006162 1.732451 1.369306 1.369306 
C 1.732451 1.006162 1.936492 0.513564 1.936492 -0 
C 1.936492 -0.513564 1.732451 -1.006162 1.369306 -1.369306 
C 1.006162 -1.732451 0.513564 -1.936492 0 -1.936492 
C -0.513564 -1.936492 -1.006162 -1.732451 -1.369306 -1.369306 
C -1.732451 -1.006162 -1.936492 -0.513564 -1.936492 0 
C -1.936492 0.513564 -1.732451 1.006162 -1.369306 1.369306 
C -1.006162 1.732451 -0.513564 1.936492 0 1.936492 
z
"/>
    </defs>
    <g clip-path="url(#p1b7b60a65e)">
     <use xlink:href="#C0_0_254591540a" x="101.754064" y="151.094803" style="fill: #ff0000"/>
    </g>
    <g clip-path="url(#p1b7b60a65e)">
     <use xlink:href="#C0_0_254591540a" x="227.908677" y="23.533387" style="fill: #ff0000"/>
    </g>
    <g clip-path="url(#p1b7b60a65e)">
     <use xlink:href="#C0_0_254591540a" x="211.097476" y="68.29403" style="fill: #ff0000"/>
    </g>
    <g clip-path="url(#p1b7b60a65e)">
     <use xlink:href="#C0_0_254591540a" x="81.887135" y="138.74643" style="fill: #ff0000"/>
    </g>
    <g clip-path="url(#p1b7b60a65e)">
     <use xlink:href="#C0_0_254591540a" x="89.316577" y="158.581883" style="fill: #ff0000"/>
    </g>
    <g clip-path="url(#p1b7b60a65e)">
     <use xlink:href="#C0_0_254591540a" x="101.754064" y="151.094803" style="fill: #ff0000"/>
    </g>
    <g clip-path="url(#p1b7b60a65e)">
     <use xlink:href="#C0_0_254591540a" x="198.047973" y="80.20216" style="fill: #ff0000"/>
    </g>
    <g clip-path="url(#p1b7b60a65e)">
     <use xlink:href="#C0_0_254591540a" x="79.048859" y="128.354471" style="fill: #ff0000"/>
    </g>
    <g clip-path="url(#p1b7b60a65e)">
     <use xlink:href="#C0_0_254591540a" x="50.163508" y="162.08079" style="fill: #ff0000"/>
    </g>
    <g clip-path="url(#p1b7b60a65e)">
     <use xlink:href="#C0_0_254591540a" x="71.078814" y="131.144937" style="fill: #ff0000"/>
    </g>
    <g clip-path="url(#p1b7b60a65e)">
     <use xlink:href="#C0_0_254591540a" x="93.35681" y="89.80204" style="fill: #ff0000"/>
    </g>
    <g clip-path="url(#p1b7b60a65e)">
     <use xlink:href="#C0_0_254591540a" x="168.678887" y="97.432032" style="fill: #ff0000"/>
    </g>
    <g clip-path="url(#p1b7b60a65e)">
     <use xlink:href="#C0_0_254591540a" x="109.070391" y="145.256999" style="fill: #ff0000"/>
    </g>
    <g clip-path="url(#p1b7b60a65e)">
     <use xlink:href="#C0_0_254591540a" x="135.25902" y="121.032398" style="fill: #ff0000"/>
    </g>
   </g>
   <g id="matplotlib.axis_1">
    <g id="xtick_1">
     <g id="line2d_1">
      <defs>
       <path id="m4094d39036" d="M 0 0 
L 0 3.5 
" style="stroke: #000000; stroke-width: 0.8"/>
      </defs>
      <g>
       <use xlink:href="#m4094d39036" x="44.110307" y="213.282018" style="stroke: #000000; stroke-width: 0.8"/>
      </g>
     </g>
     <g id="text_1">
      <text style="font-size: 8px; font-family: 'Arial'; text-anchor: middle" x="44.110307" y="226.008268" transform="rotate(-0 44.110307 226.008268)">8</text>
     </g>
    </g>
    <g id="xtick_2">
     <g id="line2d_2">
      <g>
       <use xlink:href="#m4094d39036" x="70.395981" y="213.282018" style="stroke: #000000; stroke-width: 0.8"/>
      </g>
     </g>
     <g id="text_2">
      <text style="font-size: 8px; font-family: 'Arial'; text-anchor: middle" x="70.395981" y="226.008268" transform="rotate(-0 70.395981 226.008268)">10</text>
     </g>
    </g>
    <g id="xtick_3">
     <g id="line2d_3">
      <g>
       <use xlink:href="#m4094d39036" x="96.681655" y="213.282018" style="stroke: #000000; stroke-width: 0.8"/>
      </g>
     </g>
     <g id="text_3">
      <text style="font-size: 8px; font-family: 'Arial'; text-anchor: middle" x="96.681655" y="226.008268" transform="rotate(-0 96.681655 226.008268)">12</text>
     </g>
    </g>
    <g id="xtick_4">
     <g id="line2d_4">
      <g>
       <use xlink:href="#m4094d39036" x="122.967329" y="213.282018" style="stroke: #000000; stroke-width: 0.8"/>
      </g>
     </g>
     <g id="text_4">
      <text style="font-size: 8px; font-family: 'Arial'; text-anchor: middle" x="122.967329" y="226.008268" transform="rotate(-0 122.967329 226.008268)">14</text>
     </g>
    </g>
    <g id="xtick_5">
     <g id="line2d_5">
      <g>
       <use xlink:href="#m4094d39036" x="149.253004" y="213.282018" style="stroke: #000000; stroke-width: 0.8"/>
      </g>
     </g>
     <g id="text_5">
      <text style="font-size: 8px; font-family: 'Arial'; text-anchor: middle" x="149.253004" y="226.008268" transform="rotate(-0 149.253004 226.008268)">16</text>
     </g>
    </g>
    <g id="xtick_6">
     <g id="line2d_6">
      <g>
       <use xlink:href="#m4094d39036" x="175.538678" y="213.282018" style="stroke: #000000; stroke-width: 0.8"/>
      </g>
     </g>
     <g id="text_6">
      <text style="font-size: 8px; font-family: 'Arial'; text-anchor: middle" x="175.538678" y="226.008268" transform="rotate(-0 175.538678 226.008268)">18</text>
     </g>
    </g>
    <g id="xtick_7">
     <g id="line2d_7">
      <g>
       <use xlink:href="#m4094d39036" x="201.824352" y="213.282018" style="stroke: #000000; stroke-width: 0.8"/>
      </g>
     </g>
     <g id="text_7">
      <text style="font-size: 8px; font-family: 'Arial'; text-anchor: middle" x="201.824352" y="226.008268" transform="rotate(-0 201.824352 226.008268)">20</text>
     </g>
    </g>
    <g id="xtick_8">
     <g id="line2d_8">
      <g>
       <use xlink:href="#m4094d39036" x="228.110026" y="213.282018" style="stroke: #000000; stroke-width: 0.8"/>
      </g>
     </g>
     <g id="text_8">
      <text style="font-size: 8px; font-family: 'Arial'; text-anchor: middle" x="228.110026" y="226.008268" transform="rotate(-0 228.110026 226.008268)">22</text>
     </g>
    </g>
    <g id="text_9">
     <text style="font-size: 8px; font-family: 'Arial'; text-anchor: middle" x="139.036093" y="237.422018" transform="rotate(-0 139.036093 237.422018)">log2(Proteomics)</text>
    </g>
   </g>
   <g id="matplotlib.axis_2">
    <g id="ytick_1">
     <g id="line2d_9">
      <defs>
       <path id="md418ea39c6" d="M 0 0 
L -3.5 0 
" style="stroke: #000000; stroke-width: 0.8"/>
      </defs>
      <g>
       <use xlink:href="#md418ea39c6" x="41.27625" y="213.282018" style="stroke: #000000; stroke-width: 0.8"/>
      </g>
     </g>
     <g id="text_10">
      <text style="font-size: 8px; font-family: 'Arial'; text-anchor: end" x="34.27625" y="216.145143" transform="rotate(-0 34.27625 216.145143)">0.0</text>
     </g>
    </g>
    <g id="ytick_2">
     <g id="line2d_10">
      <g>
       <use xlink:href="#md418ea39c6" x="41.27625" y="188.999734" style="stroke: #000000; stroke-width: 0.8"/>
      </g>
     </g>
     <g id="text_11">
      <text style="font-size: 8px; font-family: 'Arial'; text-anchor: end" x="34.27625" y="191.862859" transform="rotate(-0 34.27625 191.862859)">2.5</text>
     </g>
    </g>
    <g id="ytick_3">
     <g id="line2d_11">
      <g>
       <use xlink:href="#md418ea39c6" x="41.27625" y="164.717451" style="stroke: #000000; stroke-width: 0.8"/>
      </g>
     </g>
     <g id="text_12">
      <text style="font-size: 8px; font-family: 'Arial'; text-anchor: end" x="34.27625" y="167.580576" transform="rotate(-0 34.27625 167.580576)">5.0</text>
     </g>
    </g>
    <g id="ytick_4">
     <g id="line2d_12">
      <g>
       <use xlink:href="#md418ea39c6" x="41.27625" y="140.435167" style="stroke: #000000; stroke-width: 0.8"/>
      </g>
     </g>
     <g id="text_13">
      <text style="font-size: 8px; font-family: 'Arial'; text-anchor: end" x="34.27625" y="143.298292" transform="rotate(-0 34.27625 143.298292)">7.5</text>
     </g>
    </g>
    <g id="ytick_5">
     <g id="line2d_13">
      <g>
       <use xlink:href="#md418ea39c6" x="41.27625" y="116.152884" style="stroke: #000000; stroke-width: 0.8"/>
      </g>
     </g>
     <g id="text_14">
      <text style="font-size: 8px; font-family: 'Arial'; text-anchor: end" x="34.27625" y="119.016009" transform="rotate(-0 34.27625 119.016009)">10.0</text>
     </g>
    </g>
    <g id="ytick_6">
     <g id="line2d_14">
      <g>
       <use xlink:href="#md418ea39c6" x="41.27625" y="91.8706" style="stroke: #000000; stroke-width: 0.8"/>
      </g>
     </g>
     <g id="text_15">
      <text style="font-size: 8px; font-family: 'Arial'; text-anchor: end" x="34.27625" y="94.733725" transform="rotate(-0 34.27625 94.733725)">12.5</text>
     </g>
    </g>
    <g id="ytick_7">
     <g id="line2d_15">
      <g>
       <use xlink:href="#md418ea39c6" x="41.27625" y="67.588317" style="stroke: #000000; stroke-width: 0.8"/>
      </g>
     </g>
     <g id="text_16">
      <text style="font-size: 8px; font-family: 'Arial'; text-anchor: end" x="34.27625" y="70.451442" transform="rotate(-0 34.27625 70.451442)">15.0</text>
     </g>
    </g>
    <g id="ytick_8">
     <g id="line2d_16">
      <g>
       <use xlink:href="#md418ea39c6" x="41.27625" y="43.306033" style="stroke: #000000; stroke-width: 0.8"/>
      </g>
     </g>
     <g id="text_17">
      <text style="font-size: 8px; font-family: 'Arial'; text-anchor: end" x="34.27625" y="46.169158" transform="rotate(-0 34.27625 46.169158)">17.5</text>
     </g>
    </g>
    <g id="ytick_9">
     <g id="line2d_17">
      <g>
       <use xlink:href="#md418ea39c6" x="41.27625" y="19.02375" style="stroke: #000000; stroke-width: 0.8"/>
      </g>
     </g>
     <g id="text_18">
      <text style="font-size: 8px; font-family: 'Arial'; text-anchor: end" x="34.27625" y="21.886875" transform="rotate(-0 34.27625 21.886875)">20.0</text>
     </g>
    </g>
    <g id="text_19">
     <text style="font-size: 8px; font-family: 'Arial'; text-anchor: middle" x="13.02375" y="116.152884" transform="rotate(-90 13.02375 116.152884)">log2(Transcriptomics)</text>
    </g>
   </g>
   <g id="line2d_18">
    <path d="M 50.163508 162.442088 
L 51.958914 161.333291 
L 53.75432 160.224494 
L 55.549726 159.115697 
L 57.345131 158.0069 
L 59.140537 156.898103 
L 60.935943 155.789306 
L 62.731349 154.680508 
L 64.526754 153.571711 
L 66.32216 152.462914 
L 68.117566 151.354117 
L 69.912972 150.24532 
L 71.708377 149.136523 
L 73.503783 148.027726 
L 75.299189 146.918929 
L 77.094595 145.810132 
L 78.89 144.701335 
L 80.685406 143.592538 
L 82.480812 142.483741 
L 84.276217 141.374944 
L 86.071623 140.266147 
L 87.867029 139.157349 
L 89.662435 138.048552 
L 91.45784 136.939755 
L 93.253246 135.830958 
L 95.048652 134.722161 
L 96.844058 133.613364 
L 98.639463 132.504567 
L 100.434869 131.39577 
L 102.230275 130.286973 
L 104.025681 129.178176 
L 105.821086 128.069379 
L 107.616492 126.960582 
L 109.411898 125.851785 
L 111.207304 124.742988 
L 113.002709 123.63419 
L 114.798115 122.525393 
L 116.593521 121.416596 
L 118.388927 120.307799 
L 120.184332 119.199002 
L 121.979738 118.090205 
L 123.775144 116.981408 
L 125.570549 115.872611 
L 127.365955 114.763814 
L 129.161361 113.655017 
L 130.956767 112.54622 
L 132.752172 111.437423 
L 134.547578 110.328626 
L 136.342984 109.219829 
L 138.13839 108.111031 
L 139.933795 107.002234 
L 141.729201 105.893437 
L 143.524607 104.78464 
L 145.320013 103.675843 
L 147.115418 102.567046 
L 148.910824 101.458249 
L 150.70623 100.349452 
L 152.501636 99.240655 
L 154.297041 98.131858 
L 156.092447 97.023061 
L 157.887853 95.914264 
L 159.683259 94.805467 
L 161.478664 93.69667 
L 163.27407 92.587872 
L 165.069476 91.479075 
L 166.864881 90.370278 
L 168.660287 89.261481 
L 170.455693 88.152684 
L 172.251099 87.043887 
L 174.046504 85.93509 
L 175.84191 84.826293 
L 177.637316 83.717496 
L 179.432722 82.608699 
L 181.228127 81.499902 
L 183.023533 80.391105 
L 184.818939 79.282308 
L 186.614345 78.173511 
L 188.40975 77.064713 
L 190.205156 75.955916 
L 192.000562 74.847119 
L 193.795968 73.738322 
L 195.591373 72.629525 
L 197.386779 71.520728 
L 199.182185 70.411931 
L 200.977591 69.303134 
L 202.772996 68.194337 
L 204.568402 67.08554 
L 206.363808 65.976743 
L 208.159213 64.867946 
L 209.954619 63.759149 
L 211.750025 62.650352 
L 213.545431 61.541554 
L 215.340836 60.432757 
L 217.136242 59.32396 
L 218.931648 58.215163 
L 220.727054 57.106366 
L 222.522459 55.997569 
L 224.317865 54.888772 
L 226.113271 53.779975 
L 227.908677 52.671178 
" clip-path="url(#p1b7b60a65e)" style="fill: none; stroke-dasharray: 3.7,1.6; stroke-dashoffset: 0; stroke: #ff0000"/>
   </g>
   <g id="patch_3">
    <path d="M 41.27625 213.282018 
L 41.27625 19.02375 
" style="fill: none; stroke: #000000; stroke-width: 0.5; stroke-linejoin: miter; stroke-linecap: square"/>
   </g>
   <g id="patch_4">
    <path d="M 41.27625 213.282018 
L 236.795935 213.282018 
" style="fill: none; stroke: #000000; stroke-width: 0.5; stroke-linejoin: miter; stroke-linecap: square"/>
   </g>
   <g id="text_20">
    <text style="font-size: 8px; font-family: 'Arial'" transform="translate(51.052234 39.60724)">y = 0.84x + -1.84</text>
    <text style="font-size: 8px; font-family: 'Arial'" transform="translate(51.052234 48.16249)">R2 = 0.74</text>
   </g>
   <g id="text_21">
    <text style="font-size: 8px; font-family: 'Arial'; text-anchor: middle" x="158.315803" y="158.819363" transform="rotate(-0 158.315803 158.819363)">MAFA</text>
   </g>
   <g id="text_22">
    <text style="font-size: 8px; font-family: 'Arial'; text-anchor: middle" x="215.667195" y="32.444631" transform="rotate(-0 215.667195 32.444631)">GCG</text>
   </g>
   <g id="text_23">
    <text style="font-size: 8px; font-family: 'Arial'; text-anchor: middle" x="223.235699" y="57.747982" transform="rotate(-0 223.235699 57.747982)">TTR</text>
   </g>
   <g id="text_24">
    <text style="font-size: 8px; font-family: 'Arial'; text-anchor: middle" x="120.51804" y="130.723216" transform="rotate(-0 120.51804 130.723216)">POU3F4</text>
   </g>
   <g id="text_25">
    <text style="font-size: 8px; font-family: 'Arial'; text-anchor: middle" x="126.843742" y="184.616937" transform="rotate(-0 126.843742 184.616937)">SLC2A2</text>
   </g>
   <g id="text_26">
    <text style="font-size: 8px; font-family: 'Arial'; text-anchor: middle" x="110.212626" y="167.49995" transform="rotate(-0 110.212626 167.49995)">MAFA</text>
   </g>
   <g id="text_27">
    <text style="font-size: 8px; font-family: 'Arial'; text-anchor: middle" x="221.264734" y="78.486033" transform="rotate(-0 221.264734 78.486033)">INS2</text>
   </g>
   <g id="text_28">
    <text style="font-size: 8px; font-family: 'Arial'; text-anchor: middle" x="117.36441" y="110.239919" transform="rotate(-0 117.36441 110.239919)">NKX6-1</text>
   </g>
   <g id="text_29">
    <text style="font-size: 8px; font-family: 'Arial'; text-anchor: middle" x="65.379355" y="170.456002" transform="rotate(-0 65.379355 170.456002)">UCN3</text>
   </g>
   <g id="text_30">
    <text style="font-size: 8px; font-family: 'Arial'; text-anchor: middle" x="65.637372" y="121.860307" transform="rotate(-0 65.637372 121.860307)">GLP1R</text>
   </g>
   <g id="text_31">
    <text style="font-size: 8px; font-family: 'Arial'; text-anchor: middle" x="121.427337" y="81.778826" transform="rotate(-0 121.427337 81.778826)">RESP18</text>
   </g>
   <g id="text_32">
    <text style="font-size: 8px; font-family: 'Arial'; text-anchor: middle" x="200.450836" y="96.977322" transform="rotate(-0 200.450836 96.977322)">SCG5</text>
   </g>
   <g id="text_33">
    <text style="font-size: 8px; font-family: 'Arial'; text-anchor: middle" x="123.892044" y="150.850268" transform="rotate(-0 123.892044 150.850268)">SST</text>
   </g>
   <g id="text_34">
    <text style="font-size: 8px; font-family: 'Arial'; text-anchor: middle" x="165.407663" y="114.270601" transform="rotate(-0 165.407663 114.270601)">RBP4</text>
   </g>
   <g id="patch_5">
    <path d="M 156.323852 156.552034 
Q 130.033165 153.922844 103.742478 151.293654 
" style="fill: none; stroke: #000000; stroke-width: 0.2; stroke-linecap: round"/>
   </g>
   <g id="patch_6">
    <path d="M 217.415551 29.399156 
Q 221.789822 26.953892 226.164092 24.508628 
" style="fill: none; stroke: #000000; stroke-width: 0.2; stroke-linecap: round"/>
   </g>
   <g id="patch_7">
    <path d="M 221.851776 57.118045 
Q 217.169087 61.984346 212.486398 66.850647 
" style="fill: none; stroke: #000000; stroke-width: 0.2; stroke-linecap: round"/>
   </g>
   <g id="patch_8">
    <path d="M 118.579893 129.161383 
Q 101.203238 133.70059 83.826583 138.239798 
" style="fill: none; stroke: #000000; stroke-width: 0.2; stroke-linecap: round"/>
   </g>
   <g id="patch_9">
    <path d="M 125.160242 181.473636 
Q 108.081777 170.56638 91.003312 159.659125 
" style="fill: none; stroke: #000000; stroke-width: 0.2; stroke-linecap: round"/>
   </g>
   <g id="patch_10">
    <path d="M 109.194543 163.706202 
Q 105.982022 158.26107 102.769501 152.815939 
" style="fill: none; stroke: #000000; stroke-width: 0.2; stroke-linecap: round"/>
   </g>
   <g id="patch_11">
    <path d="M 219.289382 76.739884 
Q 209.655293 78.310207 200.021204 79.88053 
" style="fill: none; stroke: #000000; stroke-width: 0.2; stroke-linecap: round"/>
   </g>
   <g id="patch_12">
    <path d="M 115.594094 109.104306 
Q 98.205887 118.263526 80.817681 127.422746 
" style="fill: none; stroke: #000000; stroke-width: 0.2; stroke-linecap: round"/>
   </g>
   <g id="patch_13">
    <path d="M 63.533096 167.622588 
Q 57.773663 165.235258 52.01423 162.847929 
" style="fill: none; stroke: #000000; stroke-width: 0.2; stroke-linecap: round"/>
   </g>
   <g id="patch_14">
    <path d="M 66.502211 121.596538 
Q 68.358663 125.469747 70.215114 129.342957 
" style="fill: none; stroke: #000000; stroke-width: 0.2; stroke-linecap: round"/>
   </g>
   <g id="patch_15">
    <path d="M 119.546146 80.386988 
Q 107.392977 84.756046 95.239808 89.125103 
" style="fill: none; stroke: #000000; stroke-width: 0.2; stroke-linecap: round"/>
   </g>
   <g id="patch_16">
    <path d="M 198.453454 95.067798 
Q 184.563865 96.170694 170.674277 97.273589 
" style="fill: none; stroke: #000000; stroke-width: 0.2; stroke-linecap: round"/>
   </g>
   <g id="patch_17">
    <path d="M 121.948874 148.319984 
Q 116.48275 147.019936 111.016626 145.719887 
" style="fill: none; stroke: #000000; stroke-width: 0.2; stroke-linecap: round"/>
   </g>
   <g id="patch_18">
    <path d="M 163.49025 112.764047 
Q 150.3344 116.617127 137.17855 120.470206 
" style="fill: none; stroke: #000000; stroke-width: 0.2; stroke-linecap: round"/>
   </g>
   <g id="text_35">
    <text style="font-size: 8px; font-family: 'Arial'; text-anchor: middle" x="139.036093" y="13.02375" transform="rotate(-0 139.036093 13.02375)">Alpha Control</text>
   </g>
  </g>
 </g>
 <defs>
  <clipPath id="p1b7b60a65e">
   <rect x="41.27625" y="19.02375" width="195.519685" height="194.258268"/>
  </clipPath>
 </defs>
</svg>
