<?xml version="1.0" encoding="utf-8" standalone="no"?>
<!DOCTYPE svg PUBLIC "-//W3C//DTD SVG 1.1//EN"
  "http://www.w3.org/Graphics/SVG/1.1/DTD/svg11.dtd">
<svg xmlns:xlink="http://www.w3.org/1999/xlink" width="243.995935pt" height="246.305768pt" viewBox="0 0 243.995935 246.305768" xmlns="http://www.w3.org/2000/svg" version="1.1">
 <metadata>
  <rdf:RDF xmlns:dc="http://purl.org/dc/elements/1.1/" xmlns:cc="http://creativecommons.org/ns#" xmlns:rdf="http://www.w3.org/1999/02/22-rdf-syntax-ns#">
   <cc:Work>
    <dc:type rdf:resource="http://purl.org/dc/dcmitype/StillImage"/>
    <dc:date>2025-05-01T11:56:59.922560</dc:date>
    <dc:format>image/svg+xml</dc:format>
    <dc:creator>
     <cc:Agent>
      <dc:title>Matplotlib v3.10.0, https://matplotlib.org/</dc:title>
     </cc:Agent>
    </dc:creator>
   </cc:Work>
  </rdf:RDF>
 </metadata>
 <defs>
  <style type="text/css">*{stroke-linejoin: round; stroke-linecap: butt}</style>
 </defs>
 <g id="figure_1">
  <g id="patch_1">
   <path d="M 0 246.305768 
L 243.995935 246.305768 
L 243.995935 -0 
L 0 -0 
L 0 246.305768 
z
" style="fill: none"/>
  </g>
  <g id="axes_1">
   <g id="patch_2">
    <path d="M 41.27625 213.282018 
L 236.795935 213.282018 
L 236.795935 19.02375 
L 41.27625 19.02375 
L 41.27625 213.282018 
z
" style="fill: none"/>
   </g>
   <g id="PathCollection_1">
    <defs>
     <path id="C0_0_e70a41cccc" d="M 0 1.936492 
C 0.513564 1.936492 1.006162 1.732451 1.369306 1.369306 
C 1.732451 1.006162 1.936492 0.513564 1.936492 -0 
C 1.936492 -0.513564 1.732451 -1.006162 1.369306 -1.369306 
C 1.006162 -1.732451 0.513564 -1.936492 0 -1.936492 
C -0.513564 -1.936492 -1.006162 -1.732451 -1.369306 -1.369306 
C -1.732451 -1.006162 -1.936492 -0.513564 -1.936492 0 
C -1.936492 0.513564 -1.732451 1.006162 -1.369306 1.369306 
C -1.006162 1.732451 -0.513564 1.936492 0 1.936492 
z
"/>
    </defs>
    <g clip-path="url(#p2edac3b1c3)">
     <use xlink:href="#C0_0_e70a41cccc" x="227.908677" y="23.377358" style="fill: #ff0000"/>
    </g>
    <g clip-path="url(#p2edac3b1c3)">
     <use xlink:href="#C0_0_e70a41cccc" x="205.322912" y="74.378509" style="fill: #ff0000"/>
    </g>
    <g clip-path="url(#p2edac3b1c3)">
     <use xlink:href="#C0_0_e70a41cccc" x="50.163508" y="142.849604" style="fill: #ff0000"/>
    </g>
    <g clip-path="url(#p2edac3b1c3)">
     <use xlink:href="#C0_0_e70a41cccc" x="61.029443" y="163.339168" style="fill: #ff0000"/>
    </g>
    <g clip-path="url(#p2edac3b1c3)">
     <use xlink:href="#C0_0_e70a41cccc" x="184.637918" y="81.148795" style="fill: #ff0000"/>
    </g>
    <g clip-path="url(#p2edac3b1c3)">
     <use xlink:href="#C0_0_e70a41cccc" x="53.282068" y="128.042206" style="fill: #ff0000"/>
    </g>
    <g clip-path="url(#p2edac3b1c3)">
     <use xlink:href="#C0_0_e70a41cccc" x="63.707392" y="136.592724" style="fill: #ff0000"/>
    </g>
    <g clip-path="url(#p2edac3b1c3)">
     <use xlink:href="#C0_0_e70a41cccc" x="78.273449" y="89.960919" style="fill: #ff0000"/>
    </g>
    <g clip-path="url(#p2edac3b1c3)">
     <use xlink:href="#C0_0_e70a41cccc" x="155.423751" y="95.064464" style="fill: #ff0000"/>
    </g>
    <g clip-path="url(#p2edac3b1c3)">
     <use xlink:href="#C0_0_e70a41cccc" x="84.979127" y="148.33368" style="fill: #ff0000"/>
    </g>
    <g clip-path="url(#p2edac3b1c3)">
     <use xlink:href="#C0_0_e70a41cccc" x="113.069853" y="123.795886" style="fill: #ff0000"/>
    </g>
   </g>
   <g id="matplotlib.axis_1">
    <g id="xtick_1">
     <g id="line2d_1">
      <defs>
       <path id="m3a614b445e" d="M 0 0 
L 0 3.5 
" style="stroke: #000000; stroke-width: 0.8"/>
      </defs>
      <g>
       <use xlink:href="#m3a614b445e" x="68.328998" y="213.282018" style="stroke: #000000; stroke-width: 0.8"/>
      </g>
     </g>
     <g id="text_1">
      <text style="font-size: 8px; font-family: 'Arial'; text-anchor: middle" x="68.328998" y="226.008268" transform="rotate(-0 68.328998 226.008268)">12</text>
     </g>
    </g>
    <g id="xtick_2">
     <g id="line2d_2">
      <g>
       <use xlink:href="#m3a614b445e" x="99.894308" y="213.282018" style="stroke: #000000; stroke-width: 0.8"/>
      </g>
     </g>
     <g id="text_2">
      <text style="font-size: 8px; font-family: 'Arial'; text-anchor: middle" x="99.894308" y="226.008268" transform="rotate(-0 99.894308 226.008268)">14</text>
     </g>
    </g>
    <g id="xtick_3">
     <g id="line2d_3">
      <g>
       <use xlink:href="#m3a614b445e" x="131.459617" y="213.282018" style="stroke: #000000; stroke-width: 0.8"/>
      </g>
     </g>
     <g id="text_3">
      <text style="font-size: 8px; font-family: 'Arial'; text-anchor: middle" x="131.459617" y="226.008268" transform="rotate(-0 131.459617 226.008268)">16</text>
     </g>
    </g>
    <g id="xtick_4">
     <g id="line2d_4">
      <g>
       <use xlink:href="#m3a614b445e" x="163.024927" y="213.282018" style="stroke: #000000; stroke-width: 0.8"/>
      </g>
     </g>
     <g id="text_4">
      <text style="font-size: 8px; font-family: 'Arial'; text-anchor: middle" x="163.024927" y="226.008268" transform="rotate(-0 163.024927 226.008268)">18</text>
     </g>
    </g>
    <g id="xtick_5">
     <g id="line2d_5">
      <g>
       <use xlink:href="#m3a614b445e" x="194.590236" y="213.282018" style="stroke: #000000; stroke-width: 0.8"/>
      </g>
     </g>
     <g id="text_5">
      <text style="font-size: 8px; font-family: 'Arial'; text-anchor: middle" x="194.590236" y="226.008268" transform="rotate(-0 194.590236 226.008268)">20</text>
     </g>
    </g>
    <g id="xtick_6">
     <g id="line2d_6">
      <g>
       <use xlink:href="#m3a614b445e" x="226.155545" y="213.282018" style="stroke: #000000; stroke-width: 0.8"/>
      </g>
     </g>
     <g id="text_6">
      <text style="font-size: 8px; font-family: 'Arial'; text-anchor: middle" x="226.155545" y="226.008268" transform="rotate(-0 226.155545 226.008268)">22</text>
     </g>
    </g>
    <g id="text_7">
     <text style="font-size: 8px; font-family: 'Arial'; text-anchor: middle" x="139.036093" y="237.422018" transform="rotate(-0 139.036093 237.422018)">log2(Proteomics)</text>
    </g>
   </g>
   <g id="matplotlib.axis_2">
    <g id="ytick_1">
     <g id="line2d_7">
      <defs>
       <path id="mbd0bf4bf12" d="M 0 0 
L -3.5 0 
" style="stroke: #000000; stroke-width: 0.8"/>
      </defs>
      <g>
       <use xlink:href="#mbd0bf4bf12" x="41.27625" y="213.282018" style="stroke: #000000; stroke-width: 0.8"/>
      </g>
     </g>
     <g id="text_8">
      <text style="font-size: 8px; font-family: 'Arial'; text-anchor: end" x="34.27625" y="216.145143" transform="rotate(-0 34.27625 216.145143)">0.0</text>
     </g>
    </g>
    <g id="ytick_2">
     <g id="line2d_8">
      <g>
       <use xlink:href="#mbd0bf4bf12" x="41.27625" y="188.999734" style="stroke: #000000; stroke-width: 0.8"/>
      </g>
     </g>
     <g id="text_9">
      <text style="font-size: 8px; font-family: 'Arial'; text-anchor: end" x="34.27625" y="191.862859" transform="rotate(-0 34.27625 191.862859)">2.5</text>
     </g>
    </g>
    <g id="ytick_3">
     <g id="line2d_9">
      <g>
       <use xlink:href="#mbd0bf4bf12" x="41.27625" y="164.717451" style="stroke: #000000; stroke-width: 0.8"/>
      </g>
     </g>
     <g id="text_10">
      <text style="font-size: 8px; font-family: 'Arial'; text-anchor: end" x="34.27625" y="167.580576" transform="rotate(-0 34.27625 167.580576)">5.0</text>
     </g>
    </g>
    <g id="ytick_4">
     <g id="line2d_10">
      <g>
       <use xlink:href="#mbd0bf4bf12" x="41.27625" y="140.435167" style="stroke: #000000; stroke-width: 0.8"/>
      </g>
     </g>
     <g id="text_11">
      <text style="font-size: 8px; font-family: 'Arial'; text-anchor: end" x="34.27625" y="143.298292" transform="rotate(-0 34.27625 143.298292)">7.5</text>
     </g>
    </g>
    <g id="ytick_5">
     <g id="line2d_11">
      <g>
       <use xlink:href="#mbd0bf4bf12" x="41.27625" y="116.152884" style="stroke: #000000; stroke-width: 0.8"/>
      </g>
     </g>
     <g id="text_12">
      <text style="font-size: 8px; font-family: 'Arial'; text-anchor: end" x="34.27625" y="119.016009" transform="rotate(-0 34.27625 119.016009)">10.0</text>
     </g>
    </g>
    <g id="ytick_6">
     <g id="line2d_12">
      <g>
       <use xlink:href="#mbd0bf4bf12" x="41.27625" y="91.8706" style="stroke: #000000; stroke-width: 0.8"/>
      </g>
     </g>
     <g id="text_13">
      <text style="font-size: 8px; font-family: 'Arial'; text-anchor: end" x="34.27625" y="94.733725" transform="rotate(-0 34.27625 94.733725)">12.5</text>
     </g>
    </g>
    <g id="ytick_7">
     <g id="line2d_13">
      <g>
       <use xlink:href="#mbd0bf4bf12" x="41.27625" y="67.588317" style="stroke: #000000; stroke-width: 0.8"/>
      </g>
     </g>
     <g id="text_14">
      <text style="font-size: 8px; font-family: 'Arial'; text-anchor: end" x="34.27625" y="70.451442" transform="rotate(-0 34.27625 70.451442)">15.0</text>
     </g>
    </g>
    <g id="ytick_8">
     <g id="line2d_14">
      <g>
       <use xlink:href="#mbd0bf4bf12" x="41.27625" y="43.306033" style="stroke: #000000; stroke-width: 0.8"/>
      </g>
     </g>
     <g id="text_15">
      <text style="font-size: 8px; font-family: 'Arial'; text-anchor: end" x="34.27625" y="46.169158" transform="rotate(-0 34.27625 46.169158)">17.5</text>
     </g>
    </g>
    <g id="ytick_9">
     <g id="line2d_15">
      <g>
       <use xlink:href="#mbd0bf4bf12" x="41.27625" y="19.02375" style="stroke: #000000; stroke-width: 0.8"/>
      </g>
     </g>
     <g id="text_16">
      <text style="font-size: 8px; font-family: 'Arial'; text-anchor: end" x="34.27625" y="21.886875" transform="rotate(-0 34.27625 21.886875)">20.0</text>
     </g>
    </g>
    <g id="text_17">
     <text style="font-size: 8px; font-family: 'Arial'; text-anchor: middle" x="13.02375" y="116.152884" transform="rotate(-90 13.02375 116.152884)">log2(Transcriptomics)</text>
    </g>
   </g>
   <g id="line2d_16">
    <path d="M 50.163508 145.684445 
L 51.958914 144.706009 
L 53.75432 143.727572 
L 55.549726 142.749136 
L 57.345131 141.7707 
L 59.140537 140.792263 
L 60.935943 139.813827 
L 62.731349 138.83539 
L 64.526754 137.856954 
L 66.32216 136.878518 
L 68.117566 135.900081 
L 69.912972 134.921645 
L 71.708377 133.943208 
L 73.503783 132.964772 
L 75.299189 131.986335 
L 77.094595 131.007899 
L 78.89 130.029463 
L 80.685406 129.051026 
L 82.480812 128.07259 
L 84.276217 127.094153 
L 86.071623 126.115717 
L 87.867029 125.13728 
L 89.662435 124.158844 
L 91.45784 123.180408 
L 93.253246 122.201971 
L 95.048652 121.223535 
L 96.844058 120.245098 
L 98.639463 119.266662 
L 100.434869 118.288226 
L 102.230275 117.309789 
L 104.025681 116.331353 
L 105.821086 115.352916 
L 107.616492 114.37448 
L 109.411898 113.396043 
L 111.207304 112.417607 
L 113.002709 111.439171 
L 114.798115 110.460734 
L 116.593521 109.482298 
L 118.388927 108.503861 
L 120.184332 107.525425 
L 121.979738 106.546989 
L 123.775144 105.568552 
L 125.570549 104.590116 
L 127.365955 103.611679 
L 129.161361 102.633243 
L 130.956767 101.654806 
L 132.752172 100.67637 
L 134.547578 99.697934 
L 136.342984 98.719497 
L 138.13839 97.741061 
L 139.933795 96.762624 
L 141.729201 95.784188 
L 143.524607 94.805752 
L 145.320013 93.827315 
L 147.115418 92.848879 
L 148.910824 91.870442 
L 150.70623 90.892006 
L 152.501636 89.913569 
L 154.297041 88.935133 
L 156.092447 87.956697 
L 157.887853 86.97826 
L 159.683259 85.999824 
L 161.478664 85.021387 
L 163.27407 84.042951 
L 165.069476 83.064515 
L 166.864881 82.086078 
L 168.660287 81.107642 
L 170.455693 80.129205 
L 172.251099 79.150769 
L 174.046504 78.172332 
L 175.84191 77.193896 
L 177.637316 76.21546 
L 179.432722 75.237023 
L 181.228127 74.258587 
L 183.023533 73.28015 
L 184.818939 72.301714 
L 186.614345 71.323277 
L 188.40975 70.344841 
L 190.205156 69.366405 
L 192.000562 68.387968 
L 193.795968 67.409532 
L 195.591373 66.431095 
L 197.386779 65.452659 
L 199.182185 64.474223 
L 200.977591 63.495786 
L 202.772996 62.51735 
L 204.568402 61.538913 
L 206.363808 60.560477 
L 208.159213 59.58204 
L 209.954619 58.603604 
L 211.750025 57.625168 
L 213.545431 56.646731 
L 215.340836 55.668295 
L 217.136242 54.689858 
L 218.931648 53.711422 
L 220.727054 52.732986 
L 222.522459 51.754549 
L 224.317865 50.776113 
L 226.113271 49.797676 
L 227.908677 48.81924 
" clip-path="url(#p2edac3b1c3)" style="fill: none; stroke-dasharray: 3.7,1.6; stroke-dashoffset: 0; stroke: #ff0000"/>
   </g>
   <g id="patch_3">
    <path d="M 41.27625 213.282018 
L 41.27625 19.02375 
" style="fill: none; stroke: #000000; stroke-width: 0.5; stroke-linejoin: miter; stroke-linecap: square"/>
   </g>
   <g id="patch_4">
    <path d="M 41.27625 213.282018 
L 236.795935 213.282018 
" style="fill: none; stroke: #000000; stroke-width: 0.5; stroke-linejoin: miter; stroke-linecap: square"/>
   </g>
   <g id="text_18">
    <text style="font-size: 8px; font-family: 'Arial'" transform="translate(51.052234 39.60724)">y = 0.89x + -2.65</text>
    <text style="font-size: 8px; font-family: 'Arial'" transform="translate(51.052234 48.16249)">R2 = 0.76</text>
   </g>
   <g id="text_19">
    <text style="font-size: 8px; font-family: 'Arial'; text-anchor: middle" x="214.405778" y="33.706048" transform="rotate(-0 214.405778 33.706048)">GCG</text>
   </g>
   <g id="text_20">
    <text style="font-size: 8px; font-family: 'Arial'; text-anchor: middle" x="223.235699" y="58.786791" transform="rotate(-0 223.235699 58.786791)">TTR</text>
   </g>
   <g id="text_21">
    <text style="font-size: 8px; font-family: 'Arial'; text-anchor: middle" x="68.5544" y="157.531902" transform="rotate(-0 68.5544 157.531902)">POU3F4</text>
   </g>
   <g id="text_22">
    <text style="font-size: 8px; font-family: 'Arial'; text-anchor: middle" x="130.092041" y="171.71438" transform="rotate(-0 130.092041 171.71438)">SLC2A2</text>
   </g>
   <g id="text_23">
    <text style="font-size: 8px; font-family: 'Arial'; text-anchor: middle" x="195.123449" y="79.432668" transform="rotate(-0 195.123449 79.432668)">INS2</text>
   </g>
   <g id="text_24">
    <text style="font-size: 8px; font-family: 'Arial'; text-anchor: middle" x="65.716211" y="112.450488" transform="rotate(-0 65.716211 112.450488)">NKX6-1</text>
   </g>
   <g id="text_25">
    <text style="font-size: 8px; font-family: 'Arial'; text-anchor: middle" x="88.068514" y="131.092345" transform="rotate(-0 88.068514 131.092345)">GLP1R</text>
   </g>
   <g id="text_26">
    <text style="font-size: 8px; font-family: 'Arial'; text-anchor: middle" x="106.418823" y="81.937705" transform="rotate(-0 106.418823 81.937705)">RESP18</text>
   </g>
   <g id="text_27">
    <text style="font-size: 8px; font-family: 'Arial'; text-anchor: middle" x="175.842944" y="102.178259" transform="rotate(-0 175.842944 102.178259)">SCG5</text>
   </g>
   <g id="text_28">
    <text style="font-size: 8px; font-family: 'Arial'; text-anchor: middle" x="112.414954" y="146.617553" transform="rotate(-0 112.414954 146.617553)">SST</text>
   </g>
   <g id="text_29">
    <text style="font-size: 8px; font-family: 'Arial'; text-anchor: middle" x="143.586511" y="123.341176" transform="rotate(-0 143.586511 123.341176)">RBP4</text>
   </g>
   <g id="patch_5">
    <path d="M 216.110123 30.595269 
Q 221.15533 27.508801 226.200536 24.422334 
" style="fill: none; stroke: #000000; stroke-width: 0.2; stroke-linecap: round"/>
   </g>
   <g id="patch_6">
    <path d="M 221.812209 58.122055 
Q 214.279104 65.548785 206.745999 72.975516 
" style="fill: none; stroke: #000000; stroke-width: 0.2; stroke-linecap: round"/>
   </g>
   <g id="patch_7">
    <path d="M 66.904338 154.332013 
Q 59.357477 149.155678 51.810616 143.979343 
" style="fill: none; stroke: #000000; stroke-width: 0.2; stroke-linecap: round"/>
   </g>
   <g id="patch_8">
    <path d="M 128.09823 169.464171 
Q 95.560617 166.4927 63.023004 163.521228 
" style="fill: none; stroke: #000000; stroke-width: 0.2; stroke-linecap: round"/>
   </g>
   <g id="patch_9">
    <path d="M 193.24189 78.043602 
Q 189.878863 79.257326 186.515835 80.471051 
" style="fill: none; stroke: #000000; stroke-width: 0.2; stroke-linecap: round"/>
   </g>
   <g id="patch_10">
    <path d="M 64.56417 112.018572 
Q 59.50017 119.210821 54.436169 126.40307 
" style="fill: none; stroke: #000000; stroke-width: 0.2; stroke-linecap: round"/>
   </g>
   <g id="patch_11">
    <path d="M 86.15638 129.618281 
Q 75.886899 132.808799 65.617419 135.999317 
" style="fill: none; stroke: #000000; stroke-width: 0.2; stroke-linecap: round"/>
   </g>
   <g id="patch_12">
    <path d="M 104.539488 80.543403 
Q 92.347519 84.914754 80.15555 89.286104 
" style="fill: none; stroke: #000000; stroke-width: 0.2; stroke-linecap: round"/>
   </g>
   <g id="patch_13">
    <path d="M 173.901226 99.630327 
Q 165.634631 97.587616 157.368036 95.544905 
" style="fill: none; stroke: #000000; stroke-width: 0.2; stroke-linecap: round"/>
   </g>
   <g id="patch_14">
    <path d="M 110.435636 144.822437 
Q 98.697115 146.441543 86.958594 148.06065 
" style="fill: none; stroke: #000000; stroke-width: 0.2; stroke-linecap: round"/>
   </g>
   <g id="patch_15">
    <path d="M 141.59354 121.437812 
Q 128.32926 122.53438 115.064979 123.630947 
" style="fill: none; stroke: #000000; stroke-width: 0.2; stroke-linecap: round"/>
   </g>
   <g id="text_30">
    <text style="font-size: 8px; font-family: 'Arial'; text-anchor: middle" x="139.036093" y="13.02375" transform="rotate(-0 139.036093 13.02375)">Alpha Ifng</text>
   </g>
  </g>
 </g>
 <defs>
  <clipPath id="p2edac3b1c3">
   <rect x="41.27625" y="19.02375" width="195.519685" height="194.258268"/>
  </clipPath>
 </defs>
</svg>
