<?xml version="1.0" encoding="utf-8" standalone="no"?>
<!DOCTYPE svg PUBLIC "-//W3C//DTD SVG 1.1//EN"
  "http://www.w3.org/Graphics/SVG/1.1/DTD/svg11.dtd">
<svg xmlns:xlink="http://www.w3.org/1999/xlink" width="347.529803pt" height="150.878317pt" viewBox="0 0 347.529803 150.878317" xmlns="http://www.w3.org/2000/svg" version="1.1">
 <metadata>
  <rdf:RDF xmlns:dc="http://purl.org/dc/elements/1.1/" xmlns:cc="http://creativecommons.org/ns#" xmlns:rdf="http://www.w3.org/1999/02/22-rdf-syntax-ns#">
   <cc:Work>
    <dc:type rdf:resource="http://purl.org/dc/dcmitype/StillImage"/>
    <dc:date>2025-04-25T12:53:03.289959</dc:date>
    <dc:format>image/svg+xml</dc:format>
    <dc:creator>
     <cc:Agent>
      <dc:title>Matplotlib v3.10.0, https://matplotlib.org/</dc:title>
     </cc:Agent>
    </dc:creator>
   </cc:Work>
  </rdf:RDF>
 </metadata>
 <defs>
  <style type="text/css">*{stroke-linejoin: round; stroke-linecap: butt}</style>
 </defs>
 <g id="figure_1">
  <g id="patch_1">
   <path d="M 0 150.878317 
L 347.529803 150.878317 
L 347.529803 0 
L 0 0 
L 0 150.878317 
z
" style="fill: none"/>
  </g>
  <g id="axes_1">
   <g id="patch_2">
    <path d="M 43.755 128.935817 
L 130.982883 128.935817 
L 130.982883 30.715344 
L 43.755 30.715344 
L 43.755 128.935817 
z
" style="fill: none"/>
   </g>
   <g id="PathCollection_1">
    <defs>
     <path id="C0_0_cfdf878880" d="M 0 1.322876 
C 0.350831 1.322876 0.68734 1.183489 0.935414 0.935414 
C 1.183489 0.68734 1.322876 0.350831 1.322876 -0 
C 1.322876 -0.350831 1.183489 -0.68734 0.935414 -0.935414 
C 0.68734 -1.183489 0.350831 -1.322876 0 -1.322876 
C -0.350831 -1.322876 -0.68734 -1.183489 -0.935414 -0.935414 
C -1.183489 -0.68734 -1.322876 -0.350831 -1.322876 0 
C -1.322876 0.350831 -1.183489 0.68734 -0.935414 0.935414 
C -0.68734 1.183489 -0.350831 1.322876 0 1.322876 
z
"/>
    </defs>
    <g clip-path="url(#pec20fdd678)">
     <use xlink:href="#C0_0_cfdf878880" x="64.048026" y="79.037473" style="fill: #cb334d; stroke: #cb334d"/>
    </g>
    <g clip-path="url(#pec20fdd678)">
     <use xlink:href="#C0_0_cfdf878880" x="56.238572" y="73.303878" style="fill: #cb334d; stroke: #cb334d"/>
    </g>
    <g clip-path="url(#pec20fdd678)">
     <use xlink:href="#C0_0_cfdf878880" x="67.327321" y="63.096651" style="fill: #cb334d; stroke: #cb334d"/>
    </g>
    <g clip-path="url(#pec20fdd678)">
     <use xlink:href="#C0_0_cfdf878880" x="68.580778" y="78.685824" style="fill: #cb334d; stroke: #cb334d"/>
    </g>
    <g clip-path="url(#pec20fdd678)">
     <use xlink:href="#C0_0_cfdf878880" x="64.471248" y="72.238914" style="fill: #cb334d; stroke: #cb334d"/>
    </g>
    <g clip-path="url(#pec20fdd678)">
     <use xlink:href="#C0_0_cfdf878880" x="63.728291" y="64.305604" style="fill: #cb334d; stroke: #cb334d"/>
    </g>
    <g clip-path="url(#pec20fdd678)">
     <use xlink:href="#C0_0_cfdf878880" x="70.017591" y="83.294171" style="fill: #cb334d; stroke: #cb334d"/>
    </g>
    <g clip-path="url(#pec20fdd678)">
     <use xlink:href="#C0_0_cfdf878880" x="62.560293" y="77.387345" style="fill: #cb334d; stroke: #cb334d"/>
    </g>
    <g clip-path="url(#pec20fdd678)">
     <use xlink:href="#C0_0_cfdf878880" x="69.190644" y="67.584094" style="fill: #cb334d; stroke: #cb334d"/>
    </g>
    <g clip-path="url(#pec20fdd678)">
     <use xlink:href="#C0_0_cfdf878880" x="115.395614" y="68.028037" style="fill: #54aead; stroke: #54aead"/>
    </g>
    <g clip-path="url(#pec20fdd678)">
     <use xlink:href="#C0_0_cfdf878880" x="106.732018" y="80.247404" style="fill: #54aead; stroke: #54aead"/>
    </g>
    <g clip-path="url(#pec20fdd678)">
     <use xlink:href="#C0_0_cfdf878880" x="109.395943" y="91.708703" style="fill: #54aead; stroke: #54aead"/>
    </g>
    <g clip-path="url(#pec20fdd678)">
     <use xlink:href="#C0_0_cfdf878880" x="110.307142" y="70.552838" style="fill: #54aead; stroke: #54aead"/>
    </g>
    <g clip-path="url(#pec20fdd678)">
     <use xlink:href="#C0_0_cfdf878880" x="112.245212" y="81.473693" style="fill: #54aead; stroke: #54aead"/>
    </g>
    <g clip-path="url(#pec20fdd678)">
     <use xlink:href="#C0_0_cfdf878880" x="118.229504" y="91.398815" style="fill: #54aead; stroke: #54aead"/>
    </g>
    <g clip-path="url(#pec20fdd678)">
     <use xlink:href="#C0_0_cfdf878880" x="104.814901" y="73.451078" style="fill: #54aead; stroke: #54aead"/>
    </g>
    <g clip-path="url(#pec20fdd678)">
     <use xlink:href="#C0_0_cfdf878880" x="107.09087" y="84.52428" style="fill: #54aead; stroke: #54aead"/>
    </g>
    <g clip-path="url(#pec20fdd678)">
     <use xlink:href="#C0_0_cfdf878880" x="106.6381" y="96.385208" style="fill: #54aead; stroke: #54aead"/>
    </g>
   </g>
   <g id="PathCollection_2"/>
   <g id="matplotlib.axis_1">
    <g id="xtick_1">
     <g id="line2d_1">
      <defs>
       <path id="mc47bf04785" d="M 0 0 
L 0 3.5 
" style="stroke: #000000; stroke-width: 0.5"/>
      </defs>
      <g>
       <use xlink:href="#mc47bf04785" x="65.561971" y="128.935817" style="stroke: #000000; stroke-width: 0.5"/>
      </g>
     </g>
     <g id="text_1">
      <!-- Control -->
      <g transform="translate(51.105096 142.014567) scale(0.08 -0.08)">
       <defs>
        <path id="DejaVuSans-43" d="M 4122 4306 
L 4122 3641 
Q 3803 3938 3442 4084 
Q 3081 4231 2675 4231 
Q 1875 4231 1450 3742 
Q 1025 3253 1025 2328 
Q 1025 1406 1450 917 
Q 1875 428 2675 428 
Q 3081 428 3442 575 
Q 3803 722 4122 1019 
L 4122 359 
Q 3791 134 3420 21 
Q 3050 -91 2638 -91 
Q 1578 -91 968 557 
Q 359 1206 359 2328 
Q 359 3453 968 4101 
Q 1578 4750 2638 4750 
Q 3056 4750 3426 4639 
Q 3797 4528 4122 4306 
z
" transform="scale(0.015625)"/>
        <path id="DejaVuSans-6f" d="M 1959 3097 
Q 1497 3097 1228 2736 
Q 959 2375 959 1747 
Q 959 1119 1226 758 
Q 1494 397 1959 397 
Q 2419 397 2687 759 
Q 2956 1122 2956 1747 
Q 2956 2369 2687 2733 
Q 2419 3097 1959 3097 
z
M 1959 3584 
Q 2709 3584 3137 3096 
Q 3566 2609 3566 1747 
Q 3566 888 3137 398 
Q 2709 -91 1959 -91 
Q 1206 -91 779 398 
Q 353 888 353 1747 
Q 353 2609 779 3096 
Q 1206 3584 1959 3584 
z
" transform="scale(0.015625)"/>
        <path id="DejaVuSans-6e" d="M 3513 2113 
L 3513 0 
L 2938 0 
L 2938 2094 
Q 2938 2591 2744 2837 
Q 2550 3084 2163 3084 
Q 1697 3084 1428 2787 
Q 1159 2491 1159 1978 
L 1159 0 
L 581 0 
L 581 3500 
L 1159 3500 
L 1159 2956 
Q 1366 3272 1645 3428 
Q 1925 3584 2291 3584 
Q 2894 3584 3203 3211 
Q 3513 2838 3513 2113 
z
" transform="scale(0.015625)"/>
        <path id="DejaVuSans-74" d="M 1172 4494 
L 1172 3500 
L 2356 3500 
L 2356 3053 
L 1172 3053 
L 1172 1153 
Q 1172 725 1289 603 
Q 1406 481 1766 481 
L 2356 481 
L 2356 0 
L 1766 0 
Q 1100 0 847 248 
Q 594 497 594 1153 
L 594 3053 
L 172 3053 
L 172 3500 
L 594 3500 
L 594 4494 
L 1172 4494 
z
" transform="scale(0.015625)"/>
        <path id="DejaVuSans-72" d="M 2631 2963 
Q 2534 3019 2420 3045 
Q 2306 3072 2169 3072 
Q 1681 3072 1420 2755 
Q 1159 2438 1159 1844 
L 1159 0 
L 581 0 
L 581 3500 
L 1159 3500 
L 1159 2956 
Q 1341 3275 1631 3429 
Q 1922 3584 2338 3584 
Q 2397 3584 2469 3576 
Q 2541 3569 2628 3553 
L 2631 2963 
z
" transform="scale(0.015625)"/>
        <path id="DejaVuSans-6c" d="M 603 4863 
L 1178 4863 
L 1178 0 
L 603 0 
L 603 4863 
z
" transform="scale(0.015625)"/>
       </defs>
       <use xlink:href="#DejaVuSans-43"/>
       <use xlink:href="#DejaVuSans-6f" transform="translate(69.824219 0)"/>
       <use xlink:href="#DejaVuSans-6e" transform="translate(131.005859 0)"/>
       <use xlink:href="#DejaVuSans-74" transform="translate(194.384766 0)"/>
       <use xlink:href="#DejaVuSans-72" transform="translate(233.59375 0)"/>
       <use xlink:href="#DejaVuSans-6f" transform="translate(272.457031 0)"/>
       <use xlink:href="#DejaVuSans-6c" transform="translate(333.638672 0)"/>
      </g>
     </g>
    </g>
    <g id="xtick_2">
     <g id="line2d_2">
      <g>
       <use xlink:href="#mc47bf04785" x="109.175912" y="128.935817" style="stroke: #000000; stroke-width: 0.5"/>
      </g>
     </g>
     <g id="text_2">
      <!-- IFNg -->
      <g transform="translate(100.163412 142.014567) scale(0.08 -0.08)">
       <defs>
        <path id="DejaVuSans-49" d="M 628 4666 
L 1259 4666 
L 1259 0 
L 628 0 
L 628 4666 
z
" transform="scale(0.015625)"/>
        <path id="DejaVuSans-46" d="M 628 4666 
L 3309 4666 
L 3309 4134 
L 1259 4134 
L 1259 2759 
L 3109 2759 
L 3109 2228 
L 1259 2228 
L 1259 0 
L 628 0 
L 628 4666 
z
" transform="scale(0.015625)"/>
        <path id="DejaVuSans-4e" d="M 628 4666 
L 1478 4666 
L 3547 763 
L 3547 4666 
L 4159 4666 
L 4159 0 
L 3309 0 
L 1241 3903 
L 1241 0 
L 628 0 
L 628 4666 
z
" transform="scale(0.015625)"/>
        <path id="DejaVuSans-67" d="M 2906 1791 
Q 2906 2416 2648 2759 
Q 2391 3103 1925 3103 
Q 1463 3103 1205 2759 
Q 947 2416 947 1791 
Q 947 1169 1205 825 
Q 1463 481 1925 481 
Q 2391 481 2648 825 
Q 2906 1169 2906 1791 
z
M 3481 434 
Q 3481 -459 3084 -895 
Q 2688 -1331 1869 -1331 
Q 1566 -1331 1297 -1286 
Q 1028 -1241 775 -1147 
L 775 -588 
Q 1028 -725 1275 -790 
Q 1522 -856 1778 -856 
Q 2344 -856 2625 -561 
Q 2906 -266 2906 331 
L 2906 616 
Q 2728 306 2450 153 
Q 2172 0 1784 0 
Q 1141 0 747 490 
Q 353 981 353 1791 
Q 353 2603 747 3093 
Q 1141 3584 1784 3584 
Q 2172 3584 2450 3431 
Q 2728 3278 2906 2969 
L 2906 3500 
L 3481 3500 
L 3481 434 
z
" transform="scale(0.015625)"/>
       </defs>
       <use xlink:href="#DejaVuSans-49"/>
       <use xlink:href="#DejaVuSans-46" transform="translate(29.492188 0)"/>
       <use xlink:href="#DejaVuSans-4e" transform="translate(87.011719 0)"/>
       <use xlink:href="#DejaVuSans-67" transform="translate(161.816406 0)"/>
      </g>
     </g>
    </g>
   </g>
   <g id="matplotlib.axis_2">
    <g id="ytick_1">
     <g id="line2d_3">
      <defs>
       <path id="me7d9c38629" d="M 0 0 
L -3.5 0 
" style="stroke: #000000; stroke-width: 0.5"/>
      </defs>
      <g>
       <use xlink:href="#me7d9c38629" x="43.755" y="127.31774" style="stroke: #000000; stroke-width: 0.5"/>
      </g>
     </g>
     <g id="text_3">
      <!-- 0.25 -->
      <g transform="translate(18.9425 130.357115) scale(0.08 -0.08)">
       <defs>
        <path id="DejaVuSans-30" d="M 2034 4250 
Q 1547 4250 1301 3770 
Q 1056 3291 1056 2328 
Q 1056 1369 1301 889 
Q 1547 409 2034 409 
Q 2525 409 2770 889 
Q 3016 1369 3016 2328 
Q 3016 3291 2770 3770 
Q 2525 4250 2034 4250 
z
M 2034 4750 
Q 2819 4750 3233 4129 
Q 3647 3509 3647 2328 
Q 3647 1150 3233 529 
Q 2819 -91 2034 -91 
Q 1250 -91 836 529 
Q 422 1150 422 2328 
Q 422 3509 836 4129 
Q 1250 4750 2034 4750 
z
" transform="scale(0.015625)"/>
        <path id="DejaVuSans-2e" d="M 684 794 
L 1344 794 
L 1344 0 
L 684 0 
L 684 794 
z
" transform="scale(0.015625)"/>
        <path id="DejaVuSans-32" d="M 1228 531 
L 3431 531 
L 3431 0 
L 469 0 
L 469 531 
Q 828 903 1448 1529 
Q 2069 2156 2228 2338 
Q 2531 2678 2651 2914 
Q 2772 3150 2772 3378 
Q 2772 3750 2511 3984 
Q 2250 4219 1831 4219 
Q 1534 4219 1204 4116 
Q 875 4013 500 3803 
L 500 4441 
Q 881 4594 1212 4672 
Q 1544 4750 1819 4750 
Q 2544 4750 2975 4387 
Q 3406 4025 3406 3419 
Q 3406 3131 3298 2873 
Q 3191 2616 2906 2266 
Q 2828 2175 2409 1742 
Q 1991 1309 1228 531 
z
" transform="scale(0.015625)"/>
        <path id="DejaVuSans-35" d="M 691 4666 
L 3169 4666 
L 3169 4134 
L 1269 4134 
L 1269 2991 
Q 1406 3038 1543 3061 
Q 1681 3084 1819 3084 
Q 2600 3084 3056 2656 
Q 3513 2228 3513 1497 
Q 3513 744 3044 326 
Q 2575 -91 1722 -91 
Q 1428 -91 1123 -41 
Q 819 9 494 109 
L 494 744 
Q 775 591 1075 516 
Q 1375 441 1709 441 
Q 2250 441 2565 725 
Q 2881 1009 2881 1497 
Q 2881 1984 2565 2268 
Q 2250 2553 1709 2553 
Q 1456 2553 1204 2497 
Q 953 2441 691 2322 
L 691 4666 
z
" transform="scale(0.015625)"/>
       </defs>
       <use xlink:href="#DejaVuSans-30"/>
       <use xlink:href="#DejaVuSans-2e" transform="translate(63.623047 0)"/>
       <use xlink:href="#DejaVuSans-32" transform="translate(95.410156 0)"/>
       <use xlink:href="#DejaVuSans-35" transform="translate(159.033203 0)"/>
      </g>
     </g>
    </g>
    <g id="ytick_2">
     <g id="line2d_4">
      <g>
       <use xlink:href="#me7d9c38629" x="43.755" y="102.21457" style="stroke: #000000; stroke-width: 0.5"/>
      </g>
     </g>
     <g id="text_4">
      <!-- 0.30 -->
      <g transform="translate(18.9425 105.253945) scale(0.08 -0.08)">
       <defs>
        <path id="DejaVuSans-33" d="M 2597 2516 
Q 3050 2419 3304 2112 
Q 3559 1806 3559 1356 
Q 3559 666 3084 287 
Q 2609 -91 1734 -91 
Q 1441 -91 1130 -33 
Q 819 25 488 141 
L 488 750 
Q 750 597 1062 519 
Q 1375 441 1716 441 
Q 2309 441 2620 675 
Q 2931 909 2931 1356 
Q 2931 1769 2642 2001 
Q 2353 2234 1838 2234 
L 1294 2234 
L 1294 2753 
L 1863 2753 
Q 2328 2753 2575 2939 
Q 2822 3125 2822 3475 
Q 2822 3834 2567 4026 
Q 2313 4219 1838 4219 
Q 1578 4219 1281 4162 
Q 984 4106 628 3988 
L 628 4550 
Q 988 4650 1302 4700 
Q 1616 4750 1894 4750 
Q 2613 4750 3031 4423 
Q 3450 4097 3450 3541 
Q 3450 3153 3228 2886 
Q 3006 2619 2597 2516 
z
" transform="scale(0.015625)"/>
       </defs>
       <use xlink:href="#DejaVuSans-30"/>
       <use xlink:href="#DejaVuSans-2e" transform="translate(63.623047 0)"/>
       <use xlink:href="#DejaVuSans-33" transform="translate(95.410156 0)"/>
       <use xlink:href="#DejaVuSans-30" transform="translate(159.033203 0)"/>
      </g>
     </g>
    </g>
    <g id="ytick_3">
     <g id="line2d_5">
      <g>
       <use xlink:href="#me7d9c38629" x="43.755" y="77.1114" style="stroke: #000000; stroke-width: 0.5"/>
      </g>
     </g>
     <g id="text_5">
      <!-- 0.35 -->
      <g transform="translate(18.9425 80.150775) scale(0.08 -0.08)">
       <use xlink:href="#DejaVuSans-30"/>
       <use xlink:href="#DejaVuSans-2e" transform="translate(63.623047 0)"/>
       <use xlink:href="#DejaVuSans-33" transform="translate(95.410156 0)"/>
       <use xlink:href="#DejaVuSans-35" transform="translate(159.033203 0)"/>
      </g>
     </g>
    </g>
    <g id="ytick_4">
     <g id="line2d_6">
      <g>
       <use xlink:href="#me7d9c38629" x="43.755" y="52.008231" style="stroke: #000000; stroke-width: 0.5"/>
      </g>
     </g>
     <g id="text_6">
      <!-- 0.40 -->
      <g transform="translate(18.9425 55.047606) scale(0.08 -0.08)">
       <defs>
        <path id="DejaVuSans-34" d="M 2419 4116 
L 825 1625 
L 2419 1625 
L 2419 4116 
z
M 2253 4666 
L 3047 4666 
L 3047 1625 
L 3713 1625 
L 3713 1100 
L 3047 1100 
L 3047 0 
L 2419 0 
L 2419 1100 
L 313 1100 
L 313 1709 
L 2253 4666 
z
" transform="scale(0.015625)"/>
       </defs>
       <use xlink:href="#DejaVuSans-30"/>
       <use xlink:href="#DejaVuSans-2e" transform="translate(63.623047 0)"/>
       <use xlink:href="#DejaVuSans-34" transform="translate(95.410156 0)"/>
       <use xlink:href="#DejaVuSans-30" transform="translate(159.033203 0)"/>
      </g>
     </g>
    </g>
    <g id="text_7">
     <!-- Pearson's R -->
     <g transform="translate(13.27875 102.949331) rotate(-90) scale(0.08 -0.08)">
      <defs>
       <path id="DejaVuSans-50" d="M 1259 4147 
L 1259 2394 
L 2053 2394 
Q 2494 2394 2734 2622 
Q 2975 2850 2975 3272 
Q 2975 3691 2734 3919 
Q 2494 4147 2053 4147 
L 1259 4147 
z
M 628 4666 
L 2053 4666 
Q 2838 4666 3239 4311 
Q 3641 3956 3641 3272 
Q 3641 2581 3239 2228 
Q 2838 1875 2053 1875 
L 1259 1875 
L 1259 0 
L 628 0 
L 628 4666 
z
" transform="scale(0.015625)"/>
       <path id="DejaVuSans-65" d="M 3597 1894 
L 3597 1613 
L 953 1613 
Q 991 1019 1311 708 
Q 1631 397 2203 397 
Q 2534 397 2845 478 
Q 3156 559 3463 722 
L 3463 178 
Q 3153 47 2828 -22 
Q 2503 -91 2169 -91 
Q 1331 -91 842 396 
Q 353 884 353 1716 
Q 353 2575 817 3079 
Q 1281 3584 2069 3584 
Q 2775 3584 3186 3129 
Q 3597 2675 3597 1894 
z
M 3022 2063 
Q 3016 2534 2758 2815 
Q 2500 3097 2075 3097 
Q 1594 3097 1305 2825 
Q 1016 2553 972 2059 
L 3022 2063 
z
" transform="scale(0.015625)"/>
       <path id="DejaVuSans-61" d="M 2194 1759 
Q 1497 1759 1228 1600 
Q 959 1441 959 1056 
Q 959 750 1161 570 
Q 1363 391 1709 391 
Q 2188 391 2477 730 
Q 2766 1069 2766 1631 
L 2766 1759 
L 2194 1759 
z
M 3341 1997 
L 3341 0 
L 2766 0 
L 2766 531 
Q 2569 213 2275 61 
Q 1981 -91 1556 -91 
Q 1019 -91 701 211 
Q 384 513 384 1019 
Q 384 1609 779 1909 
Q 1175 2209 1959 2209 
L 2766 2209 
L 2766 2266 
Q 2766 2663 2505 2880 
Q 2244 3097 1772 3097 
Q 1472 3097 1187 3025 
Q 903 2953 641 2809 
L 641 3341 
Q 956 3463 1253 3523 
Q 1550 3584 1831 3584 
Q 2591 3584 2966 3190 
Q 3341 2797 3341 1997 
z
" transform="scale(0.015625)"/>
       <path id="DejaVuSans-73" d="M 2834 3397 
L 2834 2853 
Q 2591 2978 2328 3040 
Q 2066 3103 1784 3103 
Q 1356 3103 1142 2972 
Q 928 2841 928 2578 
Q 928 2378 1081 2264 
Q 1234 2150 1697 2047 
L 1894 2003 
Q 2506 1872 2764 1633 
Q 3022 1394 3022 966 
Q 3022 478 2636 193 
Q 2250 -91 1575 -91 
Q 1294 -91 989 -36 
Q 684 19 347 128 
L 347 722 
Q 666 556 975 473 
Q 1284 391 1588 391 
Q 1994 391 2212 530 
Q 2431 669 2431 922 
Q 2431 1156 2273 1281 
Q 2116 1406 1581 1522 
L 1381 1569 
Q 847 1681 609 1914 
Q 372 2147 372 2553 
Q 372 3047 722 3315 
Q 1072 3584 1716 3584 
Q 2034 3584 2315 3537 
Q 2597 3491 2834 3397 
z
" transform="scale(0.015625)"/>
       <path id="DejaVuSans-27" d="M 1147 4666 
L 1147 2931 
L 616 2931 
L 616 4666 
L 1147 4666 
z
" transform="scale(0.015625)"/>
       <path id="DejaVuSans-20" transform="scale(0.015625)"/>
       <path id="DejaVuSans-52" d="M 2841 2188 
Q 3044 2119 3236 1894 
Q 3428 1669 3622 1275 
L 4263 0 
L 3584 0 
L 2988 1197 
Q 2756 1666 2539 1819 
Q 2322 1972 1947 1972 
L 1259 1972 
L 1259 0 
L 628 0 
L 628 4666 
L 2053 4666 
Q 2853 4666 3247 4331 
Q 3641 3997 3641 3322 
Q 3641 2881 3436 2590 
Q 3231 2300 2841 2188 
z
M 1259 4147 
L 1259 2491 
L 2053 2491 
Q 2509 2491 2742 2702 
Q 2975 2913 2975 3322 
Q 2975 3731 2742 3939 
Q 2509 4147 2053 4147 
L 1259 4147 
z
" transform="scale(0.015625)"/>
      </defs>
      <use xlink:href="#DejaVuSans-50"/>
      <use xlink:href="#DejaVuSans-65" transform="translate(56.677734 0)"/>
      <use xlink:href="#DejaVuSans-61" transform="translate(118.201172 0)"/>
      <use xlink:href="#DejaVuSans-72" transform="translate(179.480469 0)"/>
      <use xlink:href="#DejaVuSans-73" transform="translate(220.59375 0)"/>
      <use xlink:href="#DejaVuSans-6f" transform="translate(272.693359 0)"/>
      <use xlink:href="#DejaVuSans-6e" transform="translate(333.875 0)"/>
      <use xlink:href="#DejaVuSans-27" transform="translate(397.253906 0)"/>
      <use xlink:href="#DejaVuSans-73" transform="translate(424.744141 0)"/>
      <use xlink:href="#DejaVuSans-20" transform="translate(476.84375 0)"/>
      <use xlink:href="#DejaVuSans-52" transform="translate(508.630859 0)"/>
     </g>
    </g>
   </g>
   <g id="patch_3">
    <path d="M 54.658485 78.685824 
L 76.465456 78.685824 
L 76.465456 67.584094 
L 54.658485 67.584094 
L 54.658485 78.685824 
L 54.658485 78.685824 
z
" clip-path="url(#pec20fdd678)" style="fill: none; stroke: #000000; stroke-width: 0.5; stroke-linejoin: miter"/>
   </g>
   <g id="line2d_7">
    <path d="M 65.561971 78.685824 
L 65.561971 83.294171 
" clip-path="url(#pec20fdd678)" style="fill: none; stroke: #000000; stroke-width: 0.5; stroke-linecap: square"/>
   </g>
   <g id="line2d_8">
    <path d="M 65.561971 67.584094 
L 65.561971 63.096651 
" clip-path="url(#pec20fdd678)" style="fill: none; stroke: #000000; stroke-width: 0.5; stroke-linecap: square"/>
   </g>
   <g id="line2d_9">
    <path d="M 60.110228 83.294171 
L 71.013714 83.294171 
" clip-path="url(#pec20fdd678)" style="fill: none; stroke: #000000; stroke-width: 0.5; stroke-linecap: square"/>
   </g>
   <g id="line2d_10">
    <path d="M 60.110228 63.096651 
L 71.013714 63.096651 
" clip-path="url(#pec20fdd678)" style="fill: none; stroke: #000000; stroke-width: 0.5; stroke-linecap: square"/>
   </g>
   <g id="patch_4">
    <path d="M 98.272427 91.398815 
L 120.079398 91.398815 
L 120.079398 73.451078 
L 98.272427 73.451078 
L 98.272427 91.398815 
L 98.272427 91.398815 
z
" clip-path="url(#pec20fdd678)" style="fill: none; stroke: #000000; stroke-width: 0.5; stroke-linejoin: miter"/>
   </g>
   <g id="line2d_11">
    <path d="M 109.175912 91.398815 
L 109.175912 96.385208 
" clip-path="url(#pec20fdd678)" style="fill: none; stroke: #000000; stroke-width: 0.5; stroke-linecap: square"/>
   </g>
   <g id="line2d_12">
    <path d="M 109.175912 73.451078 
L 109.175912 68.028037 
" clip-path="url(#pec20fdd678)" style="fill: none; stroke: #000000; stroke-width: 0.5; stroke-linecap: square"/>
   </g>
   <g id="line2d_13">
    <path d="M 103.72417 96.385208 
L 114.627655 96.385208 
" clip-path="url(#pec20fdd678)" style="fill: none; stroke: #000000; stroke-width: 0.5; stroke-linecap: square"/>
   </g>
   <g id="line2d_14">
    <path d="M 103.72417 68.028037 
L 114.627655 68.028037 
" clip-path="url(#pec20fdd678)" style="fill: none; stroke: #000000; stroke-width: 0.5; stroke-linecap: square"/>
   </g>
   <g id="line2d_15">
    <path d="M 54.658485 73.303878 
L 76.465456 73.303878 
" clip-path="url(#pec20fdd678)" style="fill: none; stroke: #000000; stroke-width: 0.5"/>
   </g>
   <g id="line2d_16">
    <path d="M 98.272427 81.473693 
L 120.079398 81.473693 
" clip-path="url(#pec20fdd678)" style="fill: none; stroke: #000000; stroke-width: 0.5"/>
   </g>
   <g id="patch_5">
    <path d="M 43.755 128.935817 
L 43.755 30.715344 
" style="fill: none; stroke: #000000; stroke-width: 0.5; stroke-linejoin: miter; stroke-linecap: square"/>
   </g>
   <g id="patch_6">
    <path d="M 130.982883 128.935817 
L 130.982883 30.715344 
" style="fill: none; stroke: #000000; stroke-width: 0.5; stroke-linejoin: miter; stroke-linecap: square"/>
   </g>
   <g id="patch_7">
    <path d="M 43.755 128.935817 
L 130.982883 128.935817 
" style="fill: none; stroke: #000000; stroke-width: 0.5; stroke-linejoin: miter; stroke-linecap: square"/>
   </g>
   <g id="patch_8">
    <path d="M 43.755 30.715344 
L 130.982883 30.715344 
" style="fill: none; stroke: #000000; stroke-width: 0.5; stroke-linejoin: miter; stroke-linecap: square"/>
   </g>
   <g id="text_8">
    <!-- p = 0.047 -->
    <g transform="translate(67.483942 40.537392) scale(0.08 -0.08)">
     <defs>
      <path id="DejaVuSans-70" d="M 1159 525 
L 1159 -1331 
L 581 -1331 
L 581 3500 
L 1159 3500 
L 1159 2969 
Q 1341 3281 1617 3432 
Q 1894 3584 2278 3584 
Q 2916 3584 3314 3078 
Q 3713 2572 3713 1747 
Q 3713 922 3314 415 
Q 2916 -91 2278 -91 
Q 1894 -91 1617 61 
Q 1341 213 1159 525 
z
M 3116 1747 
Q 3116 2381 2855 2742 
Q 2594 3103 2138 3103 
Q 1681 3103 1420 2742 
Q 1159 2381 1159 1747 
Q 1159 1113 1420 752 
Q 1681 391 2138 391 
Q 2594 391 2855 752 
Q 3116 1113 3116 1747 
z
" transform="scale(0.015625)"/>
      <path id="DejaVuSans-3d" d="M 678 2906 
L 4684 2906 
L 4684 2381 
L 678 2381 
L 678 2906 
z
M 678 1631 
L 4684 1631 
L 4684 1100 
L 678 1100 
L 678 1631 
z
" transform="scale(0.015625)"/>
      <path id="DejaVuSans-37" d="M 525 4666 
L 3525 4666 
L 3525 4397 
L 1831 0 
L 1172 0 
L 2766 4134 
L 525 4134 
L 525 4666 
z
" transform="scale(0.015625)"/>
     </defs>
     <use xlink:href="#DejaVuSans-70"/>
     <use xlink:href="#DejaVuSans-20" transform="translate(63.476562 0)"/>
     <use xlink:href="#DejaVuSans-3d" transform="translate(95.263672 0)"/>
     <use xlink:href="#DejaVuSans-20" transform="translate(179.052734 0)"/>
     <use xlink:href="#DejaVuSans-30" transform="translate(210.839844 0)"/>
     <use xlink:href="#DejaVuSans-2e" transform="translate(274.462891 0)"/>
     <use xlink:href="#DejaVuSans-30" transform="translate(306.25 0)"/>
     <use xlink:href="#DejaVuSans-34" transform="translate(369.873047 0)"/>
     <use xlink:href="#DejaVuSans-37" transform="translate(433.496094 0)"/>
    </g>
   </g>
   <g id="text_9">
    <!-- C -->
    <g transform="translate(13.225241 13.27875) scale(0.08 -0.08)">
     <defs>
      <path id="DejaVuSans-Bold-43" d="M 4288 256 
Q 3956 84 3597 -3 
Q 3238 -91 2847 -91 
Q 1681 -91 1000 561 
Q 319 1213 319 2328 
Q 319 3447 1000 4098 
Q 1681 4750 2847 4750 
Q 3238 4750 3597 4662 
Q 3956 4575 4288 4403 
L 4288 3438 
Q 3953 3666 3628 3772 
Q 3303 3878 2944 3878 
Q 2300 3878 1931 3465 
Q 1563 3053 1563 2328 
Q 1563 1606 1931 1193 
Q 2300 781 2944 781 
Q 3303 781 3628 887 
Q 3953 994 4288 1222 
L 4288 256 
z
" transform="scale(0.015625)"/>
     </defs>
     <use xlink:href="#DejaVuSans-Bold-43"/>
    </g>
   </g>
   <g id="text_10">
    <!-- Alpha -->
    <g transform="translate(75.995817 24.715344) scale(0.08 -0.08)">
     <defs>
      <path id="DejaVuSans-41" d="M 2188 4044 
L 1331 1722 
L 3047 1722 
L 2188 4044 
z
M 1831 4666 
L 2547 4666 
L 4325 0 
L 3669 0 
L 3244 1197 
L 1141 1197 
L 716 0 
L 50 0 
L 1831 4666 
z
" transform="scale(0.015625)"/>
      <path id="DejaVuSans-68" d="M 3513 2113 
L 3513 0 
L 2938 0 
L 2938 2094 
Q 2938 2591 2744 2837 
Q 2550 3084 2163 3084 
Q 1697 3084 1428 2787 
Q 1159 2491 1159 1978 
L 1159 0 
L 581 0 
L 581 4863 
L 1159 4863 
L 1159 2956 
Q 1366 3272 1645 3428 
Q 1925 3584 2291 3584 
Q 2894 3584 3203 3211 
Q 3513 2838 3513 2113 
z
" transform="scale(0.015625)"/>
     </defs>
     <use xlink:href="#DejaVuSans-41"/>
     <use xlink:href="#DejaVuSans-6c" transform="translate(68.408203 0)"/>
     <use xlink:href="#DejaVuSans-70" transform="translate(96.191406 0)"/>
     <use xlink:href="#DejaVuSans-68" transform="translate(159.667969 0)"/>
     <use xlink:href="#DejaVuSans-61" transform="translate(223.046875 0)"/>
    </g>
   </g>
  </g>
  <g id="axes_2">
   <g id="patch_9">
    <path d="M 148.42846 128.935817 
L 235.656343 128.935817 
L 235.656343 30.715344 
L 148.42846 30.715344 
L 148.42846 128.935817 
z
" style="fill: none"/>
   </g>
   <g id="PathCollection_3">
    <defs>
     <path id="C1_0_b1eecae345" d="M 0 1.322876 
C 0.350831 1.322876 0.68734 1.183489 0.935414 0.935414 
C 1.183489 0.68734 1.322876 0.350831 1.322876 -0 
C 1.322876 -0.350831 1.183489 -0.68734 0.935414 -0.935414 
C 0.68734 -1.183489 0.350831 -1.322876 0 -1.322876 
C -0.350831 -1.322876 -0.68734 -1.183489 -0.935414 -0.935414 
C -1.183489 -0.68734 -1.322876 -0.350831 -1.322876 0 
C -1.322876 0.350831 -1.183489 0.68734 -0.935414 0.935414 
C -0.68734 1.183489 -0.350831 1.322876 0 1.322876 
z
"/>
    </defs>
    <g clip-path="url(#p78a8099c0c)">
     <use xlink:href="#C1_0_b1eecae345" x="160.801294" y="54.323204" style="fill: #cb334d; stroke: #cb334d"/>
    </g>
    <g clip-path="url(#p78a8099c0c)">
     <use xlink:href="#C1_0_b1eecae345" x="167.429959" y="50.083502" style="fill: #cb334d; stroke: #cb334d"/>
    </g>
    <g clip-path="url(#p78a8099c0c)">
     <use xlink:href="#C1_0_b1eecae345" x="180.025007" y="62.635976" style="fill: #cb334d; stroke: #cb334d"/>
    </g>
    <g clip-path="url(#p78a8099c0c)">
     <use xlink:href="#C1_0_b1eecae345" x="174.90509" y="50.112146" style="fill: #cb334d; stroke: #cb334d"/>
    </g>
    <g clip-path="url(#p78a8099c0c)">
     <use xlink:href="#C1_0_b1eecae345" x="177.940233" y="45.777246" style="fill: #cb334d; stroke: #cb334d"/>
    </g>
    <g clip-path="url(#p78a8099c0c)">
     <use xlink:href="#C1_0_b1eecae345" x="177.483359" y="59.18726" style="fill: #cb334d; stroke: #cb334d"/>
    </g>
    <g clip-path="url(#p78a8099c0c)">
     <use xlink:href="#C1_0_b1eecae345" x="168.474877" y="52.202576" style="fill: #cb334d; stroke: #cb334d"/>
    </g>
    <g clip-path="url(#p78a8099c0c)">
     <use xlink:href="#C1_0_b1eecae345" x="167.325501" y="49.242074" style="fill: #cb334d; stroke: #cb334d"/>
    </g>
    <g clip-path="url(#p78a8099c0c)">
     <use xlink:href="#C1_0_b1eecae345" x="168.659717" y="62.374599" style="fill: #cb334d; stroke: #cb334d"/>
    </g>
    <g clip-path="url(#p78a8099c0c)">
     <use xlink:href="#C1_0_b1eecae345" x="217.684374" y="60.821416" style="fill: #54aead; stroke: #54aead"/>
    </g>
    <g clip-path="url(#p78a8099c0c)">
     <use xlink:href="#C1_0_b1eecae345" x="219.345555" y="56.314255" style="fill: #54aead; stroke: #54aead"/>
    </g>
    <g clip-path="url(#p78a8099c0c)">
     <use xlink:href="#C1_0_b1eecae345" x="214.208086" y="53.610943" style="fill: #54aead; stroke: #54aead"/>
    </g>
    <g clip-path="url(#p78a8099c0c)">
     <use xlink:href="#C1_0_b1eecae345" x="216.71784" y="60.156222" style="fill: #54aead; stroke: #54aead"/>
    </g>
    <g clip-path="url(#p78a8099c0c)">
     <use xlink:href="#C1_0_b1eecae345" x="207.227783" y="55.584036" style="fill: #54aead; stroke: #54aead"/>
    </g>
    <g clip-path="url(#p78a8099c0c)">
     <use xlink:href="#C1_0_b1eecae345" x="205.588988" y="52.912899" style="fill: #54aead; stroke: #54aead"/>
    </g>
    <g clip-path="url(#p78a8099c0c)">
     <use xlink:href="#C1_0_b1eecae345" x="216.504086" y="61.011765" style="fill: #54aead; stroke: #54aead"/>
    </g>
    <g clip-path="url(#p78a8099c0c)">
     <use xlink:href="#C1_0_b1eecae345" x="220.722549" y="56.303843" style="fill: #54aead; stroke: #54aead"/>
    </g>
    <g clip-path="url(#p78a8099c0c)">
     <use xlink:href="#C1_0_b1eecae345" x="208.302942" y="53.94055" style="fill: #54aead; stroke: #54aead"/>
    </g>
   </g>
   <g id="PathCollection_4"/>
   <g id="matplotlib.axis_3">
    <g id="xtick_3">
     <g id="line2d_17">
      <g>
       <use xlink:href="#mc47bf04785" x="170.235431" y="128.935817" style="stroke: #000000; stroke-width: 0.5"/>
      </g>
     </g>
     <g id="text_11">
      <!-- Control -->
      <g transform="translate(155.778556 142.014567) scale(0.08 -0.08)">
       <use xlink:href="#DejaVuSans-43"/>
       <use xlink:href="#DejaVuSans-6f" transform="translate(69.824219 0)"/>
       <use xlink:href="#DejaVuSans-6e" transform="translate(131.005859 0)"/>
       <use xlink:href="#DejaVuSans-74" transform="translate(194.384766 0)"/>
       <use xlink:href="#DejaVuSans-72" transform="translate(233.59375 0)"/>
       <use xlink:href="#DejaVuSans-6f" transform="translate(272.457031 0)"/>
       <use xlink:href="#DejaVuSans-6c" transform="translate(333.638672 0)"/>
      </g>
     </g>
    </g>
    <g id="xtick_4">
     <g id="line2d_18">
      <g>
       <use xlink:href="#mc47bf04785" x="213.849372" y="128.935817" style="stroke: #000000; stroke-width: 0.5"/>
      </g>
     </g>
     <g id="text_12">
      <!-- IFNg -->
      <g transform="translate(204.836872 142.014567) scale(0.08 -0.08)">
       <use xlink:href="#DejaVuSans-49"/>
       <use xlink:href="#DejaVuSans-46" transform="translate(29.492188 0)"/>
       <use xlink:href="#DejaVuSans-4e" transform="translate(87.011719 0)"/>
       <use xlink:href="#DejaVuSans-67" transform="translate(161.816406 0)"/>
      </g>
     </g>
    </g>
   </g>
   <g id="matplotlib.axis_4">
    <g id="ytick_5">
     <g id="line2d_19">
      <g>
       <use xlink:href="#me7d9c38629" x="148.42846" y="127.31774" style="stroke: #000000; stroke-width: 0.5"/>
      </g>
     </g>
    </g>
    <g id="ytick_6">
     <g id="line2d_20">
      <g>
       <use xlink:href="#me7d9c38629" x="148.42846" y="102.21457" style="stroke: #000000; stroke-width: 0.5"/>
      </g>
     </g>
    </g>
    <g id="ytick_7">
     <g id="line2d_21">
      <g>
       <use xlink:href="#me7d9c38629" x="148.42846" y="77.1114" style="stroke: #000000; stroke-width: 0.5"/>
      </g>
     </g>
    </g>
    <g id="ytick_8">
     <g id="line2d_22">
      <g>
       <use xlink:href="#me7d9c38629" x="148.42846" y="52.008231" style="stroke: #000000; stroke-width: 0.5"/>
      </g>
     </g>
    </g>
   </g>
   <g id="patch_10">
    <path d="M 159.331945 59.18726 
L 181.138916 59.18726 
L 181.138916 50.083502 
L 159.331945 50.083502 
L 159.331945 59.18726 
L 159.331945 59.18726 
z
" clip-path="url(#p78a8099c0c)" style="fill: none; stroke: #000000; stroke-width: 0.5; stroke-linejoin: miter"/>
   </g>
   <g id="line2d_23">
    <path d="M 170.235431 59.18726 
L 170.235431 62.635976 
" clip-path="url(#p78a8099c0c)" style="fill: none; stroke: #000000; stroke-width: 0.5; stroke-linecap: square"/>
   </g>
   <g id="line2d_24">
    <path d="M 170.235431 50.083502 
L 170.235431 45.777246 
" clip-path="url(#p78a8099c0c)" style="fill: none; stroke: #000000; stroke-width: 0.5; stroke-linecap: square"/>
   </g>
   <g id="line2d_25">
    <path d="M 164.783688 62.635976 
L 175.687173 62.635976 
" clip-path="url(#p78a8099c0c)" style="fill: none; stroke: #000000; stroke-width: 0.5; stroke-linecap: square"/>
   </g>
   <g id="line2d_26">
    <path d="M 164.783688 45.777246 
L 175.687173 45.777246 
" clip-path="url(#p78a8099c0c)" style="fill: none; stroke: #000000; stroke-width: 0.5; stroke-linecap: square"/>
   </g>
   <g id="patch_11">
    <path d="M 202.945887 60.156222 
L 224.752858 60.156222 
L 224.752858 53.94055 
L 202.945887 53.94055 
L 202.945887 60.156222 
L 202.945887 60.156222 
z
" clip-path="url(#p78a8099c0c)" style="fill: none; stroke: #000000; stroke-width: 0.5; stroke-linejoin: miter"/>
   </g>
   <g id="line2d_27">
    <path d="M 213.849372 60.156222 
L 213.849372 61.011765 
" clip-path="url(#p78a8099c0c)" style="fill: none; stroke: #000000; stroke-width: 0.5; stroke-linecap: square"/>
   </g>
   <g id="line2d_28">
    <path d="M 213.849372 53.94055 
L 213.849372 52.912899 
" clip-path="url(#p78a8099c0c)" style="fill: none; stroke: #000000; stroke-width: 0.5; stroke-linecap: square"/>
   </g>
   <g id="line2d_29">
    <path d="M 208.39763 61.011765 
L 219.301115 61.011765 
" clip-path="url(#p78a8099c0c)" style="fill: none; stroke: #000000; stroke-width: 0.5; stroke-linecap: square"/>
   </g>
   <g id="line2d_30">
    <path d="M 208.39763 52.912899 
L 219.301115 52.912899 
" clip-path="url(#p78a8099c0c)" style="fill: none; stroke: #000000; stroke-width: 0.5; stroke-linecap: square"/>
   </g>
   <g id="line2d_31">
    <path d="M 159.331945 52.202576 
L 181.138916 52.202576 
" clip-path="url(#p78a8099c0c)" style="fill: none; stroke: #000000; stroke-width: 0.5"/>
   </g>
   <g id="line2d_32">
    <path d="M 202.945887 56.303843 
L 224.752858 56.303843 
" clip-path="url(#p78a8099c0c)" style="fill: none; stroke: #000000; stroke-width: 0.5"/>
   </g>
   <g id="patch_12">
    <path d="M 148.42846 128.935817 
L 148.42846 30.715344 
" style="fill: none; stroke: #000000; stroke-width: 0.5; stroke-linejoin: miter; stroke-linecap: square"/>
   </g>
   <g id="patch_13">
    <path d="M 235.656343 128.935817 
L 235.656343 30.715344 
" style="fill: none; stroke: #000000; stroke-width: 0.5; stroke-linejoin: miter; stroke-linecap: square"/>
   </g>
   <g id="patch_14">
    <path d="M 148.42846 128.935817 
L 235.656343 128.935817 
" style="fill: none; stroke: #000000; stroke-width: 0.5; stroke-linejoin: miter; stroke-linecap: square"/>
   </g>
   <g id="patch_15">
    <path d="M 148.42846 30.715344 
L 235.656343 30.715344 
" style="fill: none; stroke: #000000; stroke-width: 0.5; stroke-linejoin: miter; stroke-linecap: square"/>
   </g>
   <g id="text_13">
    <!-- p = 0.247 -->
    <g transform="translate(172.157402 40.537392) scale(0.08 -0.08)">
     <use xlink:href="#DejaVuSans-70"/>
     <use xlink:href="#DejaVuSans-20" transform="translate(63.476562 0)"/>
     <use xlink:href="#DejaVuSans-3d" transform="translate(95.263672 0)"/>
     <use xlink:href="#DejaVuSans-20" transform="translate(179.052734 0)"/>
     <use xlink:href="#DejaVuSans-30" transform="translate(210.839844 0)"/>
     <use xlink:href="#DejaVuSans-2e" transform="translate(274.462891 0)"/>
     <use xlink:href="#DejaVuSans-32" transform="translate(306.25 0)"/>
     <use xlink:href="#DejaVuSans-34" transform="translate(369.873047 0)"/>
     <use xlink:href="#DejaVuSans-37" transform="translate(433.496094 0)"/>
    </g>
   </g>
   <g id="text_14">
    <!-- Beta -->
    <g transform="translate(182.817402 24.715344) scale(0.08 -0.08)">
     <defs>
      <path id="DejaVuSans-42" d="M 1259 2228 
L 1259 519 
L 2272 519 
Q 2781 519 3026 730 
Q 3272 941 3272 1375 
Q 3272 1813 3026 2020 
Q 2781 2228 2272 2228 
L 1259 2228 
z
M 1259 4147 
L 1259 2741 
L 2194 2741 
Q 2656 2741 2882 2914 
Q 3109 3088 3109 3444 
Q 3109 3797 2882 3972 
Q 2656 4147 2194 4147 
L 1259 4147 
z
M 628 4666 
L 2241 4666 
Q 2963 4666 3353 4366 
Q 3744 4066 3744 3513 
Q 3744 3084 3544 2831 
Q 3344 2578 2956 2516 
Q 3422 2416 3680 2098 
Q 3938 1781 3938 1306 
Q 3938 681 3513 340 
Q 3088 0 2303 0 
L 628 0 
L 628 4666 
z
" transform="scale(0.015625)"/>
     </defs>
     <use xlink:href="#DejaVuSans-42"/>
     <use xlink:href="#DejaVuSans-65" transform="translate(68.603516 0)"/>
     <use xlink:href="#DejaVuSans-74" transform="translate(130.126953 0)"/>
     <use xlink:href="#DejaVuSans-61" transform="translate(169.335938 0)"/>
    </g>
   </g>
  </g>
  <g id="axes_3">
   <g id="patch_16">
    <path d="M 253.10192 128.935817 
L 340.329803 128.935817 
L 340.329803 30.715344 
L 253.10192 30.715344 
L 253.10192 128.935817 
z
" style="fill: none"/>
   </g>
   <g id="PathCollection_5">
    <defs>
     <path id="C2_0_0f640a45c6" d="M 0 1.322876 
C 0.350831 1.322876 0.68734 1.183489 0.935414 0.935414 
C 1.183489 0.68734 1.322876 0.350831 1.322876 -0 
C 1.322876 -0.350831 1.183489 -0.68734 0.935414 -0.935414 
C 0.68734 -1.183489 0.350831 -1.322876 0 -1.322876 
C -0.350831 -1.322876 -0.68734 -1.183489 -0.935414 -0.935414 
C -1.183489 -0.68734 -1.322876 -0.350831 -1.322876 0 
C -1.322876 0.350831 -1.183489 0.68734 -0.935414 0.935414 
C -0.68734 1.183489 -0.350831 1.322876 0 1.322876 
z
"/>
    </defs>
    <g clip-path="url(#p7cf783daa8)">
     <use xlink:href="#C2_0_0f640a45c6" x="281.327062" y="101.972577" style="fill: #cb334d; stroke: #cb334d"/>
    </g>
    <g clip-path="url(#p7cf783daa8)">
     <use xlink:href="#C2_0_0f640a45c6" x="276.887746" y="91.158681" style="fill: #cb334d; stroke: #cb334d"/>
    </g>
    <g clip-path="url(#p7cf783daa8)">
     <use xlink:href="#C2_0_0f640a45c6" x="267.487838" y="99.549637" style="fill: #cb334d; stroke: #cb334d"/>
    </g>
    <g clip-path="url(#p7cf783daa8)">
     <use xlink:href="#C2_0_0f640a45c6" x="272.848196" y="93.564443" style="fill: #cb334d; stroke: #cb334d"/>
    </g>
    <g clip-path="url(#p7cf783daa8)">
     <use xlink:href="#C2_0_0f640a45c6" x="280.10151" y="85.784443" style="fill: #cb334d; stroke: #cb334d"/>
    </g>
    <g clip-path="url(#p7cf783daa8)">
     <use xlink:href="#C2_0_0f640a45c6" x="279.519456" y="93.200013" style="fill: #cb334d; stroke: #cb334d"/>
    </g>
    <g clip-path="url(#p7cf783daa8)">
     <use xlink:href="#C2_0_0f640a45c6" x="279.304772" y="96.481603" style="fill: #cb334d; stroke: #cb334d"/>
    </g>
    <g clip-path="url(#p7cf783daa8)">
     <use xlink:href="#C2_0_0f640a45c6" x="272.253233" y="88.624762" style="fill: #cb334d; stroke: #cb334d"/>
    </g>
    <g clip-path="url(#p7cf783daa8)">
     <use xlink:href="#C2_0_0f640a45c6" x="274.095438" y="96.352554" style="fill: #cb334d; stroke: #cb334d"/>
    </g>
    <g clip-path="url(#p7cf783daa8)">
     <use xlink:href="#C2_0_0f640a45c6" x="311.853262" y="87.851063" style="fill: #54aead; stroke: #54aead"/>
    </g>
    <g clip-path="url(#p7cf783daa8)">
     <use xlink:href="#C2_0_0f640a45c6" x="318.764551" y="112.028266" style="fill: #54aead; stroke: #54aead"/>
    </g>
    <g clip-path="url(#p7cf783daa8)">
     <use xlink:href="#C2_0_0f640a45c6" x="309.465026" y="117.948801" style="fill: #54aead; stroke: #54aead"/>
    </g>
    <g clip-path="url(#p7cf783daa8)">
     <use xlink:href="#C2_0_0f640a45c6" x="318.164224" y="86.87357" style="fill: #54aead; stroke: #54aead"/>
    </g>
    <g clip-path="url(#p7cf783daa8)">
     <use xlink:href="#C2_0_0f640a45c6" x="321.6254" y="108.741588" style="fill: #54aead; stroke: #54aead"/>
    </g>
    <g clip-path="url(#p7cf783daa8)">
     <use xlink:href="#C2_0_0f640a45c6" x="322.062519" y="115.293579" style="fill: #54aead; stroke: #54aead"/>
    </g>
    <g clip-path="url(#p7cf783daa8)">
     <use xlink:href="#C2_0_0f640a45c6" x="317.315933" y="89.354685" style="fill: #54aead; stroke: #54aead"/>
    </g>
    <g clip-path="url(#p7cf783daa8)">
     <use xlink:href="#C2_0_0f640a45c6" x="309.333604" y="113.423537" style="fill: #54aead; stroke: #54aead"/>
    </g>
    <g clip-path="url(#p7cf783daa8)">
     <use xlink:href="#C2_0_0f640a45c6" x="316.195411" y="118.894549" style="fill: #54aead; stroke: #54aead"/>
    </g>
   </g>
   <g id="PathCollection_6"/>
   <g id="matplotlib.axis_5">
    <g id="xtick_5">
     <g id="line2d_33">
      <g>
       <use xlink:href="#mc47bf04785" x="274.908891" y="128.935817" style="stroke: #000000; stroke-width: 0.5"/>
      </g>
     </g>
     <g id="text_15">
      <!-- Control -->
      <g transform="translate(260.452016 142.014567) scale(0.08 -0.08)">
       <use xlink:href="#DejaVuSans-43"/>
       <use xlink:href="#DejaVuSans-6f" transform="translate(69.824219 0)"/>
       <use xlink:href="#DejaVuSans-6e" transform="translate(131.005859 0)"/>
       <use xlink:href="#DejaVuSans-74" transform="translate(194.384766 0)"/>
       <use xlink:href="#DejaVuSans-72" transform="translate(233.59375 0)"/>
       <use xlink:href="#DejaVuSans-6f" transform="translate(272.457031 0)"/>
       <use xlink:href="#DejaVuSans-6c" transform="translate(333.638672 0)"/>
      </g>
     </g>
    </g>
    <g id="xtick_6">
     <g id="line2d_34">
      <g>
       <use xlink:href="#mc47bf04785" x="318.522832" y="128.935817" style="stroke: #000000; stroke-width: 0.5"/>
      </g>
     </g>
     <g id="text_16">
      <!-- IFNg -->
      <g transform="translate(309.510332 142.014567) scale(0.08 -0.08)">
       <use xlink:href="#DejaVuSans-49"/>
       <use xlink:href="#DejaVuSans-46" transform="translate(29.492188 0)"/>
       <use xlink:href="#DejaVuSans-4e" transform="translate(87.011719 0)"/>
       <use xlink:href="#DejaVuSans-67" transform="translate(161.816406 0)"/>
      </g>
     </g>
    </g>
   </g>
   <g id="matplotlib.axis_6">
    <g id="ytick_9">
     <g id="line2d_35">
      <g>
       <use xlink:href="#me7d9c38629" x="253.10192" y="127.31774" style="stroke: #000000; stroke-width: 0.5"/>
      </g>
     </g>
    </g>
    <g id="ytick_10">
     <g id="line2d_36">
      <g>
       <use xlink:href="#me7d9c38629" x="253.10192" y="102.21457" style="stroke: #000000; stroke-width: 0.5"/>
      </g>
     </g>
    </g>
    <g id="ytick_11">
     <g id="line2d_37">
      <g>
       <use xlink:href="#me7d9c38629" x="253.10192" y="77.1114" style="stroke: #000000; stroke-width: 0.5"/>
      </g>
     </g>
    </g>
    <g id="ytick_12">
     <g id="line2d_38">
      <g>
       <use xlink:href="#me7d9c38629" x="253.10192" y="52.008231" style="stroke: #000000; stroke-width: 0.5"/>
      </g>
     </g>
    </g>
   </g>
   <g id="patch_17">
    <path d="M 264.005405 96.481603 
L 285.812376 96.481603 
L 285.812376 91.158681 
L 264.005405 91.158681 
L 264.005405 96.481603 
L 264.005405 96.481603 
z
" clip-path="url(#p7cf783daa8)" style="fill: none; stroke: #000000; stroke-width: 0.5; stroke-linejoin: miter"/>
   </g>
   <g id="line2d_39">
    <path d="M 274.908891 96.481603 
L 274.908891 101.972577 
" clip-path="url(#p7cf783daa8)" style="fill: none; stroke: #000000; stroke-width: 0.5; stroke-linecap: square"/>
   </g>
   <g id="line2d_40">
    <path d="M 274.908891 91.158681 
L 274.908891 85.784443 
" clip-path="url(#p7cf783daa8)" style="fill: none; stroke: #000000; stroke-width: 0.5; stroke-linecap: square"/>
   </g>
   <g id="line2d_41">
    <path d="M 269.457148 101.972577 
L 280.360633 101.972577 
" clip-path="url(#p7cf783daa8)" style="fill: none; stroke: #000000; stroke-width: 0.5; stroke-linecap: square"/>
   </g>
   <g id="line2d_42">
    <path d="M 269.457148 85.784443 
L 280.360633 85.784443 
" clip-path="url(#p7cf783daa8)" style="fill: none; stroke: #000000; stroke-width: 0.5; stroke-linecap: square"/>
   </g>
   <g id="patch_18">
    <path d="M 307.619347 115.293579 
L 329.426318 115.293579 
L 329.426318 89.354685 
L 307.619347 89.354685 
L 307.619347 115.293579 
L 307.619347 115.293579 
z
" clip-path="url(#p7cf783daa8)" style="fill: none; stroke: #000000; stroke-width: 0.5; stroke-linejoin: miter"/>
   </g>
   <g id="line2d_43">
    <path d="M 318.522832 115.293579 
L 318.522832 118.894549 
" clip-path="url(#p7cf783daa8)" style="fill: none; stroke: #000000; stroke-width: 0.5; stroke-linecap: square"/>
   </g>
   <g id="line2d_44">
    <path d="M 318.522832 89.354685 
L 318.522832 86.87357 
" clip-path="url(#p7cf783daa8)" style="fill: none; stroke: #000000; stroke-width: 0.5; stroke-linecap: square"/>
   </g>
   <g id="line2d_45">
    <path d="M 313.07109 118.894549 
L 323.974575 118.894549 
" clip-path="url(#p7cf783daa8)" style="fill: none; stroke: #000000; stroke-width: 0.5; stroke-linecap: square"/>
   </g>
   <g id="line2d_46">
    <path d="M 313.07109 86.87357 
L 323.974575 86.87357 
" clip-path="url(#p7cf783daa8)" style="fill: none; stroke: #000000; stroke-width: 0.5; stroke-linecap: square"/>
   </g>
   <g id="line2d_47">
    <path d="M 264.005405 93.564443 
L 285.812376 93.564443 
" clip-path="url(#p7cf783daa8)" style="fill: none; stroke: #000000; stroke-width: 0.5"/>
   </g>
   <g id="line2d_48">
    <path d="M 307.619347 112.028266 
L 329.426318 112.028266 
" clip-path="url(#p7cf783daa8)" style="fill: none; stroke: #000000; stroke-width: 0.5"/>
   </g>
   <g id="patch_19">
    <path d="M 253.10192 128.935817 
L 253.10192 30.715344 
" style="fill: none; stroke: #000000; stroke-width: 0.5; stroke-linejoin: miter; stroke-linecap: square"/>
   </g>
   <g id="patch_20">
    <path d="M 340.329803 128.935817 
L 340.329803 30.715344 
" style="fill: none; stroke: #000000; stroke-width: 0.5; stroke-linejoin: miter; stroke-linecap: square"/>
   </g>
   <g id="patch_21">
    <path d="M 253.10192 128.935817 
L 340.329803 128.935817 
" style="fill: none; stroke: #000000; stroke-width: 0.5; stroke-linejoin: miter; stroke-linecap: square"/>
   </g>
   <g id="patch_22">
    <path d="M 253.10192 30.715344 
L 340.329803 30.715344 
" style="fill: none; stroke: #000000; stroke-width: 0.5; stroke-linejoin: miter; stroke-linecap: square"/>
   </g>
   <g id="text_17">
    <!-- p = 0.03 -->
    <g transform="translate(279.375862 40.537392) scale(0.08 -0.08)">
     <use xlink:href="#DejaVuSans-70"/>
     <use xlink:href="#DejaVuSans-20" transform="translate(63.476562 0)"/>
     <use xlink:href="#DejaVuSans-3d" transform="translate(95.263672 0)"/>
     <use xlink:href="#DejaVuSans-20" transform="translate(179.052734 0)"/>
     <use xlink:href="#DejaVuSans-30" transform="translate(210.839844 0)"/>
     <use xlink:href="#DejaVuSans-2e" transform="translate(274.462891 0)"/>
     <use xlink:href="#DejaVuSans-30" transform="translate(306.25 0)"/>
     <use xlink:href="#DejaVuSans-33" transform="translate(369.873047 0)"/>
    </g>
   </g>
   <g id="text_18">
    <!-- Delta -->
    <g transform="translate(286.043987 24.715344) scale(0.08 -0.08)">
     <defs>
      <path id="DejaVuSans-44" d="M 1259 4147 
L 1259 519 
L 2022 519 
Q 2988 519 3436 956 
Q 3884 1394 3884 2338 
Q 3884 3275 3436 3711 
Q 2988 4147 2022 4147 
L 1259 4147 
z
M 628 4666 
L 1925 4666 
Q 3281 4666 3915 4102 
Q 4550 3538 4550 2338 
Q 4550 1131 3912 565 
Q 3275 0 1925 0 
L 628 0 
L 628 4666 
z
" transform="scale(0.015625)"/>
     </defs>
     <use xlink:href="#DejaVuSans-44"/>
     <use xlink:href="#DejaVuSans-65" transform="translate(77.001953 0)"/>
     <use xlink:href="#DejaVuSans-6c" transform="translate(138.525391 0)"/>
     <use xlink:href="#DejaVuSans-74" transform="translate(166.308594 0)"/>
     <use xlink:href="#DejaVuSans-61" transform="translate(205.517578 0)"/>
    </g>
   </g>
  </g>
 </g>
 <defs>
  <clipPath id="pec20fdd678">
   <rect x="43.755" y="30.715344" width="87.227883" height="98.220472"/>
  </clipPath>
  <clipPath id="p78a8099c0c">
   <rect x="148.42846" y="30.715344" width="87.227883" height="98.220472"/>
  </clipPath>
  <clipPath id="p7cf783daa8">
   <rect x="253.10192" y="30.715344" width="87.227883" height="98.220472"/>
  </clipPath>
 </defs>
</svg>
