<?xml version="1.0" encoding="utf-8" standalone="no"?>
<!DOCTYPE svg PUBLIC "-//W3C//DTD SVG 1.1//EN"
  "http://www.w3.org/Graphics/SVG/1.1/DTD/svg11.dtd">
<svg xmlns:xlink="http://www.w3.org/1999/xlink" width="347.529803pt" height="150.878317pt" viewBox="0 0 347.529803 150.878317" xmlns="http://www.w3.org/2000/svg" version="1.1">
 <metadata>
  <rdf:RDF xmlns:dc="http://purl.org/dc/elements/1.1/" xmlns:cc="http://creativecommons.org/ns#" xmlns:rdf="http://www.w3.org/1999/02/22-rdf-syntax-ns#">
   <cc:Work>
    <dc:type rdf:resource="http://purl.org/dc/dcmitype/StillImage"/>
    <dc:date>2025-04-24T20:03:20.907290</dc:date>
    <dc:format>image/svg+xml</dc:format>
    <dc:creator>
     <cc:Agent>
      <dc:title>Matplotlib v3.10.0, https://matplotlib.org/</dc:title>
     </cc:Agent>
    </dc:creator>
   </cc:Work>
  </rdf:RDF>
 </metadata>
 <defs>
  <style type="text/css">*{stroke-linejoin: round; stroke-linecap: butt}</style>
 </defs>
 <g id="figure_1">
  <g id="patch_1">
   <path d="M 0 150.878317 
L 347.529803 150.878317 
L 347.529803 0 
L 0 0 
L 0 150.878317 
z
" style="fill: none"/>
  </g>
  <g id="axes_1">
   <g id="patch_2">
    <path d="M 43.755 128.935817 
L 130.982883 128.935817 
L 130.982883 30.715344 
L 43.755 30.715344 
L 43.755 128.935817 
z
" style="fill: none"/>
   </g>
   <g id="PathCollection_1">
    <defs>
     <path id="C0_0_f50452d0bc" d="M 0 1.322876 
C 0.350831 1.322876 0.68734 1.183489 0.935414 0.935414 
C 1.183489 0.68734 1.322876 0.350831 1.322876 -0 
C 1.322876 -0.350831 1.183489 -0.68734 0.935414 -0.935414 
C 0.68734 -1.183489 0.350831 -1.322876 0 -1.322876 
C -0.350831 -1.322876 -0.68734 -1.183489 -0.935414 -0.935414 
C -1.183489 -0.68734 -1.322876 -0.350831 -1.322876 0 
C -1.322876 0.350831 -1.183489 0.68734 -0.935414 0.935414 
C -0.68734 1.183489 -0.350831 1.322876 0 1.322876 
z
"/>
    </defs>
    <g clip-path="url(#pf954b0674e)">
     <use xlink:href="#C0_0_f50452d0bc" x="55.539364" y="77.146335" style="fill: #cb334d; stroke: #cb334d"/>
    </g>
    <g clip-path="url(#pf954b0674e)">
     <use xlink:href="#C0_0_f50452d0bc" x="58.953322" y="71.174052" style="fill: #cb334d; stroke: #cb334d"/>
    </g>
    <g clip-path="url(#pf954b0674e)">
     <use xlink:href="#C0_0_f50452d0bc" x="63.087869" y="62.745328" style="fill: #cb334d; stroke: #cb334d"/>
    </g>
    <g clip-path="url(#pf954b0674e)">
     <use xlink:href="#C0_0_f50452d0bc" x="62.279453" y="76.082307" style="fill: #cb334d; stroke: #cb334d"/>
    </g>
    <g clip-path="url(#pf954b0674e)">
     <use xlink:href="#C0_0_f50452d0bc" x="59.002298" y="68.925778" style="fill: #cb334d; stroke: #cb334d"/>
    </g>
    <g clip-path="url(#pf954b0674e)">
     <use xlink:href="#C0_0_f50452d0bc" x="61.080669" y="62.865413" style="fill: #cb334d; stroke: #cb334d"/>
    </g>
    <g clip-path="url(#pf954b0674e)">
     <use xlink:href="#C0_0_f50452d0bc" x="55.493126" y="80.091146" style="fill: #cb334d; stroke: #cb334d"/>
    </g>
    <g clip-path="url(#pf954b0674e)">
     <use xlink:href="#C0_0_f50452d0bc" x="67.675888" y="73.32951" style="fill: #cb334d; stroke: #cb334d"/>
    </g>
    <g clip-path="url(#pf954b0674e)">
     <use xlink:href="#C0_0_f50452d0bc" x="64.510284" y="65.260575" style="fill: #cb334d; stroke: #cb334d"/>
    </g>
    <g clip-path="url(#pf954b0674e)">
     <use xlink:href="#C0_0_f50452d0bc" x="111.230275" y="65.86013" style="fill: #54aead; stroke: #54aead"/>
    </g>
    <g clip-path="url(#pf954b0674e)">
     <use xlink:href="#C0_0_f50452d0bc" x="109.521625" y="80.3211" style="fill: #54aead; stroke: #54aead"/>
    </g>
    <g clip-path="url(#pf954b0674e)">
     <use xlink:href="#C0_0_f50452d0bc" x="102.791111" y="91.021033" style="fill: #54aead; stroke: #54aead"/>
    </g>
    <g clip-path="url(#pf954b0674e)">
     <use xlink:href="#C0_0_f50452d0bc" x="104.159367" y="67.474183" style="fill: #54aead; stroke: #54aead"/>
    </g>
    <g clip-path="url(#pf954b0674e)">
     <use xlink:href="#C0_0_f50452d0bc" x="104.721561" y="79.931727" style="fill: #54aead; stroke: #54aead"/>
    </g>
    <g clip-path="url(#pf954b0674e)">
     <use xlink:href="#C0_0_f50452d0bc" x="108.468825" y="89.006533" style="fill: #54aead; stroke: #54aead"/>
    </g>
    <g clip-path="url(#pf954b0674e)">
     <use xlink:href="#C0_0_f50452d0bc" x="98.423339" y="71.221529" style="fill: #54aead; stroke: #54aead"/>
    </g>
    <g clip-path="url(#pf954b0674e)">
     <use xlink:href="#C0_0_f50452d0bc" x="111.115824" y="84.207496" style="fill: #54aead; stroke: #54aead"/>
    </g>
    <g clip-path="url(#pf954b0674e)">
     <use xlink:href="#C0_0_f50452d0bc" x="113.448432" y="95.454801" style="fill: #54aead; stroke: #54aead"/>
    </g>
   </g>
   <g id="PathCollection_2"/>
   <g id="matplotlib.axis_1">
    <g id="xtick_1">
     <g id="line2d_1">
      <defs>
       <path id="m803675d692" d="M 0 0 
L 0 3.5 
" style="stroke: #000000; stroke-width: 0.5"/>
      </defs>
      <g>
       <use xlink:href="#m803675d692" x="65.561971" y="128.935817" style="stroke: #000000; stroke-width: 0.5"/>
      </g>
     </g>
     <g id="text_1">
      <!-- Control -->
      <g transform="translate(51.105096 142.014567) scale(0.08 -0.08)">
       <defs>
        <path id="DejaVuSans-43" d="M 4122 4306 
L 4122 3641 
Q 3803 3938 3442 4084 
Q 3081 4231 2675 4231 
Q 1875 4231 1450 3742 
Q 1025 3253 1025 2328 
Q 1025 1406 1450 917 
Q 1875 428 2675 428 
Q 3081 428 3442 575 
Q 3803 722 4122 1019 
L 4122 359 
Q 3791 134 3420 21 
Q 3050 -91 2638 -91 
Q 1578 -91 968 557 
Q 359 1206 359 2328 
Q 359 3453 968 4101 
Q 1578 4750 2638 4750 
Q 3056 4750 3426 4639 
Q 3797 4528 4122 4306 
z
" transform="scale(0.015625)"/>
        <path id="DejaVuSans-6f" d="M 1959 3097 
Q 1497 3097 1228 2736 
Q 959 2375 959 1747 
Q 959 1119 1226 758 
Q 1494 397 1959 397 
Q 2419 397 2687 759 
Q 2956 1122 2956 1747 
Q 2956 2369 2687 2733 
Q 2419 3097 1959 3097 
z
M 1959 3584 
Q 2709 3584 3137 3096 
Q 3566 2609 3566 1747 
Q 3566 888 3137 398 
Q 2709 -91 1959 -91 
Q 1206 -91 779 398 
Q 353 888 353 1747 
Q 353 2609 779 3096 
Q 1206 3584 1959 3584 
z
" transform="scale(0.015625)"/>
        <path id="DejaVuSans-6e" d="M 3513 2113 
L 3513 0 
L 2938 0 
L 2938 2094 
Q 2938 2591 2744 2837 
Q 2550 3084 2163 3084 
Q 1697 3084 1428 2787 
Q 1159 2491 1159 1978 
L 1159 0 
L 581 0 
L 581 3500 
L 1159 3500 
L 1159 2956 
Q 1366 3272 1645 3428 
Q 1925 3584 2291 3584 
Q 2894 3584 3203 3211 
Q 3513 2838 3513 2113 
z
" transform="scale(0.015625)"/>
        <path id="DejaVuSans-74" d="M 1172 4494 
L 1172 3500 
L 2356 3500 
L 2356 3053 
L 1172 3053 
L 1172 1153 
Q 1172 725 1289 603 
Q 1406 481 1766 481 
L 2356 481 
L 2356 0 
L 1766 0 
Q 1100 0 847 248 
Q 594 497 594 1153 
L 594 3053 
L 172 3053 
L 172 3500 
L 594 3500 
L 594 4494 
L 1172 4494 
z
" transform="scale(0.015625)"/>
        <path id="DejaVuSans-72" d="M 2631 2963 
Q 2534 3019 2420 3045 
Q 2306 3072 2169 3072 
Q 1681 3072 1420 2755 
Q 1159 2438 1159 1844 
L 1159 0 
L 581 0 
L 581 3500 
L 1159 3500 
L 1159 2956 
Q 1341 3275 1631 3429 
Q 1922 3584 2338 3584 
Q 2397 3584 2469 3576 
Q 2541 3569 2628 3553 
L 2631 2963 
z
" transform="scale(0.015625)"/>
        <path id="DejaVuSans-6c" d="M 603 4863 
L 1178 4863 
L 1178 0 
L 603 0 
L 603 4863 
z
" transform="scale(0.015625)"/>
       </defs>
       <use xlink:href="#DejaVuSans-43"/>
       <use xlink:href="#DejaVuSans-6f" transform="translate(69.824219 0)"/>
       <use xlink:href="#DejaVuSans-6e" transform="translate(131.005859 0)"/>
       <use xlink:href="#DejaVuSans-74" transform="translate(194.384766 0)"/>
       <use xlink:href="#DejaVuSans-72" transform="translate(233.59375 0)"/>
       <use xlink:href="#DejaVuSans-6f" transform="translate(272.457031 0)"/>
       <use xlink:href="#DejaVuSans-6c" transform="translate(333.638672 0)"/>
      </g>
     </g>
    </g>
    <g id="xtick_2">
     <g id="line2d_2">
      <g>
       <use xlink:href="#m803675d692" x="109.175912" y="128.935817" style="stroke: #000000; stroke-width: 0.5"/>
      </g>
     </g>
     <g id="text_2">
      <!-- IFNg -->
      <g transform="translate(100.163412 142.014567) scale(0.08 -0.08)">
       <defs>
        <path id="DejaVuSans-49" d="M 628 4666 
L 1259 4666 
L 1259 0 
L 628 0 
L 628 4666 
z
" transform="scale(0.015625)"/>
        <path id="DejaVuSans-46" d="M 628 4666 
L 3309 4666 
L 3309 4134 
L 1259 4134 
L 1259 2759 
L 3109 2759 
L 3109 2228 
L 1259 2228 
L 1259 0 
L 628 0 
L 628 4666 
z
" transform="scale(0.015625)"/>
        <path id="DejaVuSans-4e" d="M 628 4666 
L 1478 4666 
L 3547 763 
L 3547 4666 
L 4159 4666 
L 4159 0 
L 3309 0 
L 1241 3903 
L 1241 0 
L 628 0 
L 628 4666 
z
" transform="scale(0.015625)"/>
        <path id="DejaVuSans-67" d="M 2906 1791 
Q 2906 2416 2648 2759 
Q 2391 3103 1925 3103 
Q 1463 3103 1205 2759 
Q 947 2416 947 1791 
Q 947 1169 1205 825 
Q 1463 481 1925 481 
Q 2391 481 2648 825 
Q 2906 1169 2906 1791 
z
M 3481 434 
Q 3481 -459 3084 -895 
Q 2688 -1331 1869 -1331 
Q 1566 -1331 1297 -1286 
Q 1028 -1241 775 -1147 
L 775 -588 
Q 1028 -725 1275 -790 
Q 1522 -856 1778 -856 
Q 2344 -856 2625 -561 
Q 2906 -266 2906 331 
L 2906 616 
Q 2728 306 2450 153 
Q 2172 0 1784 0 
Q 1141 0 747 490 
Q 353 981 353 1791 
Q 353 2603 747 3093 
Q 1141 3584 1784 3584 
Q 2172 3584 2450 3431 
Q 2728 3278 2906 2969 
L 2906 3500 
L 3481 3500 
L 3481 434 
z
" transform="scale(0.015625)"/>
       </defs>
       <use xlink:href="#DejaVuSans-49"/>
       <use xlink:href="#DejaVuSans-46" transform="translate(29.492188 0)"/>
       <use xlink:href="#DejaVuSans-4e" transform="translate(87.011719 0)"/>
       <use xlink:href="#DejaVuSans-67" transform="translate(161.816406 0)"/>
      </g>
     </g>
    </g>
   </g>
   <g id="matplotlib.axis_2">
    <g id="ytick_1">
     <g id="line2d_3">
      <defs>
       <path id="mb58188e854" d="M 0 0 
L -3.5 0 
" style="stroke: #000000; stroke-width: 0.5"/>
      </defs>
      <g>
       <use xlink:href="#mb58188e854" x="43.755" y="119.384541" style="stroke: #000000; stroke-width: 0.5"/>
      </g>
     </g>
     <g id="text_3">
      <!-- 0.30 -->
      <g transform="translate(18.9425 122.423916) scale(0.08 -0.08)">
       <defs>
        <path id="DejaVuSans-30" d="M 2034 4250 
Q 1547 4250 1301 3770 
Q 1056 3291 1056 2328 
Q 1056 1369 1301 889 
Q 1547 409 2034 409 
Q 2525 409 2770 889 
Q 3016 1369 3016 2328 
Q 3016 3291 2770 3770 
Q 2525 4250 2034 4250 
z
M 2034 4750 
Q 2819 4750 3233 4129 
Q 3647 3509 3647 2328 
Q 3647 1150 3233 529 
Q 2819 -91 2034 -91 
Q 1250 -91 836 529 
Q 422 1150 422 2328 
Q 422 3509 836 4129 
Q 1250 4750 2034 4750 
z
" transform="scale(0.015625)"/>
        <path id="DejaVuSans-2e" d="M 684 794 
L 1344 794 
L 1344 0 
L 684 0 
L 684 794 
z
" transform="scale(0.015625)"/>
        <path id="DejaVuSans-33" d="M 2597 2516 
Q 3050 2419 3304 2112 
Q 3559 1806 3559 1356 
Q 3559 666 3084 287 
Q 2609 -91 1734 -91 
Q 1441 -91 1130 -33 
Q 819 25 488 141 
L 488 750 
Q 750 597 1062 519 
Q 1375 441 1716 441 
Q 2309 441 2620 675 
Q 2931 909 2931 1356 
Q 2931 1769 2642 2001 
Q 2353 2234 1838 2234 
L 1294 2234 
L 1294 2753 
L 1863 2753 
Q 2328 2753 2575 2939 
Q 2822 3125 2822 3475 
Q 2822 3834 2567 4026 
Q 2313 4219 1838 4219 
Q 1578 4219 1281 4162 
Q 984 4106 628 3988 
L 628 4550 
Q 988 4650 1302 4700 
Q 1616 4750 1894 4750 
Q 2613 4750 3031 4423 
Q 3450 4097 3450 3541 
Q 3450 3153 3228 2886 
Q 3006 2619 2597 2516 
z
" transform="scale(0.015625)"/>
       </defs>
       <use xlink:href="#DejaVuSans-30"/>
       <use xlink:href="#DejaVuSans-2e" transform="translate(63.623047 0)"/>
       <use xlink:href="#DejaVuSans-33" transform="translate(95.410156 0)"/>
       <use xlink:href="#DejaVuSans-30" transform="translate(159.033203 0)"/>
      </g>
     </g>
    </g>
    <g id="ytick_2">
     <g id="line2d_4">
      <g>
       <use xlink:href="#mb58188e854" x="43.755" y="93.391082" style="stroke: #000000; stroke-width: 0.5"/>
      </g>
     </g>
     <g id="text_4">
      <!-- 0.35 -->
      <g transform="translate(18.9425 96.430457) scale(0.08 -0.08)">
       <defs>
        <path id="DejaVuSans-35" d="M 691 4666 
L 3169 4666 
L 3169 4134 
L 1269 4134 
L 1269 2991 
Q 1406 3038 1543 3061 
Q 1681 3084 1819 3084 
Q 2600 3084 3056 2656 
Q 3513 2228 3513 1497 
Q 3513 744 3044 326 
Q 2575 -91 1722 -91 
Q 1428 -91 1123 -41 
Q 819 9 494 109 
L 494 744 
Q 775 591 1075 516 
Q 1375 441 1709 441 
Q 2250 441 2565 725 
Q 2881 1009 2881 1497 
Q 2881 1984 2565 2268 
Q 2250 2553 1709 2553 
Q 1456 2553 1204 2497 
Q 953 2441 691 2322 
L 691 4666 
z
" transform="scale(0.015625)"/>
       </defs>
       <use xlink:href="#DejaVuSans-30"/>
       <use xlink:href="#DejaVuSans-2e" transform="translate(63.623047 0)"/>
       <use xlink:href="#DejaVuSans-33" transform="translate(95.410156 0)"/>
       <use xlink:href="#DejaVuSans-35" transform="translate(159.033203 0)"/>
      </g>
     </g>
    </g>
    <g id="ytick_3">
     <g id="line2d_5">
      <g>
       <use xlink:href="#mb58188e854" x="43.755" y="67.397624" style="stroke: #000000; stroke-width: 0.5"/>
      </g>
     </g>
     <g id="text_5">
      <!-- 0.40 -->
      <g transform="translate(18.9425 70.436999) scale(0.08 -0.08)">
       <defs>
        <path id="DejaVuSans-34" d="M 2419 4116 
L 825 1625 
L 2419 1625 
L 2419 4116 
z
M 2253 4666 
L 3047 4666 
L 3047 1625 
L 3713 1625 
L 3713 1100 
L 3047 1100 
L 3047 0 
L 2419 0 
L 2419 1100 
L 313 1100 
L 313 1709 
L 2253 4666 
z
" transform="scale(0.015625)"/>
       </defs>
       <use xlink:href="#DejaVuSans-30"/>
       <use xlink:href="#DejaVuSans-2e" transform="translate(63.623047 0)"/>
       <use xlink:href="#DejaVuSans-34" transform="translate(95.410156 0)"/>
       <use xlink:href="#DejaVuSans-30" transform="translate(159.033203 0)"/>
      </g>
     </g>
    </g>
    <g id="ytick_4">
     <g id="line2d_6">
      <g>
       <use xlink:href="#mb58188e854" x="43.755" y="41.404165" style="stroke: #000000; stroke-width: 0.5"/>
      </g>
     </g>
     <g id="text_6">
      <!-- 0.45 -->
      <g transform="translate(18.9425 44.44354) scale(0.08 -0.08)">
       <use xlink:href="#DejaVuSans-30"/>
       <use xlink:href="#DejaVuSans-2e" transform="translate(63.623047 0)"/>
       <use xlink:href="#DejaVuSans-34" transform="translate(95.410156 0)"/>
       <use xlink:href="#DejaVuSans-35" transform="translate(159.033203 0)"/>
      </g>
     </g>
    </g>
    <g id="text_7">
     <!-- Pearson's R -->
     <g transform="translate(13.27875 102.949331) rotate(-90) scale(0.08 -0.08)">
      <defs>
       <path id="DejaVuSans-50" d="M 1259 4147 
L 1259 2394 
L 2053 2394 
Q 2494 2394 2734 2622 
Q 2975 2850 2975 3272 
Q 2975 3691 2734 3919 
Q 2494 4147 2053 4147 
L 1259 4147 
z
M 628 4666 
L 2053 4666 
Q 2838 4666 3239 4311 
Q 3641 3956 3641 3272 
Q 3641 2581 3239 2228 
Q 2838 1875 2053 1875 
L 1259 1875 
L 1259 0 
L 628 0 
L 628 4666 
z
" transform="scale(0.015625)"/>
       <path id="DejaVuSans-65" d="M 3597 1894 
L 3597 1613 
L 953 1613 
Q 991 1019 1311 708 
Q 1631 397 2203 397 
Q 2534 397 2845 478 
Q 3156 559 3463 722 
L 3463 178 
Q 3153 47 2828 -22 
Q 2503 -91 2169 -91 
Q 1331 -91 842 396 
Q 353 884 353 1716 
Q 353 2575 817 3079 
Q 1281 3584 2069 3584 
Q 2775 3584 3186 3129 
Q 3597 2675 3597 1894 
z
M 3022 2063 
Q 3016 2534 2758 2815 
Q 2500 3097 2075 3097 
Q 1594 3097 1305 2825 
Q 1016 2553 972 2059 
L 3022 2063 
z
" transform="scale(0.015625)"/>
       <path id="DejaVuSans-61" d="M 2194 1759 
Q 1497 1759 1228 1600 
Q 959 1441 959 1056 
Q 959 750 1161 570 
Q 1363 391 1709 391 
Q 2188 391 2477 730 
Q 2766 1069 2766 1631 
L 2766 1759 
L 2194 1759 
z
M 3341 1997 
L 3341 0 
L 2766 0 
L 2766 531 
Q 2569 213 2275 61 
Q 1981 -91 1556 -91 
Q 1019 -91 701 211 
Q 384 513 384 1019 
Q 384 1609 779 1909 
Q 1175 2209 1959 2209 
L 2766 2209 
L 2766 2266 
Q 2766 2663 2505 2880 
Q 2244 3097 1772 3097 
Q 1472 3097 1187 3025 
Q 903 2953 641 2809 
L 641 3341 
Q 956 3463 1253 3523 
Q 1550 3584 1831 3584 
Q 2591 3584 2966 3190 
Q 3341 2797 3341 1997 
z
" transform="scale(0.015625)"/>
       <path id="DejaVuSans-73" d="M 2834 3397 
L 2834 2853 
Q 2591 2978 2328 3040 
Q 2066 3103 1784 3103 
Q 1356 3103 1142 2972 
Q 928 2841 928 2578 
Q 928 2378 1081 2264 
Q 1234 2150 1697 2047 
L 1894 2003 
Q 2506 1872 2764 1633 
Q 3022 1394 3022 966 
Q 3022 478 2636 193 
Q 2250 -91 1575 -91 
Q 1294 -91 989 -36 
Q 684 19 347 128 
L 347 722 
Q 666 556 975 473 
Q 1284 391 1588 391 
Q 1994 391 2212 530 
Q 2431 669 2431 922 
Q 2431 1156 2273 1281 
Q 2116 1406 1581 1522 
L 1381 1569 
Q 847 1681 609 1914 
Q 372 2147 372 2553 
Q 372 3047 722 3315 
Q 1072 3584 1716 3584 
Q 2034 3584 2315 3537 
Q 2597 3491 2834 3397 
z
" transform="scale(0.015625)"/>
       <path id="DejaVuSans-27" d="M 1147 4666 
L 1147 2931 
L 616 2931 
L 616 4666 
L 1147 4666 
z
" transform="scale(0.015625)"/>
       <path id="DejaVuSans-20" transform="scale(0.015625)"/>
       <path id="DejaVuSans-52" d="M 2841 2188 
Q 3044 2119 3236 1894 
Q 3428 1669 3622 1275 
L 4263 0 
L 3584 0 
L 2988 1197 
Q 2756 1666 2539 1819 
Q 2322 1972 1947 1972 
L 1259 1972 
L 1259 0 
L 628 0 
L 628 4666 
L 2053 4666 
Q 2853 4666 3247 4331 
Q 3641 3997 3641 3322 
Q 3641 2881 3436 2590 
Q 3231 2300 2841 2188 
z
M 1259 4147 
L 1259 2491 
L 2053 2491 
Q 2509 2491 2742 2702 
Q 2975 2913 2975 3322 
Q 2975 3731 2742 3939 
Q 2509 4147 2053 4147 
L 1259 4147 
z
" transform="scale(0.015625)"/>
      </defs>
      <use xlink:href="#DejaVuSans-50"/>
      <use xlink:href="#DejaVuSans-65" transform="translate(56.677734 0)"/>
      <use xlink:href="#DejaVuSans-61" transform="translate(118.201172 0)"/>
      <use xlink:href="#DejaVuSans-72" transform="translate(179.480469 0)"/>
      <use xlink:href="#DejaVuSans-73" transform="translate(220.59375 0)"/>
      <use xlink:href="#DejaVuSans-6f" transform="translate(272.693359 0)"/>
      <use xlink:href="#DejaVuSans-6e" transform="translate(333.875 0)"/>
      <use xlink:href="#DejaVuSans-27" transform="translate(397.253906 0)"/>
      <use xlink:href="#DejaVuSans-73" transform="translate(424.744141 0)"/>
      <use xlink:href="#DejaVuSans-20" transform="translate(476.84375 0)"/>
      <use xlink:href="#DejaVuSans-52" transform="translate(508.630859 0)"/>
     </g>
    </g>
   </g>
   <g id="patch_3">
    <path d="M 54.658485 76.082307 
L 76.465456 76.082307 
L 76.465456 65.260575 
L 54.658485 65.260575 
L 54.658485 76.082307 
L 54.658485 76.082307 
z
" clip-path="url(#pf954b0674e)" style="fill: none; stroke: #000000; stroke-width: 0.5; stroke-linejoin: miter"/>
   </g>
   <g id="line2d_7">
    <path d="M 65.561971 76.082307 
L 65.561971 80.091146 
" clip-path="url(#pf954b0674e)" style="fill: none; stroke: #000000; stroke-width: 0.5; stroke-linecap: square"/>
   </g>
   <g id="line2d_8">
    <path d="M 65.561971 65.260575 
L 65.561971 62.745328 
" clip-path="url(#pf954b0674e)" style="fill: none; stroke: #000000; stroke-width: 0.5; stroke-linecap: square"/>
   </g>
   <g id="line2d_9">
    <path d="M 60.110228 80.091146 
L 71.013714 80.091146 
" clip-path="url(#pf954b0674e)" style="fill: none; stroke: #000000; stroke-width: 0.5; stroke-linecap: square"/>
   </g>
   <g id="line2d_10">
    <path d="M 60.110228 62.745328 
L 71.013714 62.745328 
" clip-path="url(#pf954b0674e)" style="fill: none; stroke: #000000; stroke-width: 0.5; stroke-linecap: square"/>
   </g>
   <g id="patch_4">
    <path d="M 98.272427 89.006533 
L 120.079398 89.006533 
L 120.079398 71.221529 
L 98.272427 71.221529 
L 98.272427 89.006533 
L 98.272427 89.006533 
z
" clip-path="url(#pf954b0674e)" style="fill: none; stroke: #000000; stroke-width: 0.5; stroke-linejoin: miter"/>
   </g>
   <g id="line2d_11">
    <path d="M 109.175912 89.006533 
L 109.175912 95.454801 
" clip-path="url(#pf954b0674e)" style="fill: none; stroke: #000000; stroke-width: 0.5; stroke-linecap: square"/>
   </g>
   <g id="line2d_12">
    <path d="M 109.175912 71.221529 
L 109.175912 65.86013 
" clip-path="url(#pf954b0674e)" style="fill: none; stroke: #000000; stroke-width: 0.5; stroke-linecap: square"/>
   </g>
   <g id="line2d_13">
    <path d="M 103.72417 95.454801 
L 114.627655 95.454801 
" clip-path="url(#pf954b0674e)" style="fill: none; stroke: #000000; stroke-width: 0.5; stroke-linecap: square"/>
   </g>
   <g id="line2d_14">
    <path d="M 103.72417 65.86013 
L 114.627655 65.86013 
" clip-path="url(#pf954b0674e)" style="fill: none; stroke: #000000; stroke-width: 0.5; stroke-linecap: square"/>
   </g>
   <g id="line2d_15">
    <path d="M 54.658485 71.174052 
L 76.465456 71.174052 
" clip-path="url(#pf954b0674e)" style="fill: none; stroke: #000000; stroke-width: 0.5"/>
   </g>
   <g id="line2d_16">
    <path d="M 98.272427 80.3211 
L 120.079398 80.3211 
" clip-path="url(#pf954b0674e)" style="fill: none; stroke: #000000; stroke-width: 0.5"/>
   </g>
   <g id="patch_5">
    <path d="M 43.755 128.935817 
L 43.755 30.715344 
" style="fill: none; stroke: #000000; stroke-width: 0.5; stroke-linejoin: miter; stroke-linecap: square"/>
   </g>
   <g id="patch_6">
    <path d="M 130.982883 128.935817 
L 130.982883 30.715344 
" style="fill: none; stroke: #000000; stroke-width: 0.5; stroke-linejoin: miter; stroke-linecap: square"/>
   </g>
   <g id="patch_7">
    <path d="M 43.755 128.935817 
L 130.982883 128.935817 
" style="fill: none; stroke: #000000; stroke-width: 0.5; stroke-linejoin: miter; stroke-linecap: square"/>
   </g>
   <g id="patch_8">
    <path d="M 43.755 30.715344 
L 130.982883 30.715344 
" style="fill: none; stroke: #000000; stroke-width: 0.5; stroke-linejoin: miter; stroke-linecap: square"/>
   </g>
   <g id="text_8">
    <!-- p = 0.032 -->
    <g transform="translate(67.483942 40.537392) scale(0.08 -0.08)">
     <defs>
      <path id="DejaVuSans-70" d="M 1159 525 
L 1159 -1331 
L 581 -1331 
L 581 3500 
L 1159 3500 
L 1159 2969 
Q 1341 3281 1617 3432 
Q 1894 3584 2278 3584 
Q 2916 3584 3314 3078 
Q 3713 2572 3713 1747 
Q 3713 922 3314 415 
Q 2916 -91 2278 -91 
Q 1894 -91 1617 61 
Q 1341 213 1159 525 
z
M 3116 1747 
Q 3116 2381 2855 2742 
Q 2594 3103 2138 3103 
Q 1681 3103 1420 2742 
Q 1159 2381 1159 1747 
Q 1159 1113 1420 752 
Q 1681 391 2138 391 
Q 2594 391 2855 752 
Q 3116 1113 3116 1747 
z
" transform="scale(0.015625)"/>
      <path id="DejaVuSans-3d" d="M 678 2906 
L 4684 2906 
L 4684 2381 
L 678 2381 
L 678 2906 
z
M 678 1631 
L 4684 1631 
L 4684 1100 
L 678 1100 
L 678 1631 
z
" transform="scale(0.015625)"/>
      <path id="DejaVuSans-32" d="M 1228 531 
L 3431 531 
L 3431 0 
L 469 0 
L 469 531 
Q 828 903 1448 1529 
Q 2069 2156 2228 2338 
Q 2531 2678 2651 2914 
Q 2772 3150 2772 3378 
Q 2772 3750 2511 3984 
Q 2250 4219 1831 4219 
Q 1534 4219 1204 4116 
Q 875 4013 500 3803 
L 500 4441 
Q 881 4594 1212 4672 
Q 1544 4750 1819 4750 
Q 2544 4750 2975 4387 
Q 3406 4025 3406 3419 
Q 3406 3131 3298 2873 
Q 3191 2616 2906 2266 
Q 2828 2175 2409 1742 
Q 1991 1309 1228 531 
z
" transform="scale(0.015625)"/>
     </defs>
     <use xlink:href="#DejaVuSans-70"/>
     <use xlink:href="#DejaVuSans-20" transform="translate(63.476562 0)"/>
     <use xlink:href="#DejaVuSans-3d" transform="translate(95.263672 0)"/>
     <use xlink:href="#DejaVuSans-20" transform="translate(179.052734 0)"/>
     <use xlink:href="#DejaVuSans-30" transform="translate(210.839844 0)"/>
     <use xlink:href="#DejaVuSans-2e" transform="translate(274.462891 0)"/>
     <use xlink:href="#DejaVuSans-30" transform="translate(306.25 0)"/>
     <use xlink:href="#DejaVuSans-33" transform="translate(369.873047 0)"/>
     <use xlink:href="#DejaVuSans-32" transform="translate(433.496094 0)"/>
    </g>
   </g>
   <g id="text_9">
    <!-- C -->
    <g transform="translate(13.225241 13.27875) scale(0.08 -0.08)">
     <defs>
      <path id="DejaVuSans-Bold-43" d="M 4288 256 
Q 3956 84 3597 -3 
Q 3238 -91 2847 -91 
Q 1681 -91 1000 561 
Q 319 1213 319 2328 
Q 319 3447 1000 4098 
Q 1681 4750 2847 4750 
Q 3238 4750 3597 4662 
Q 3956 4575 4288 4403 
L 4288 3438 
Q 3953 3666 3628 3772 
Q 3303 3878 2944 3878 
Q 2300 3878 1931 3465 
Q 1563 3053 1563 2328 
Q 1563 1606 1931 1193 
Q 2300 781 2944 781 
Q 3303 781 3628 887 
Q 3953 994 4288 1222 
L 4288 256 
z
" transform="scale(0.015625)"/>
     </defs>
     <use xlink:href="#DejaVuSans-Bold-43"/>
    </g>
   </g>
   <g id="text_10">
    <!-- Alpha -->
    <g transform="translate(75.995817 24.715344) scale(0.08 -0.08)">
     <defs>
      <path id="DejaVuSans-41" d="M 2188 4044 
L 1331 1722 
L 3047 1722 
L 2188 4044 
z
M 1831 4666 
L 2547 4666 
L 4325 0 
L 3669 0 
L 3244 1197 
L 1141 1197 
L 716 0 
L 50 0 
L 1831 4666 
z
" transform="scale(0.015625)"/>
      <path id="DejaVuSans-68" d="M 3513 2113 
L 3513 0 
L 2938 0 
L 2938 2094 
Q 2938 2591 2744 2837 
Q 2550 3084 2163 3084 
Q 1697 3084 1428 2787 
Q 1159 2491 1159 1978 
L 1159 0 
L 581 0 
L 581 4863 
L 1159 4863 
L 1159 2956 
Q 1366 3272 1645 3428 
Q 1925 3584 2291 3584 
Q 2894 3584 3203 3211 
Q 3513 2838 3513 2113 
z
" transform="scale(0.015625)"/>
     </defs>
     <use xlink:href="#DejaVuSans-41"/>
     <use xlink:href="#DejaVuSans-6c" transform="translate(68.408203 0)"/>
     <use xlink:href="#DejaVuSans-70" transform="translate(96.191406 0)"/>
     <use xlink:href="#DejaVuSans-68" transform="translate(159.667969 0)"/>
     <use xlink:href="#DejaVuSans-61" transform="translate(223.046875 0)"/>
    </g>
   </g>
  </g>
  <g id="axes_2">
   <g id="patch_9">
    <path d="M 148.42846 128.935817 
L 235.656343 128.935817 
L 235.656343 30.715344 
L 148.42846 30.715344 
L 148.42846 128.935817 
z
" style="fill: none"/>
   </g>
   <g id="PathCollection_3">
    <defs>
     <path id="C1_0_626321e626" d="M 0 1.322876 
C 0.350831 1.322876 0.68734 1.183489 0.935414 0.935414 
C 1.183489 0.68734 1.322876 0.350831 1.322876 -0 
C 1.322876 -0.350831 1.183489 -0.68734 0.935414 -0.935414 
C 0.68734 -1.183489 0.350831 -1.322876 0 -1.322876 
C -0.350831 -1.322876 -0.68734 -1.183489 -0.935414 -0.935414 
C -1.183489 -0.68734 -1.322876 -0.350831 -1.322876 0 
C -1.322876 0.350831 -1.183489 0.68734 -0.935414 0.935414 
C -0.68734 1.183489 -0.350831 1.322876 0 1.322876 
z
"/>
    </defs>
    <g clip-path="url(#p5327cbd72e)">
     <use xlink:href="#C1_0_626321e626" x="166.066179" y="55.232133" style="fill: #cb334d; stroke: #cb334d"/>
    </g>
    <g clip-path="url(#p5327cbd72e)">
     <use xlink:href="#C1_0_626321e626" x="171.978506" y="50.545943" style="fill: #cb334d; stroke: #cb334d"/>
    </g>
    <g clip-path="url(#p5327cbd72e)">
     <use xlink:href="#C1_0_626321e626" x="172.332036" y="64.611966" style="fill: #cb334d; stroke: #cb334d"/>
    </g>
    <g clip-path="url(#p5327cbd72e)">
     <use xlink:href="#C1_0_626321e626" x="167.929493" y="51.505122" style="fill: #cb334d; stroke: #cb334d"/>
    </g>
    <g clip-path="url(#p5327cbd72e)">
     <use xlink:href="#C1_0_626321e626" x="173.25285" y="46.31142" style="fill: #cb334d; stroke: #cb334d"/>
    </g>
    <g clip-path="url(#p5327cbd72e)">
     <use xlink:href="#C1_0_626321e626" x="166.921327" y="61.585406" style="fill: #cb334d; stroke: #cb334d"/>
    </g>
    <g clip-path="url(#p5327cbd72e)">
     <use xlink:href="#C1_0_626321e626" x="172.021259" y="53.258239" style="fill: #cb334d; stroke: #cb334d"/>
    </g>
    <g clip-path="url(#p5327cbd72e)">
     <use xlink:href="#C1_0_626321e626" x="179.934371" y="49.571261" style="fill: #cb334d; stroke: #cb334d"/>
    </g>
    <g clip-path="url(#p5327cbd72e)">
     <use xlink:href="#C1_0_626321e626" x="166.514225" y="64.547181" style="fill: #cb334d; stroke: #cb334d"/>
    </g>
    <g clip-path="url(#p5327cbd72e)">
     <use xlink:href="#C1_0_626321e626" x="210.156583" y="61.183022" style="fill: #54aead; stroke: #54aead"/>
    </g>
    <g clip-path="url(#p5327cbd72e)">
     <use xlink:href="#C1_0_626321e626" x="218.601599" y="56.787299" style="fill: #54aead; stroke: #54aead"/>
    </g>
    <g clip-path="url(#p5327cbd72e)">
     <use xlink:href="#C1_0_626321e626" x="212.838484" y="55.062934" style="fill: #54aead; stroke: #54aead"/>
    </g>
    <g clip-path="url(#p5327cbd72e)">
     <use xlink:href="#C1_0_626321e626" x="220.154146" y="60.747501" style="fill: #54aead; stroke: #54aead"/>
    </g>
    <g clip-path="url(#p5327cbd72e)">
     <use xlink:href="#C1_0_626321e626" x="214.454306" y="56.347197" style="fill: #54aead; stroke: #54aead"/>
    </g>
    <g clip-path="url(#p5327cbd72e)">
     <use xlink:href="#C1_0_626321e626" x="208.573124" y="54.648242" style="fill: #54aead; stroke: #54aead"/>
    </g>
    <g clip-path="url(#p5327cbd72e)">
     <use xlink:href="#C1_0_626321e626" x="219.657136" y="61.045223" style="fill: #54aead; stroke: #54aead"/>
    </g>
    <g clip-path="url(#p5327cbd72e)">
     <use xlink:href="#C1_0_626321e626" x="210.50494" y="56.457061" style="fill: #54aead; stroke: #54aead"/>
    </g>
    <g clip-path="url(#p5327cbd72e)">
     <use xlink:href="#C1_0_626321e626" x="209.828719" y="55.137175" style="fill: #54aead; stroke: #54aead"/>
    </g>
   </g>
   <g id="PathCollection_4"/>
   <g id="matplotlib.axis_3">
    <g id="xtick_3">
     <g id="line2d_17">
      <g>
       <use xlink:href="#m803675d692" x="170.235431" y="128.935817" style="stroke: #000000; stroke-width: 0.5"/>
      </g>
     </g>
     <g id="text_11">
      <!-- Control -->
      <g transform="translate(155.778556 142.014567) scale(0.08 -0.08)">
       <use xlink:href="#DejaVuSans-43"/>
       <use xlink:href="#DejaVuSans-6f" transform="translate(69.824219 0)"/>
       <use xlink:href="#DejaVuSans-6e" transform="translate(131.005859 0)"/>
       <use xlink:href="#DejaVuSans-74" transform="translate(194.384766 0)"/>
       <use xlink:href="#DejaVuSans-72" transform="translate(233.59375 0)"/>
       <use xlink:href="#DejaVuSans-6f" transform="translate(272.457031 0)"/>
       <use xlink:href="#DejaVuSans-6c" transform="translate(333.638672 0)"/>
      </g>
     </g>
    </g>
    <g id="xtick_4">
     <g id="line2d_18">
      <g>
       <use xlink:href="#m803675d692" x="213.849372" y="128.935817" style="stroke: #000000; stroke-width: 0.5"/>
      </g>
     </g>
     <g id="text_12">
      <!-- IFNg -->
      <g transform="translate(204.836872 142.014567) scale(0.08 -0.08)">
       <use xlink:href="#DejaVuSans-49"/>
       <use xlink:href="#DejaVuSans-46" transform="translate(29.492188 0)"/>
       <use xlink:href="#DejaVuSans-4e" transform="translate(87.011719 0)"/>
       <use xlink:href="#DejaVuSans-67" transform="translate(161.816406 0)"/>
      </g>
     </g>
    </g>
   </g>
   <g id="matplotlib.axis_4">
    <g id="ytick_5">
     <g id="line2d_19">
      <g>
       <use xlink:href="#mb58188e854" x="148.42846" y="119.384541" style="stroke: #000000; stroke-width: 0.5"/>
      </g>
     </g>
    </g>
    <g id="ytick_6">
     <g id="line2d_20">
      <g>
       <use xlink:href="#mb58188e854" x="148.42846" y="93.391082" style="stroke: #000000; stroke-width: 0.5"/>
      </g>
     </g>
    </g>
    <g id="ytick_7">
     <g id="line2d_21">
      <g>
       <use xlink:href="#mb58188e854" x="148.42846" y="67.397624" style="stroke: #000000; stroke-width: 0.5"/>
      </g>
     </g>
    </g>
    <g id="ytick_8">
     <g id="line2d_22">
      <g>
       <use xlink:href="#mb58188e854" x="148.42846" y="41.404165" style="stroke: #000000; stroke-width: 0.5"/>
      </g>
     </g>
    </g>
   </g>
   <g id="patch_10">
    <path d="M 159.331945 61.585406 
L 181.138916 61.585406 
L 181.138916 50.545943 
L 159.331945 50.545943 
L 159.331945 61.585406 
L 159.331945 61.585406 
z
" clip-path="url(#p5327cbd72e)" style="fill: none; stroke: #000000; stroke-width: 0.5; stroke-linejoin: miter"/>
   </g>
   <g id="line2d_23">
    <path d="M 170.235431 61.585406 
L 170.235431 64.611966 
" clip-path="url(#p5327cbd72e)" style="fill: none; stroke: #000000; stroke-width: 0.5; stroke-linecap: square"/>
   </g>
   <g id="line2d_24">
    <path d="M 170.235431 50.545943 
L 170.235431 46.31142 
" clip-path="url(#p5327cbd72e)" style="fill: none; stroke: #000000; stroke-width: 0.5; stroke-linecap: square"/>
   </g>
   <g id="line2d_25">
    <path d="M 164.783688 64.611966 
L 175.687173 64.611966 
" clip-path="url(#p5327cbd72e)" style="fill: none; stroke: #000000; stroke-width: 0.5; stroke-linecap: square"/>
   </g>
   <g id="line2d_26">
    <path d="M 164.783688 46.31142 
L 175.687173 46.31142 
" clip-path="url(#p5327cbd72e)" style="fill: none; stroke: #000000; stroke-width: 0.5; stroke-linecap: square"/>
   </g>
   <g id="patch_11">
    <path d="M 202.945887 60.747501 
L 224.752858 60.747501 
L 224.752858 55.137175 
L 202.945887 55.137175 
L 202.945887 60.747501 
L 202.945887 60.747501 
z
" clip-path="url(#p5327cbd72e)" style="fill: none; stroke: #000000; stroke-width: 0.5; stroke-linejoin: miter"/>
   </g>
   <g id="line2d_27">
    <path d="M 213.849372 60.747501 
L 213.849372 61.183022 
" clip-path="url(#p5327cbd72e)" style="fill: none; stroke: #000000; stroke-width: 0.5; stroke-linecap: square"/>
   </g>
   <g id="line2d_28">
    <path d="M 213.849372 55.137175 
L 213.849372 54.648242 
" clip-path="url(#p5327cbd72e)" style="fill: none; stroke: #000000; stroke-width: 0.5; stroke-linecap: square"/>
   </g>
   <g id="line2d_29">
    <path d="M 208.39763 61.183022 
L 219.301115 61.183022 
" clip-path="url(#p5327cbd72e)" style="fill: none; stroke: #000000; stroke-width: 0.5; stroke-linecap: square"/>
   </g>
   <g id="line2d_30">
    <path d="M 208.39763 54.648242 
L 219.301115 54.648242 
" clip-path="url(#p5327cbd72e)" style="fill: none; stroke: #000000; stroke-width: 0.5; stroke-linecap: square"/>
   </g>
   <g id="line2d_31">
    <path d="M 159.331945 53.258239 
L 181.138916 53.258239 
" clip-path="url(#p5327cbd72e)" style="fill: none; stroke: #000000; stroke-width: 0.5"/>
   </g>
   <g id="line2d_32">
    <path d="M 202.945887 56.457061 
L 224.752858 56.457061 
" clip-path="url(#p5327cbd72e)" style="fill: none; stroke: #000000; stroke-width: 0.5"/>
   </g>
   <g id="patch_12">
    <path d="M 148.42846 128.935817 
L 148.42846 30.715344 
" style="fill: none; stroke: #000000; stroke-width: 0.5; stroke-linejoin: miter; stroke-linecap: square"/>
   </g>
   <g id="patch_13">
    <path d="M 235.656343 128.935817 
L 235.656343 30.715344 
" style="fill: none; stroke: #000000; stroke-width: 0.5; stroke-linejoin: miter; stroke-linecap: square"/>
   </g>
   <g id="patch_14">
    <path d="M 148.42846 128.935817 
L 235.656343 128.935817 
" style="fill: none; stroke: #000000; stroke-width: 0.5; stroke-linejoin: miter; stroke-linecap: square"/>
   </g>
   <g id="patch_15">
    <path d="M 148.42846 30.715344 
L 235.656343 30.715344 
" style="fill: none; stroke: #000000; stroke-width: 0.5; stroke-linejoin: miter; stroke-linecap: square"/>
   </g>
   <g id="text_13">
    <!-- p = 0.369 -->
    <g transform="translate(172.157402 40.537392) scale(0.08 -0.08)">
     <defs>
      <path id="DejaVuSans-36" d="M 2113 2584 
Q 1688 2584 1439 2293 
Q 1191 2003 1191 1497 
Q 1191 994 1439 701 
Q 1688 409 2113 409 
Q 2538 409 2786 701 
Q 3034 994 3034 1497 
Q 3034 2003 2786 2293 
Q 2538 2584 2113 2584 
z
M 3366 4563 
L 3366 3988 
Q 3128 4100 2886 4159 
Q 2644 4219 2406 4219 
Q 1781 4219 1451 3797 
Q 1122 3375 1075 2522 
Q 1259 2794 1537 2939 
Q 1816 3084 2150 3084 
Q 2853 3084 3261 2657 
Q 3669 2231 3669 1497 
Q 3669 778 3244 343 
Q 2819 -91 2113 -91 
Q 1303 -91 875 529 
Q 447 1150 447 2328 
Q 447 3434 972 4092 
Q 1497 4750 2381 4750 
Q 2619 4750 2861 4703 
Q 3103 4656 3366 4563 
z
" transform="scale(0.015625)"/>
      <path id="DejaVuSans-39" d="M 703 97 
L 703 672 
Q 941 559 1184 500 
Q 1428 441 1663 441 
Q 2288 441 2617 861 
Q 2947 1281 2994 2138 
Q 2813 1869 2534 1725 
Q 2256 1581 1919 1581 
Q 1219 1581 811 2004 
Q 403 2428 403 3163 
Q 403 3881 828 4315 
Q 1253 4750 1959 4750 
Q 2769 4750 3195 4129 
Q 3622 3509 3622 2328 
Q 3622 1225 3098 567 
Q 2575 -91 1691 -91 
Q 1453 -91 1209 -44 
Q 966 3 703 97 
z
M 1959 2075 
Q 2384 2075 2632 2365 
Q 2881 2656 2881 3163 
Q 2881 3666 2632 3958 
Q 2384 4250 1959 4250 
Q 1534 4250 1286 3958 
Q 1038 3666 1038 3163 
Q 1038 2656 1286 2365 
Q 1534 2075 1959 2075 
z
" transform="scale(0.015625)"/>
     </defs>
     <use xlink:href="#DejaVuSans-70"/>
     <use xlink:href="#DejaVuSans-20" transform="translate(63.476562 0)"/>
     <use xlink:href="#DejaVuSans-3d" transform="translate(95.263672 0)"/>
     <use xlink:href="#DejaVuSans-20" transform="translate(179.052734 0)"/>
     <use xlink:href="#DejaVuSans-30" transform="translate(210.839844 0)"/>
     <use xlink:href="#DejaVuSans-2e" transform="translate(274.462891 0)"/>
     <use xlink:href="#DejaVuSans-33" transform="translate(306.25 0)"/>
     <use xlink:href="#DejaVuSans-36" transform="translate(369.873047 0)"/>
     <use xlink:href="#DejaVuSans-39" transform="translate(433.496094 0)"/>
    </g>
   </g>
   <g id="text_14">
    <!-- Beta -->
    <g transform="translate(182.817402 24.715344) scale(0.08 -0.08)">
     <defs>
      <path id="DejaVuSans-42" d="M 1259 2228 
L 1259 519 
L 2272 519 
Q 2781 519 3026 730 
Q 3272 941 3272 1375 
Q 3272 1813 3026 2020 
Q 2781 2228 2272 2228 
L 1259 2228 
z
M 1259 4147 
L 1259 2741 
L 2194 2741 
Q 2656 2741 2882 2914 
Q 3109 3088 3109 3444 
Q 3109 3797 2882 3972 
Q 2656 4147 2194 4147 
L 1259 4147 
z
M 628 4666 
L 2241 4666 
Q 2963 4666 3353 4366 
Q 3744 4066 3744 3513 
Q 3744 3084 3544 2831 
Q 3344 2578 2956 2516 
Q 3422 2416 3680 2098 
Q 3938 1781 3938 1306 
Q 3938 681 3513 340 
Q 3088 0 2303 0 
L 628 0 
L 628 4666 
z
" transform="scale(0.015625)"/>
     </defs>
     <use xlink:href="#DejaVuSans-42"/>
     <use xlink:href="#DejaVuSans-65" transform="translate(68.603516 0)"/>
     <use xlink:href="#DejaVuSans-74" transform="translate(130.126953 0)"/>
     <use xlink:href="#DejaVuSans-61" transform="translate(169.335938 0)"/>
    </g>
   </g>
  </g>
  <g id="axes_3">
   <g id="patch_16">
    <path d="M 253.10192 128.935817 
L 340.329803 128.935817 
L 340.329803 30.715344 
L 253.10192 30.715344 
L 253.10192 128.935817 
z
" style="fill: none"/>
   </g>
   <g id="PathCollection_5">
    <defs>
     <path id="C2_0_d1939b3975" d="M 0 1.322876 
C 0.350831 1.322876 0.68734 1.183489 0.935414 0.935414 
C 1.183489 0.68734 1.322876 0.350831 1.322876 -0 
C 1.322876 -0.350831 1.183489 -0.68734 0.935414 -0.935414 
C 0.68734 -1.183489 0.350831 -1.322876 0 -1.322876 
C -0.350831 -1.322876 -0.68734 -1.183489 -0.935414 -0.935414 
C -1.183489 -0.68734 -1.322876 -0.350831 -1.322876 0 
C -1.322876 0.350831 -1.183489 0.68734 -0.935414 0.935414 
C -0.68734 1.183489 -0.350831 1.322876 0 1.322876 
z
"/>
    </defs>
    <g clip-path="url(#p89e250980e)">
     <use xlink:href="#C2_0_d1939b3975" x="273.911165" y="101.00056" style="fill: #cb334d; stroke: #cb334d"/>
    </g>
    <g clip-path="url(#p89e250980e)">
     <use xlink:href="#C2_0_d1939b3975" x="280.123013" y="89.464683" style="fill: #cb334d; stroke: #cb334d"/>
    </g>
    <g clip-path="url(#p89e250980e)">
     <use xlink:href="#C2_0_d1939b3975" x="272.117575" y="97.611162" style="fill: #cb334d; stroke: #cb334d"/>
    </g>
    <g clip-path="url(#p89e250980e)">
     <use xlink:href="#C2_0_d1939b3975" x="271.351251" y="93.611091" style="fill: #cb334d; stroke: #cb334d"/>
    </g>
    <g clip-path="url(#p89e250980e)">
     <use xlink:href="#C2_0_d1939b3975" x="276.339278" y="84.695317" style="fill: #cb334d; stroke: #cb334d"/>
    </g>
    <g clip-path="url(#p89e250980e)">
     <use xlink:href="#C2_0_d1939b3975" x="282.784856" y="92.485047" style="fill: #cb334d; stroke: #cb334d"/>
    </g>
    <g clip-path="url(#p89e250980e)">
     <use xlink:href="#C2_0_d1939b3975" x="274.814594" y="97.323587" style="fill: #cb334d; stroke: #cb334d"/>
    </g>
    <g clip-path="url(#p89e250980e)">
     <use xlink:href="#C2_0_d1939b3975" x="280.996281" y="87.60484" style="fill: #cb334d; stroke: #cb334d"/>
    </g>
    <g clip-path="url(#p89e250980e)">
     <use xlink:href="#C2_0_d1939b3975" x="276.537199" y="95.368052" style="fill: #cb334d; stroke: #cb334d"/>
    </g>
    <g clip-path="url(#p89e250980e)">
     <use xlink:href="#C2_0_d1939b3975" x="318.765179" y="86.828672" style="fill: #54aead; stroke: #54aead"/>
    </g>
    <g clip-path="url(#p89e250980e)">
     <use xlink:href="#C2_0_d1939b3975" x="310.459564" y="113.38118" style="fill: #54aead; stroke: #54aead"/>
    </g>
    <g clip-path="url(#p89e250980e)">
     <use xlink:href="#C2_0_d1939b3975" x="329.19679" y="117.09363" style="fill: #54aead; stroke: #54aead"/>
    </g>
    <g clip-path="url(#p89e250980e)">
     <use xlink:href="#C2_0_d1939b3975" x="328.748362" y="86.108636" style="fill: #54aead; stroke: #54aead"/>
    </g>
    <g clip-path="url(#p89e250980e)">
     <use xlink:href="#C2_0_d1939b3975" x="314.616301" y="109.752935" style="fill: #54aead; stroke: #54aead"/>
    </g>
    <g clip-path="url(#p89e250980e)">
     <use xlink:href="#C2_0_d1939b3975" x="317.946703" y="114.854467" style="fill: #54aead; stroke: #54aead"/>
    </g>
    <g clip-path="url(#p89e250980e)">
     <use xlink:href="#C2_0_d1939b3975" x="326.733879" y="88.742758" style="fill: #54aead; stroke: #54aead"/>
    </g>
    <g clip-path="url(#p89e250980e)">
     <use xlink:href="#C2_0_d1939b3975" x="319.233623" y="114.755588" style="fill: #54aead; stroke: #54aead"/>
    </g>
    <g clip-path="url(#p89e250980e)">
     <use xlink:href="#C2_0_d1939b3975" x="315.464955" y="118.538433" style="fill: #54aead; stroke: #54aead"/>
    </g>
   </g>
   <g id="PathCollection_6"/>
   <g id="matplotlib.axis_5">
    <g id="xtick_5">
     <g id="line2d_33">
      <g>
       <use xlink:href="#m803675d692" x="274.908891" y="128.935817" style="stroke: #000000; stroke-width: 0.5"/>
      </g>
     </g>
     <g id="text_15">
      <!-- Control -->
      <g transform="translate(260.452016 142.014567) scale(0.08 -0.08)">
       <use xlink:href="#DejaVuSans-43"/>
       <use xlink:href="#DejaVuSans-6f" transform="translate(69.824219 0)"/>
       <use xlink:href="#DejaVuSans-6e" transform="translate(131.005859 0)"/>
       <use xlink:href="#DejaVuSans-74" transform="translate(194.384766 0)"/>
       <use xlink:href="#DejaVuSans-72" transform="translate(233.59375 0)"/>
       <use xlink:href="#DejaVuSans-6f" transform="translate(272.457031 0)"/>
       <use xlink:href="#DejaVuSans-6c" transform="translate(333.638672 0)"/>
      </g>
     </g>
    </g>
    <g id="xtick_6">
     <g id="line2d_34">
      <g>
       <use xlink:href="#m803675d692" x="318.522832" y="128.935817" style="stroke: #000000; stroke-width: 0.5"/>
      </g>
     </g>
     <g id="text_16">
      <!-- IFNg -->
      <g transform="translate(309.510332 142.014567) scale(0.08 -0.08)">
       <use xlink:href="#DejaVuSans-49"/>
       <use xlink:href="#DejaVuSans-46" transform="translate(29.492188 0)"/>
       <use xlink:href="#DejaVuSans-4e" transform="translate(87.011719 0)"/>
       <use xlink:href="#DejaVuSans-67" transform="translate(161.816406 0)"/>
      </g>
     </g>
    </g>
   </g>
   <g id="matplotlib.axis_6">
    <g id="ytick_9">
     <g id="line2d_35">
      <g>
       <use xlink:href="#mb58188e854" x="253.10192" y="119.384541" style="stroke: #000000; stroke-width: 0.5"/>
      </g>
     </g>
    </g>
    <g id="ytick_10">
     <g id="line2d_36">
      <g>
       <use xlink:href="#mb58188e854" x="253.10192" y="93.391082" style="stroke: #000000; stroke-width: 0.5"/>
      </g>
     </g>
    </g>
    <g id="ytick_11">
     <g id="line2d_37">
      <g>
       <use xlink:href="#mb58188e854" x="253.10192" y="67.397624" style="stroke: #000000; stroke-width: 0.5"/>
      </g>
     </g>
    </g>
    <g id="ytick_12">
     <g id="line2d_38">
      <g>
       <use xlink:href="#mb58188e854" x="253.10192" y="41.404165" style="stroke: #000000; stroke-width: 0.5"/>
      </g>
     </g>
    </g>
   </g>
   <g id="patch_17">
    <path d="M 264.005405 97.323587 
L 285.812376 97.323587 
L 285.812376 89.464683 
L 264.005405 89.464683 
L 264.005405 97.323587 
L 264.005405 97.323587 
z
" clip-path="url(#p89e250980e)" style="fill: none; stroke: #000000; stroke-width: 0.5; stroke-linejoin: miter"/>
   </g>
   <g id="line2d_39">
    <path d="M 274.908891 97.323587 
L 274.908891 101.00056 
" clip-path="url(#p89e250980e)" style="fill: none; stroke: #000000; stroke-width: 0.5; stroke-linecap: square"/>
   </g>
   <g id="line2d_40">
    <path d="M 274.908891 89.464683 
L 274.908891 84.695317 
" clip-path="url(#p89e250980e)" style="fill: none; stroke: #000000; stroke-width: 0.5; stroke-linecap: square"/>
   </g>
   <g id="line2d_41">
    <path d="M 269.457148 101.00056 
L 280.360633 101.00056 
" clip-path="url(#p89e250980e)" style="fill: none; stroke: #000000; stroke-width: 0.5; stroke-linecap: square"/>
   </g>
   <g id="line2d_42">
    <path d="M 269.457148 84.695317 
L 280.360633 84.695317 
" clip-path="url(#p89e250980e)" style="fill: none; stroke: #000000; stroke-width: 0.5; stroke-linecap: square"/>
   </g>
   <g id="patch_18">
    <path d="M 307.619347 114.854467 
L 329.426318 114.854467 
L 329.426318 88.742758 
L 307.619347 88.742758 
L 307.619347 114.854467 
L 307.619347 114.854467 
z
" clip-path="url(#p89e250980e)" style="fill: none; stroke: #000000; stroke-width: 0.5; stroke-linejoin: miter"/>
   </g>
   <g id="line2d_43">
    <path d="M 318.522832 114.854467 
L 318.522832 118.538433 
" clip-path="url(#p89e250980e)" style="fill: none; stroke: #000000; stroke-width: 0.5; stroke-linecap: square"/>
   </g>
   <g id="line2d_44">
    <path d="M 318.522832 88.742758 
L 318.522832 86.108636 
" clip-path="url(#p89e250980e)" style="fill: none; stroke: #000000; stroke-width: 0.5; stroke-linecap: square"/>
   </g>
   <g id="line2d_45">
    <path d="M 313.07109 118.538433 
L 323.974575 118.538433 
" clip-path="url(#p89e250980e)" style="fill: none; stroke: #000000; stroke-width: 0.5; stroke-linecap: square"/>
   </g>
   <g id="line2d_46">
    <path d="M 313.07109 86.108636 
L 323.974575 86.108636 
" clip-path="url(#p89e250980e)" style="fill: none; stroke: #000000; stroke-width: 0.5; stroke-linecap: square"/>
   </g>
   <g id="line2d_47">
    <path d="M 264.005405 93.611091 
L 285.812376 93.611091 
" clip-path="url(#p89e250980e)" style="fill: none; stroke: #000000; stroke-width: 0.5"/>
   </g>
   <g id="line2d_48">
    <path d="M 307.619347 113.38118 
L 329.426318 113.38118 
" clip-path="url(#p89e250980e)" style="fill: none; stroke: #000000; stroke-width: 0.5"/>
   </g>
   <g id="patch_19">
    <path d="M 253.10192 128.935817 
L 253.10192 30.715344 
" style="fill: none; stroke: #000000; stroke-width: 0.5; stroke-linejoin: miter; stroke-linecap: square"/>
   </g>
   <g id="patch_20">
    <path d="M 340.329803 128.935817 
L 340.329803 30.715344 
" style="fill: none; stroke: #000000; stroke-width: 0.5; stroke-linejoin: miter; stroke-linecap: square"/>
   </g>
   <g id="patch_21">
    <path d="M 253.10192 128.935817 
L 340.329803 128.935817 
" style="fill: none; stroke: #000000; stroke-width: 0.5; stroke-linejoin: miter; stroke-linecap: square"/>
   </g>
   <g id="patch_22">
    <path d="M 253.10192 30.715344 
L 340.329803 30.715344 
" style="fill: none; stroke: #000000; stroke-width: 0.5; stroke-linejoin: miter; stroke-linecap: square"/>
   </g>
   <g id="text_17">
    <!-- p = 0.025 -->
    <g transform="translate(276.830862 40.537392) scale(0.08 -0.08)">
     <use xlink:href="#DejaVuSans-70"/>
     <use xlink:href="#DejaVuSans-20" transform="translate(63.476562 0)"/>
     <use xlink:href="#DejaVuSans-3d" transform="translate(95.263672 0)"/>
     <use xlink:href="#DejaVuSans-20" transform="translate(179.052734 0)"/>
     <use xlink:href="#DejaVuSans-30" transform="translate(210.839844 0)"/>
     <use xlink:href="#DejaVuSans-2e" transform="translate(274.462891 0)"/>
     <use xlink:href="#DejaVuSans-30" transform="translate(306.25 0)"/>
     <use xlink:href="#DejaVuSans-32" transform="translate(369.873047 0)"/>
     <use xlink:href="#DejaVuSans-35" transform="translate(433.496094 0)"/>
    </g>
   </g>
   <g id="text_18">
    <!-- Delta -->
    <g transform="translate(286.043987 24.715344) scale(0.08 -0.08)">
     <defs>
      <path id="DejaVuSans-44" d="M 1259 4147 
L 1259 519 
L 2022 519 
Q 2988 519 3436 956 
Q 3884 1394 3884 2338 
Q 3884 3275 3436 3711 
Q 2988 4147 2022 4147 
L 1259 4147 
z
M 628 4666 
L 1925 4666 
Q 3281 4666 3915 4102 
Q 4550 3538 4550 2338 
Q 4550 1131 3912 565 
Q 3275 0 1925 0 
L 628 0 
L 628 4666 
z
" transform="scale(0.015625)"/>
     </defs>
     <use xlink:href="#DejaVuSans-44"/>
     <use xlink:href="#DejaVuSans-65" transform="translate(77.001953 0)"/>
     <use xlink:href="#DejaVuSans-6c" transform="translate(138.525391 0)"/>
     <use xlink:href="#DejaVuSans-74" transform="translate(166.308594 0)"/>
     <use xlink:href="#DejaVuSans-61" transform="translate(205.517578 0)"/>
    </g>
   </g>
  </g>
 </g>
 <defs>
  <clipPath id="pf954b0674e">
   <rect x="43.755" y="30.715344" width="87.227883" height="98.220472"/>
  </clipPath>
  <clipPath id="p5327cbd72e">
   <rect x="148.42846" y="30.715344" width="87.227883" height="98.220472"/>
  </clipPath>
  <clipPath id="p89e250980e">
   <rect x="253.10192" y="30.715344" width="87.227883" height="98.220472"/>
  </clipPath>
 </defs>
</svg>
